<mxfile host="65bd71144e">
    <diagram id="Q7xtah9KdvSCs6TOb17e" name="Page-1">
        <mxGraphModel dx="954" dy="527" grid="1" gridSize="10" guides="1" tooltips="1" connect="1" arrows="1" fold="1" page="1" pageScale="1" pageWidth="850" pageHeight="1100" math="0" shadow="0">
            <root>
                <mxCell id="0"/>
                <mxCell id="1" parent="0"/>
                <mxCell id="13" value="" style="whiteSpace=wrap;html=1;gradientColor=none;fillColor=#99FF99;opacity=10;align=left;" parent="1" vertex="1">
                    <mxGeometry x="430" y="120" width="170" height="270" as="geometry"/>
                </mxCell>
                <mxCell id="15" value="" style="whiteSpace=wrap;html=1;fillColor=#e3c800;opacity=10;align=left;fontColor=#000000;strokeColor=#B09500;" parent="1" vertex="1">
                    <mxGeometry x="40" y="120" width="380" height="270" as="geometry"/>
                </mxCell>
                <mxCell id="2" value="ROS&lt;br&gt;(Port 11311)" style="whiteSpace=wrap;html=1;" parent="1" vertex="1">
                    <mxGeometry x="105" y="160" width="120" height="60" as="geometry"/>
                </mxCell>
                <mxCell id="20" style="edgeStyle=none;html=1;exitX=0;exitY=0.5;exitDx=0;exitDy=0;entryX=1;entryY=0.5;entryDx=0;entryDy=0;rounded=0;shape=link;" parent="1" source="3" target="2" edge="1">
                    <mxGeometry relative="1" as="geometry">
                        <Array as="points">
                            <mxPoint x="280" y="190"/>
                        </Array>
                    </mxGeometry>
                </mxCell>
                <mxCell id="3" value="FIFOS bridge" style="whiteSpace=wrap;html=1;" parent="1" vertex="1">
                    <mxGeometry x="280" y="160" width="120" height="60" as="geometry"/>
                </mxCell>
                <mxCell id="4" value="VNC" style="whiteSpace=wrap;html=1;" parent="1" vertex="1">
                    <mxGeometry x="455" y="300" width="120" height="60" as="geometry"/>
                </mxCell>
                <mxCell id="18" value="" style="edgeStyle=none;html=1;rounded=0;shape=link;entryX=0.5;entryY=1;entryDx=0;entryDy=0;exitX=0.5;exitY=0;exitDx=0;exitDy=0;" parent="1" source="5" target="3" edge="1">
                    <mxGeometry relative="1" as="geometry">
                        <Array as="points">
                            <mxPoint x="165" y="260"/>
                            <mxPoint x="340" y="260"/>
                        </Array>
                    </mxGeometry>
                </mxCell>
                <mxCell id="23" value="" style="edgeStyle=none;html=1;rounded=0;shape=link;" parent="1" source="5" target="22" edge="1">
                    <mxGeometry relative="1" as="geometry"/>
                </mxCell>
                <mxCell id="5" value="Agent" style="whiteSpace=wrap;html=1;" parent="1" vertex="1">
                    <mxGeometry x="105" y="300" width="120" height="60" as="geometry"/>
                </mxCell>
                <mxCell id="14" value="&lt;font style=&quot;font-size: 36px;&quot;&gt;ðŸ’»&lt;/font&gt;" style="text;strokeColor=none;align=center;fillColor=none;html=1;verticalAlign=middle;whiteSpace=wrap;rounded=0;opacity=10;" parent="1" vertex="1">
                    <mxGeometry x="485" y="240" width="60" height="30" as="geometry"/>
                </mxCell>
                <mxCell id="17" value="" style="shape=image;imageAspect=0;aspect=fixed;verticalLabelPosition=bottom;verticalAlign=top;fontSize=36;fillColor=#99FF99;gradientColor=none;image=data:image/png,iVBORw0KGgoAAAANSUhEUgAAAkQAAAGTCAYAAADJMw1QAAAABHNCSVQICAgIfAhkiAAAAAlwSFlzAAAPYQAAD2EBqD+naQAAABl0RVh0U29mdHdhcmUAd3d3Lmlua3NjYXBlLm9yZ5vuPBoAACAASURBVHic7J13nCRlnf8/T+XO3ZNn42xil11Y4gK7iAEFFPZA4RAMB4KKgCLyE1EQxHR6h4qoRzjBgJ7KKRyidyiKosgqQUCWDcCyOc7OTuxU+fn9UZ27OsxMx9nn/Xrta7urarqfCV31qW/4fAkYDAajtSEAwoqiRCzLilCeD1PbjnCUhinHRUBpmBIS5iiNUCAMIALn//RjlVL6X5ZhfApAsonfB4PBaGFIsxfAYDAOC7zwesOSaUZs2w5Tng+D0ghHSJhSmhY1EQKEQWkYhEQoECaOoAnVYgEE+JGh65fW4rUYDMbMgwkiBoNRLR54vZGUqIlQno/AtiMcx0VSoiZCHCETASERUBqBI2giAJQmrx0AKAccrev6xmYvhMFgtB5MEDEYhw9eeDwRybLCqShNBJSGOUIilNIwKI1QQsKpKE0EzuN0GqomUZpmw6JEDAajFEwQMRjtAwcgLMtyOu0UyamlyQianFoap4YmlYICIDV3+S2BYXLcEVDVHc1eCIPBaC2YIGIwGkte2gmCoFBKPVWmnnoA8E1ef9tDKb3TMoyPNXsdDAajtWCCiMGoEaIoHkMJOY8S0s9RGs7reEqloMCiNNOCEAJBEVP/JIiyCNEjQVAkCLIIMfW/4JGw8+lXET0w6vYyqimKCxCPH2j0+hkMRusiNHsBDMZMgBfFf6GE/AAATygFLTyAsHuPNLwkQJRF8IoEUREdIePJETSp7bziPC88tur3EXi89OA6t12KYBjXmcCna/ZNMRiMtoedpRmM6aMIkrQfTkRoxkMIgeCRIMgCREV2/i+I0jiCRkpFbATn/5To4XiuMQulwN/u+x3iQ+NueydMXR8A4BpCYjAYhx8sQsRgTBNBEI5Dm4mhwiiNmEpBZaI0nnRkRoQop6IzKUEzmShNUyHAgjXLsOGRZ9z2BgVJ+pip619q9LIYDEZrwgQRgzFNCCHHFKXI6v2eHMkXMIWixpObapLyojiiLII0KkrTZHqPnIutT25AcjRevJOQjwO4HYDLTgaDcbjBBBGDMU1sjjuG0MlLIk7gMyImXUPDizw4gc+KGkVK1dLIqUiOE72RvDIIxzLelSAcwcDJS7H5ty8U76S0S5TlKwxN+2bjV8ZgMFoNdkZlMKaJIEnrAKwp3N61qA/dS2ZlojRiujsqlYKqVZTGNm2YmgFT1WGoOkzdhKnqMFUDhprarhkQZQHejgB6l88FLx4+90K2aWHdXY9Ci6luu/eaur4IgNbgZTEYjBaDCSIGY3pwgiSNA/AX7lh5wRr0LJ1d8QVs04KhGbBUwxE0mglD1WGpOgzNhKlqMDTTea4aMDUjtd+AqRuwDGtSC1YCHixfuwodC3on9XXtzK5nXsNrf3jJdR+h9ArDMO5t8JIYDEaLwQQRgzENZFlebFG6xW3fqVedDU/E5/p16kQCW5/ciNEdg1AnGj+AXZBFrLrkdPi6gw1/72Zg6SbW3fUo9ERxIIgC2yxdXwrAbPzKGAxGq3B4VFYyGHXCpPQYt+28JEAJe12/ZnTXEJ6+93fYv35HU8QQAJiaga1PbmjKezcDXhIw54TFrvsIsJCXpAsbvCQGg9FiMEHEYEwDArgKIn9PGMTFjNFI6tjw8NMwNaPua6vE8LZB2Obk0m3tzNwTF5e0DCDAzWDnQwbjsObwqaxkMOqDqyAK9LoPhx96bS+0uGtxb0UIRzI+QGmfICHVci9I+W33Qq4hYsrheeczr2H7U5syr2cZJuKHogj0tZWF0pQRPRJmH7cQO59+1W33cl6Wz7E07deNXheDwWgNmCBiMKYBBVa6FeIFut0F0ciOg3nPCSHoO3p+psVeVETwaW8hSUgJHkfcTNcQ0e9SLxQfnjhsBBEAzD95KfY8/7prITqh9LMAmCBiMA5TmCBiMKZOiADz3Xb4e9xFRnI83wNQDihYsXZV7Vfmgq8jULQtMRJtyHu3CpJPRv/KAex5fqvb7pMFRXmLqapPNHpdDAaj+bCcOYMxRQRBWAmXTk1CCPw97hEibTyR91wOuneh1QNPR6CorikxfHgJIgAYWL2stAeUZd3U2NUwGIxWgQkiBmOKEJ53rR9Swj7wUnHwlVp2Uf2QJ+ipz+Jc4EUecsH7xQ9DQaQEvehbPtd9JyFvEwRhdWNXxGAwWgEmiBiMKWKXLKh2T5epMRXUzh/xIQfdW/Prha8zv44oMRIFncLYkXZnYPUy1y5AAADH3dDY1TAYjFaACSIGY4qQEh5EgRLpMnW8eIaoJ9RoQZRfR2QZVtO8kJqJryuI7iNmldp9niRJRzVyPQwGo/kwQcRgTA0ewAq3Hf5SEaKJRNG2xkeIXAqrD8O0GQAsOHV5qV2EAp9u5FoYDEbzYYKIwZgCkiQtAeCqZkp1mGkugkhpsCDydha33ieGJxq6hlYh0BdGZ4l5bhR4jyzL7tbWDAZjRsIEEYMxBawS9UOiIsFTQuQkXVJTjRdExRGi+GHWep/LwKlHltrFm8AnG7kWBoPRXJggYjCmQOmRHaGSI5O1ghoiXhIgeqSar60csl+BqOS/Z/zQ4RkhAoDIvG6E53a57iOUXgavt2ShEYPBmFkwQcRgTI2VbhtL+Q8BxRGiRkeH0ng6/HnPD9caojQDq5eV2iULpnldI9fCYDCaBxNEDMbUmFSHGQBo0fwaIqWBHkS5+AvqiLSYClNt/rDZZtG1uB+Bvkip3VcBcA8hMRiMGQUTRAzG5OkAMMdtR6mCalMzikSHEmqcS3Uu3k5/0bbDbYRHIfNPWVpql0+QpI81ci0MBqM5MEHEYEwSQVFco0OEI/C5DFAFAHXcpcMs0JwIkVun2eHoWJ1L77I58LrMektxDYCSOxkMxsyACSIGY5KUMmT0RPzgRfd5ya3gQZTG1YvoMI8QEY5g4JQjSu3uEGT5I41cD4PBaDxMEDEYk8QuIYiCJQwZAfcIkadJKTNPxA/C5bfCHe4RIgDoP3qgdKE7pZ8E0JyQHoPBaAhMEDEYk6R0y30ZQRRtviljGo7noITzxVj8MDVnzIXwHOadXDJK1CeK4qWNXA+DwWgsTBAxGJNDAODq5ldqZAfg4lJNADmg1HJdk8JXUC+THIkVDZ49HJl97AJIPtl1n03IDXB+/wwGYwbCBBGDMQkkSVoGwFXJlPMgKhygKnsVcAJf07VNhsI6ItuyXYfPHm7wooC5Jy5x3UeABbwkXdzgJTEYjAbBBBGDMQlKjuzwSGW7xpIFYkNu8JT7QtwKq1kdkcPcExYXuXmnIcBNYOdNBmNGwj7YDMYkIFNwqKY2hRZT87aVmnfWKNyHvDJBBACCImL2cQtL7T6Sl6RzG7keBoPRGJggYjAmRwmH6jL1Q3EV1LLztjWr5T4NG/JannknHwFedE9ppqJEDAZjhsEEEYMxOdwFUbmCapfaHKXJKTPJK0P05hcPs5RZFskro3/lglK7VwmyfEYj18NgMOoPE0QMRvV0A+hz21Gu5b5wqCvQvJb7XArriBKs9T6PgdXLwPElTpG2fWNjV8NgMOoNayFlMKpEkOVjQYtb0wlH4OsqPdmhqOUezRvbkYu3M4Cx3Ycyz/W4BiOhFUWODleUoAe9K+Zh//odxTsJeYsgCKeaprmukUsCEJBlOWjbdpjyfIjadhCUBjiOC1JKgwBClJAQR2mQAkEQEgTAg9IoJWQ3KP2Dpeu/BzDSwHUzGG0BE0QMRvW4psu8ncGyLfRuYzuaNdg1l0IvIsAZ4RFigijDgtXLcODlnaAuQhgc92kA1RRYSwCCiqIELcuKUJ4PUEqDoDTIURqgjmiJUEKc50AQlAZBSJACYUKI89x5HViUAoQAtg0CAITkrY9Qisyzgu0APixIUhzAf5i6fhuYMGIwMjBBxGBUCaH0GDfrwmBv6Q4zoFgQcQIHqQVEh2th9XAUoTldTVhNa+LtDKBn2WwMbt7jtnutKIr3UECjHKdwlHooEAEhEVAaARCBE9WJAIBp2/lCBgAl2REqeUImtZ0AcItKThMfgE8LkvQvhNLzDcN4ptZvwGC0I0wQMRhVQqcwsgMoFkRy0AuQEgc3EOZFVB0L1hxZShARSshHnAfuUZkWZxYl5E+8JF1s6fojzV4Mg9FsWFE1g1EdEoClbjsqC6L8oupmexCl8YT94IT8UwDzIirG3xtG1yLXWvqZgEKAn/OyfE6zF8JgNBsmiBiMKhBFcTlSNRyF+MukzCzDhJHQ8rbJLVA/BDjF4J6wP28b8yJyZ8Gpy5u9hHoiEUr/h4kixuEOE0QMRhXYJRyqJZ8M2Vd6SKs6XlxQ7WmBDrM0hWmz5GgMdoGJJAMIzelEeF53s5dRTyRC6S8EQXhjsxfCYDQLJogYjCogU60firp5ELWOICosrKY2RXI01qTVtDYDq5c1ewmTRiQEYY6v9kTvAcc9IkmSq/hnMGY6rKiawaiOEiM7yneYublUt0rKDAC8Lq338ZEofF3Fs84Od7oW9SHQH0F0/2jd34sHQYDjEOI4BDgOfo5HgJDM4xBxtgc4Dn7CwZ96HOI4BDneeU4IFOJIoUHLwmdHDuJXiYop0bAN/FZRlFNVVd1e92+UwWghmCBiMKrDfahrmZEdQHFBNdA6RdWAe6cZK6wuzcApy/Dyw38re4xMCMIchxDHw0M4yBxBmHAIczxCnPO/whHIhEOIcAjzvLOf56EQZ3sPX3VUpyp6eR73dvcjMMLhJ9HxSof3G7b9e/h8pyIeH6zhMhiMloYJIsZMxwO/PyAbRtC27RDl+TC17QAoDea4+wYpIeEcd98AUo+J4yETQInPSrmhrgCQdDFllFuohqiUFxHDnZ5ls+HrCiJ+qHjMSYDj8OLsBQhypU06mwkB8PWOHiRsGw/Hy/+OCbBIMIz/NYE3AygOczIYMxAmiBitigzH3TeQcvcNUtsOAghwlAZT7r7h1JiCQGZMgfM4TIAQgCAAEboOC5i0u28lqyCO51wFRS5aQVG15JXBS63zsRMVCbJPgRZXM9tYhKg0hBAMnHwENv7f34v2RW0b98fGcU2wowkrqw4eBHd29sGgFP+bqFgrdqIgST8ydf1CAKzSnjHjaZ0zM2Mm4YHXG5FMM2LbdgSCoFBKPbDtCMdxEUppBJRGyrj7ph1+J+fuW6WQqRW+rmDp4Z8pCiNEcguly9J4uwJMEE2CvqPmY9tTm5B06SC8Z3wUHw6EM7U7rYhACO7p6sf7D+7Fn9Ti76GA8wVJ+rKp6zc1Ym0MRjNhgoiRy3SFjAIgDIDANJ1bSo5zj8oQ0q7uvhkCFeqHQAGtoMuslTrM0ng7gxjdOZR5bqg69LgGydf88SKtCOE5zDt5KV793YtF+4ZsCz+NRXF5oHyxfbORCMH3u2fhnYN7sF5XKx1+oyiK2wzDuK8Ra2MwmgUTRDODjJChlCqUUg/l+UiekAEUUOohhERKCJkQAO5wEDK1wl+hw0xPaLBNK2+b0oIRIrchr/FDE5B8M9p3Z1rMPnYBdvx1M7RYsZj4zvgw3u8PQiItMJ+lDH6OwwM9s/BPg3uw1dDLHksJuUtQlNdNVf1TY1bHYDQeJoiaSwSKEpRsO2jbdhCpKdgcpWHKcSFQ6hT3EhIkzgTsEAhJ18YE4RT7OlbDaSFDSEa0FNbJgBAmZGpIRQ8il5b7VhREbnVQiZEoIvOZICoFJ/CYe+ISvP6nl4v27bVM/E88iov9rW9d0MULeKBnNs7evwtDtlXuUBGU/lxRlJNZOz5jpsIE0dTwwOuNKLat2LbtsW07UhCRUQB4QGmkMCJDndlBHgA9AHjYdjYiQykIUjUyuRGZ9Lu2+B3n4UalCFHhUFegNWuI/KzTbErMOWERdj79Kgy1OLry7YkRvNsfbAvn2/mCiB/2zML5g3uglbtRorTbpPRhAKsBFPtJMBhtDhNExUiCIJxEeP5E27YXE0IWAZhHAKeTyUktAaYJM/0VHFd1RIZJmtZHShvgEQ42BXZbRtExsl+B5C1fY9PqHkRp5JAXvMjDMrIRgsRwcVs5Ix9BFjHnhEXYvm5z0b7XDR2PJmJY6/W7fGXrsUr24PbOXnzs0AFUiB0fw8vytyxNu6IxK2MwGgcTRAARBGE1OO4MUPomEHIKAA+lFCQnIsMSTK2PkBIyQcIhmOfuy8PHOSZ4QY5DgOPh5wj8xHkc5AhCqWOChIOc83v/7MhB3BsdK3qvigXVANQJN5fq1hNEhBB4In7EDmYN+1iEqDrmrVqCXc9tgaWbRftuHx/GOV5/29wEXegLYouh447xkbLHEUo/zIviOssw7m/Q0hiMhnA4C6KgIElXU+AjAAYAsJRUk0iPKQhy6XEEPPw5YwrCJD2+gEuJGC5nrAHvPM8ZU1BLNpYoNq1UPwQUR4gIz5UdBNtMfJ3BPEGkjidgmxY4oTVNBlsF0Stj1jELsPu5LUX7NuganlATOF1pPRFcis+Eu/C6oVf0KCKE3CVJ0ou6rq9v0NIYjLpzOAoiXpTlqymlXwAQYRJo6hAAoZQgSc9SCpCsqAmmojNO+omkojFOFCZ3PpOXa91Ki0265rq90sgOoLiGSPYrIFxr/sUVjvCglCIxEqtYJ9WqGKoOalFYhgnbMGGbNjiRhyfsByfU9u9t/ilLsfeFrbCtYu/Cb42PtJUg4gDc2dWHnQd24+USf/spvDbwIIATAbD8KmNGcHgJIo9nnmBZ/00pPaXZS2k2oZQY8RcIlhCf3p4VNb7U/KVAjpDxp46ZyeyxTIyV6LypNNQVKHapVlpoqGshpUZ41EMQmaoB27Zh6SZsw4JtWjB0A9SyYWomLNMENW2YmgHbsmHpBizDch6ntpmaAcu0YVsWTNX5WsswHQFkljZVFhUJc09aggWnHpmXEp8OSsCDvqMHsO8f24r2/U1N4Bk1iZOV1vOfKoWHcPh+9yycsX9Xyb//FEsESfp+ysmaVRUw2p7DRhAJgrAGtv0IgK5mr2U6BHPESCAlaoIcjwCfE50hqX88lxI+qXRTTgSHUZmNJe6QOYF3nRKfi23a0BP5X+9pQVPGNO5DXsvf+KtjcQxvH0RsaLxIrNiWDct0xApsG6ZuOqLGLHuBrTuGqmPbkxuhxVQc+fbja/a6C1Yvw/7120HtYl3wrYkR/FSZXbP3agTzBRHf6erDJQf3VlI6F4iyfLWhaXc2ZmUMRv04LASRoCinw7Z/BUqbdoueFiO5wiTM8anHJKcWhkOQz4qddEFwgDiFv4zGUUoQ+btDFVNfWjSZ33GI1my5T+PtCDg50JwlJ0ZKFFZTYPu6Tdj21CZXAdAO7H1xK2avHEBwVm3mjnkiPvQum4MDm3YX7Xs8GcdLuopjpNasHyvFWR4frgl24NsT5YusKaW3ybL8uKZprzZoaQxGXZjxgkiSpKNt234YwJTFUBcvpAp4sx1MuYLFz3EIEoIgzzvPU0XC/lT6KcTxbdNpwshSsn6oijSSmweREmhdQcRLApSAJ68QPFai02zfS9uw9cmNjVpafaDA7he2YkWNBBEADKw50lUQAcB/jI/i3u7+mr1Xo/hMuBPPa0ms08raDnktSn8MYA2A4nY7BqNNmOmCKGABDxPHP6i6L+A4nCx7sEbx4mRZwRGixCIzhykbDHdBVE3LfdLNpboFW+5z8XYE8gRRYjjqRIxy1DyltOliSFBEcDwHXhTAiQI4gYMoiSA8B0EWwItC6nHqOEkEL/LY9tQmGDlpzKFX98I66zjwYm1Og/6eELoW9+PQ6/uL9v06EcVWoxOLRKkm79UoBELwnz2z8NZ9OzBolU13rhIk6WZT1z/foKUxGDVnRgsiXpZvJ5QuqngcCN7lC+D9/iBOVjxg8RxGwraxo1TLfXcVBdVuEaIWTpkBzpDXkR0HM88t3YQaS0IJZGufjITuOr8rTVaECOBEHpzAQ5AEcCmBwgsCiOA8Jlxqm8g7X5P62sxrCDwExRE6vCg4x03DBiA+HMWe51/PPDc1A0Ov7UPfinlTfs1CFpx6pKsgsgF8e2IU3+rsrdl7NYoejsd3u/px/uBeWOUrij4riuKjhmE826i1MRi1ZMYKIlEUT6CUXl7puKMkGd/p7MMKKd91eMSy8L+JKJ7WVLykq9hnmYjbNngQzBEErJBknKH48E8+P4IsgjTjeMXQUapXqaqUWbQ4xdDqgsjfVRxITQxH8wSRbRRnROacsBhLTl8JXmztz0H/UfPyBBEA7H95Z00FUWh2JyLzujG6a6ho34PxCVwf7sRcvv1Ou6sVLz4eiuCb5U0bBUrIjwEcD6A4RMpgtDgztt2IAv+GCt/f2V4/Hu2bmyeGdpkGPj58ACv3bsP1IwfxYHwCWwwdcdu5PFqg2GkaeDQRw3Ujg1i1bwe+Gx1jPaczjI26exRECXoheiqnPdSx/OuBoIgQFLEma6sXrkNeC+qI5KC3SPgkRqItL4YAR6wUfo8jOwahxUtHvKbCwKlHum43KMU9FVygW5nrQ53VFIYfwcvy1xqxHgaj1sxIQSQIwhtAyNvKHfNGxYt7u/rz3I1/Eh3Haft24oHYBPQqp8GPWhZuHjmIa4crzgBitBEbSqTLAr3V+fIURohaPToEwNVKIF7Qek84Am9BJCl2sHi0SatSGA2iNsXgRvdC6KnSuaC3ZPfaj2LjOFje26dlEQnBXV19FR3hCaVXCrJ8ZoOWxWDUjBkpiEDIreV2d/EC7u7uh5hjzHb7+AiuGxlEkpY2dSvHA7EJ/CA6XvnAJqJRijHbwi7TwKBlYaJNT8yNYGOJgupqRnYAxV1m7SCIlIAHvJSfznGbaRYo+Bnoca3mUZZ60X/0QNGE5f0bdtT8fQZWL3PdrlGK+yZGa/5+jWKJKOGWSEUrN0IpvRtA6xpvMRgutF8yuwKCIJxaKTr0qVAHunPqfn6fjOPfxg6VPH7+/Pk4asUKdHV3Y3xsDK+8+ipeeeWVouO+PT6MywKhppdk77NM/E1N4B+aim2mga2mgd2mAaNE1KuT5zEgSFgoiFgqSThJUnCc7Mkbcno4QQFsnsbIDiOhFQ37bPUOMwAAcaJE0QPZC7abOaObS3dscBzywtb32fGEvAjP6cLY7uznPXpgDLGD4zV15e45YjZ83SHEh4pvkr4XHcNHg5G27V79UCCMxxIxPKkWNw6kIcDCVNfZZxu4NAZjWsw4QVQpOjSHF/A+f/bERwHcPHKw6DhFUXDVlVfiI1dcgUWLihvV1q9fj0svuwwbNmzIbNtnmdisa1heUKBdbyiA59QkHk5E8ftkHLtMY1JfP2xZGLaSeF5LZkohZUKwSlJwri+AtV4/utqwEHSq7DINRG33SGFwCkNdgdb2IMrF15kviNRoEpZu5kWO3ERh7OAYOhe2RwdV/1Hz8wQRAOzfsBNLTl9ZuzchwPxTjsCmXz9XtCtq2/hBdByfCNXOA6mREADf6erDm/fvxGj5VvzrJUn6ia7rmxq0NAZjWsyolJkgCGtAyBnljvlEqANSTuTjZV3F9gIBMau/H39btw63/fu/u4ohAFi5ciUuveSSou3V1h7VghHLwu3jIzhhzzasHdyN70XHJi2GSqFRiqe0JG4YOYiVe7fjvQf34s9l7ghnEhtKRId4SYASqezv6WbK2Mou1bkUFVbTYsdqN9uBdqoj6j1yblER+IENO2vuut2/Yj48Jf5e7omOIlFCdLcD/byAr0Z6Kh0m2YTchaIkJYPRmsys236OKxsdms0LuNiffzLfZRa3Ed9222046qijyr7Vc889h6989av5bw+gX6h/J9EBy8Id44fws1i0ZM1TyMdh9XIBywd4LJ7FY+FsHmEvQcjPweshUHUKTaOYSFDsHrKxbZ+FLfssPPeKic07TOReG0xK8XgyjseTcayQZFwb7MB5vsCMPcttKlU/1B2qaiComyBq5TlmubjNNIsPRxHoi2Seix4JSjDf1XpisLXr53IRFBFdi/ox+MqezDYtpmJ01xA6Bipe5KuGcATzTzoCrzz2YtG+EcvCT+IT+HCgupq0VuR8XwD/E5/A75JlOuwpfRMvipdYhnF/41bGYEyNGSOIRFE8hQJlOxsKo0MAXOtkfvjDH+LUU0/FnNnFAxlff/113HnXXfjuvfdC1/M7kU5SvOjl61cXoFGKuydG8a2JkYwNQC5HLRDw7jfLOOtEESsWCODLxv+y3/cJR+TvGYnaeOplE4+s0/Drv+mIJrLqaKOu4YpD+/Hd6Bj+NdKN4+TWrxuZLNMZ2QGUiBC18KT7XHydLl5ELjPN/D3hAlfrCdimNS3jxEbSd/T8PEEEOFGiWgoiAJh1zAJsX7fZ1czyzvERXOoPFZ2T2omvdvbiqX07yka7CCHfAPB/AEoXajIYLcCMEUSUkM+X2+8WHQKA1aniYS0n1fX4H/6AxUuWYNWqVVi6dClEUcTY6CheWr8eW7ZscX19HgRfCFfsvpgyz6pJfHT4AHYWpMS8MsH7z1Rw5VoFR86vzcWoI8Dh3DUSzl0jIalR/OpvOr79P0m88Fo2mvZ3LYm3H9iFDwTC+HykC54KrbjtRKmUmVsxsRuFLtWEI1D87SEcvR1+EI7kpY8KvYgARxDlOjJTmyJ+KIpAX3tEPLoW9kHyytBzRnkMvrIHS888rqjTbjpwAo95Jx2BLX9cX7Rvn2XiofgE3uNyXmoX5vICrgt24F/LNKUA6ORl+auWpn24UetiMKbCjLiKiaJ4CoCzyh1zbajDNRrk5zh8wOWEZFkWnn76adx///2477778OBDD5UUQwTAVzrqEy0xKMVXxw7hvME9eWLIKxPc+F4vXvtxBN/6qK9mYqgQj0xw0ZtlrPt2GI/dFsLqFdmUIAXwg+gY3rp/F/6htUfbdSVitl2yDqvalvtkQVG17FNAyofrWgZO4IvqndyGvLr5MbVTHRHhOfQcOSdvm6WbOPjavpq/15zjF0H0ujdafHN8pNI4jJbno8FIxUYSQukHBUV5c2NWxGBMN6wFkAAAIABJREFUjfY4S1eAVugsm80LZe/Cbo5041R5ajUeQY7H3V39uKwOtQATtoX3HNxbdNK8+C0yXvpeBJ+7xIvOYON+hW9cKeIPXw/hRzcGMK87+76vGzr+aXA3HooXt2i3G5t0reTlqdqUmVYw2LVd0mVp/AV1RMmRKGhBs0ChFxEARNtIEAFOt1khB+rgScRLAuYe796cscM08Ot4rObv2UgEQvDvkZ5KNYUEtn0HZsg1hzEzafs/TlEUT0CF6NDHS0SH0siE4L975+CjwUjV3jsSIXh/IIQnZ83H+b7iQtTpsss0cM6B3XleHz0hgge/EMQPPh3AnK7m/OoIAS58k4zn/jOC9701e1eoUYqrDx3A18eHm7KuWlHKkNET9kGQKxfMU8suMilsl4LqNIWO1ZZhFVkJeCL+oinxsTYqrAZKjPLYftB1Dt10mbtqSclU3LcmRto8RgScrHhcSxIKOEYUxeLW3OogACIA/FP8esbhAQ/n76RLUZSFiqIslCRphSiKJ4iieIIsy4tQpuux7WuIKCFfQplvsJfn8d4qcvQSIbg10o0PByN4KD6BPybi2GzqGEn5bEiEoJcXcLyk4DTFg7XeADrqVEC9yzTwzgO7scfK1uy8+RgRP7wxiN5waxRgBr0E930qgDNXSbjqmzEkNAoK4LaxYcRtG7dGupu9xClRemRHlQ7VMbWofbtdWu7TuHWaJYYn4MkxlyQcga87iIl92dlcMRcTwlan/6j52PrnrJcYpRSHXtuLOScsrun7iB4Js49diF3Pvla0b6Ou4fFkHGd4fIjbNl40NDyvJjFomYhSGxLhoADo4Hn0cDw6eQFdHI8u3vnXKsOlbw134ffJOA5ZxZ27aSgh/wrgF6hm+KvHM0+wrCvhNMusBJC+I0kS4BAFDgAYIsAQBYZAyAFq20PguCHOtg8agjCIZPIQgJmRz5/5yPD5IpJhRGzbjlCej4DSCEdIhFIaAaURQkiEAhFQGgAhQQB+AigUCMIRy5m7VsO2t3LACxR4Hhz3gqlpLwAoe8fe1oJIFMWTKPCOcsdcF+qalOPyLF7ANcEOXBPMmqaN21bDXGX3WyYuGNyTJ4bef6aCOz/ugyS0hhjK5d1vlrFsLo8Lbp3AnkNOp8mdE6PwEg6fCnc2eXWTp9RQ12rrhwrTZUB7jO3IxevSaRYfjqJzYV/eNn9POE8Q6QkNajQJJdAeETHLsNAxvwdbC7YnRuszqH3+6qXY88JW2GaxmeENIwcR4Ths1vVJ1xTJhKAjJZC6OR5dvIAOnkd36nlHSkB1CwK6OK5uDRAdPI9bwp24dniw3GGzBEm63tT1L5Q5RhIk6QuwrOvhfo3yUGAunH/Znxalji0GpaCEQLAsQJJsCmzjgGcoIfebmvZ47pcw6gYHn69bMowum+O6qW33cYR0U0q7KSE9hNJeENIJSiNwIjoRAF4YBmwA4DiQVJo+k64nJPuLy7mmUyABYCMl5CUOeJkS8rKpqi8CGJvscKq2FkSVaof6eQHv8xef3CdLo8RQ3Lbx7oLi6evf7cGXLm/tGpSViwQ8/o0wzrxhDLsGHVH0tfFh9PE8/qWNfFZsAK+WiBBVWz9UWFANtKEg6nL3Iiok2BtCYQly7OB4QwWRqRnOv6QOQzNgqDqszGMDRlKHpenOY9WAqeowVee5mzBJv2Y9kH0K+lcOYO8LhRIM2Gsa2DvF19UoxX7LxP4ykZlcvByHTo5HDy+gk+PQyQvoTgmmjtTzXo5HB8+jk+MnZQtwsT+EH8TGKzVZfApe73eRSOx32RcUJOk3ANZU/abl4QiwmAKLQen7BEl6hgMuZ+7ZU8Tn6xV1vc/muDmcbfdTQvoppd0psdMHQrpBaTcI6YJhcDYA2DYIssImLXQweRNjFcCrBHiVApsp8LJAyHpN07bCOX1jutM521YQiaJ4QqXoUKXaoVaCAvjE8GDeBfmj71RaXgylmd/L4fdfD+PMT45h50FHFH1mdAhLRAmnKO0hCHaYhqu/E1B9ykyLFnsQKW1WQyT7FIiKBEPN/i0mDhUXzPtKOFZ3Leor2l4SChiqDjMlVgzNETGmqsNMPTZSgid3v5USP7V2lwaAjgX1G0EycMpS7PvHtrqsu1oSto2EbWN3la72oZz0XCfHozsVcepMPe8RnOcdPI8ujsdXIt0458DucmEYH28YN1nANQXbeUGWfwVKayWG3DjZBv4uyPK7TE17rI7v0254FEXpN01zFuW4fo6QWZTSfgLMopT2g5BZAObDMHyUEJBUFA4ASDpyk77WTv+aOwpgGwE2UWAjBbbxwCZd119Bgeap9XjythVElJAvoELtUC2iQ43i7olRPJLI3oW//20KvvaR9qofnNfN4ZdfDuFNnxjDRILCoBRXHNqPJ/oH0FlHw8pasbGE/5Agi/BU2SnmNses3WqIAGeEx/jebLrd3Zwx5HwCc658ozuH4O8J50VijJS4MZN65rGRTG1T6xONmSr+nhB6jig2ZK0VnrAPfcvnYv+GXXV7j1ozblsYty1sreJX5ec4LJdkLBJFvG6U/gJCyBWKotyuqur29DZBlq8FpW+qyaLL4wGlvxRF8U2GYTzbgPdrNgIUZbZgmvMoIQOEkHmUkHmE0nkA5gOYB8Bn2raTqkI2mpMndGqLAWAHgFcAvEIofZVSutk0zVcAjBQeXGvhU4q2FESiKB5PgbPLHXNtqBNKm5gFbjN0fDXH2GzlIgHfusZXp7/D+rJsHo/v3RDAu78wAUqdMSOfGx3CnV2TiBo0idL1Q6GqpzGpBTVEvChAKuFB02pYhpURLlyhb5LL7b6oSPCE/UiOZtvGh7cdwPC2A3VeaX0Ize7Eyn9eA06o73ljYM2ROLBxd5GVwUwgZtt4Vq2qS08ybPtmAB9MPfeC0lvqt7IiFErIjwEcC6D2bYWNxSNJ0gKbkHnEtudTQuYRwBE/lM6jwCzYtpAWO0BO2qq+xABsTf8jlG6lPL9VALaqqrobQHU53gbSloIo5Upd8hLVx/P4lzZxf6UArhs5mHHKDngJfv65ILxyG6qhFGtPkXDt+R7c8ZBznvlFfALn+wJ4q6e103+lIkTVFlQDxWM75Aany2zTytTKpKMwelKDlYrUpLfl/V+hpgYApIC76Wj34n7ses7dsLSVEBUJvCJCVESIsgTBI0FQRIiyCDngRdeivuLBtnXC1xVE15J+DNXBBLKdIMAlsizfpmnaq7woXgig0QWHR4iieKlhGPc0+H2nQqcoigttQhYRYBEFFhFCFoHSRQBm20CmmBxI3b9QWv/qcUoHQcg2AmylwFZK6VZC6VZTlrciHi+urjeM1lNBObSdIErVDq0td8w1oc62qR16OB7F33K8hr58mRfze9sjslWOz13ixa+f1rF1r3ORvWnkINbNGoDQwr+XUoKo2pEdAKAVeNh4ppAus00bhqZn62bSaaf0/8n0Yy27LyVwLKM+weW+5fNct89fvQyDm3e7zuqqJYQjED0SeFmEqEiOsFEk8DmPBVmE4JGc/anHQur4VptEvGDNkYe9IAIg2JTeCuC9IOSN5Q4khEAUBFAKUFDYtg1K6bSjbJSQKwG0giAi8HjmCJQuIpa1iOYIHzj/whTZP2MCTKUoebIYFNhDCNlFKN1JgZ2E0p2U43bxwC5N03ailKWBy9D0dqDtBFGqs6zk6a2H4/EvbVI7ZIHiazlGhqtXiPjQ2vYqwC2FRya481o/3n6D402z3TTwixae2zRuW9hbokun2g4zwLlwF732nuGcYmAnSmOkhI6ZEjp6UoeV2mYZrXUy8XUFMfdEd18e2a/guItOw6ZHn8fE/qLUfx68yDuiRZEg5ogVQUltS4kbPhXFET0SBEWCIAtVmWK2E8FZHegY6MHIjoOu+z2KAlEQQTjOuehTCptSUOoIAdtOPbftmgqERkOBi3lRHOeAt5ZbecDnB+9Sh0hp/s+Bpn4utm0DoDAtC5ZV9iZhJYAOuNSt1AlFFMWlNiFLCbCMAEdSYCmApbAsL4D8KE/9oAAG4Xg57aGO6NlFgV3EtneZorgDyeR+pLq3CmmtM1TtaCtBJIricZWiQx8Pt0/t0EPxKLbmdJV9+TIvXK6nbcubVop4+yoJv33O+R6/Pj6Cf/YFIbZglGhjiZEdhBD4XbqpSiH5FOjxbKRpePsghreX9WVpXYiTElu+9qSyU+z9vWGc9IG3YnzvMBJjTg2VmEpPCYqUEjti2dc4HBlYc2RJQWTbdlYApD4v1fz0KKWuwiAtmGzbhk0BajtuRy0goAgh5Mpyq+A4zlUMpb4YPCEAV/qcH4vHYJSOWBBBEJabpvlU1SuujogoigttYAUhZDkBFlJgBYClFODTZ8A6/fRVCuwjhOwnlO6jlO4HIfsopfsJz+8TgG2pGp7SVe9tGuGZLm0liCpFh3p5Hpe0SXQIAO6LZmc/ve14EWuOmll3wQBw66VePPZ3HZQCu00DjyXjWOttve65jSX8hzwR/6Smn3cvmYXYwdZ3bHaiM2nBkorUeORM+kkOetCxoBeyr8qBxQQIzelEaE77mXE2i46BHoTmdGF8T/GkeN0woCgU3CRvHgghICAAPwkBlRJKWSFlw7Zpap+dicDYTRJPXBmxUw2iKJUTRIAgKNMQAB2CIBxNeP5oG1hJKD0KwDIAkdwU17R/coQMgdIhEHKIUDpoU3qQEDJEKB2yCTlAbHuI5/n9mqbtRbki8Rav4Wk2bSOIUtGhc8sd87E26izbqGt55mXXXTj5WhNK69URWTuOXSzgLceK+OOLzs3IT2PjLSmINpSqH3KZ6l6OgTXLcGDT7rzOq3ohyGK2bkYWsykmJV1nI2VrajI1N87/bqk9RuMZOGUpXnqwWBBRSqFpKjxKfVPohBAQQqoWHXbKp8u2bdeUnWlZmWNqxWRFYSGUVlxPNQvmZFleYlJ6PAGOgZNqOxrAHOc9aLVlaiYIGQWlo3D8dkYJMGoTMkooHSWEDNmUDhGOG+Rs+6AuikOIxw+hiiyVeZhGdWpJ2wgiSsjnUKF26NImRYcsUDyvqthsaHjF0DFkWdBSH8IOXsAcQcByUcaJsge9qdDvz2LZKML8Pg5vPnby0aEdByws6G/9NMSlZykZQfREMoH9lol+vrX+9DaXGOo6mQ4zwGmzX3XJ6Xjlt8/j4KuVvYd5SchEakSPBFGWwOcInPwam5ToSdXXTEfU2KblXAwL2+sZDaV7ySz4e0KuUUVN16HIijOOokVIC6dSAopSioSqQi9xgzElpnmTW0mgcbZdmLfkJElaagEnEEf0LCXAcbaTX7TgzGFLgtJXQMjzBEjahEwQ246BkAQIGSW27Ygc2x7lOG5U5/lRJJOjcFrRq0d3j1wz6kNrXZVKIIrisRQ4r9wx1zShduhZNYmfxCfwu2QMw+UL9wA4am6lpOBifxCPJbN+NZeeqUypdmj99vYQROedKiES4DAatWGB4o+JON4XaJ3iagsUr5Y48UxWEAGA5JOx8oI1iB+aQPzQBIyEBk5KCZyCSE6R388kcGuxz/3fUPVUu32JbjQC+LtDWPzmo9G1uH/K62BMAwLMP2UZNv7qmaJdlFJougZFrjJt2QIQQuDzeGDbVs0iFtOPEJVPWOmSdLBAeEi6rr8GYPO03pjRdrSFIKpUO9TNNbZ26CktiW+MHsI6bXJ+XhTAS7qKl0byOxXPPkma0jrWbzVx3pqpfW0jkUWCtx4n4sEnnbvGP6mJlhJE2wwDyRJh9cmmzHLxdQXh6yr/d5lrhljo4lyVqJkO1Jk99tIv1uHod52CnmVzpvd6jCnRt3wutj21EcmR4uCBpuuQJbmlokTVIItSzQTRdL93u/yYFBuxWOEE9Pp6SDBalpYXRKIoHlMxOhTqqNsE51wmbAs3jx7CA7Hi8DYhwBFzeSyfx2N+Lw9JdO5sDozZ2LLbwvptJqKJ4g9mT4hg5aLqfw07DtgY6HO+1z2HbOwdtjG7s/XTHm87PiuI/qIlkFtw2GxK1Q+JigQlUPuxG/s37MKeF15HbHCsbr5Bk4FSii1/XI+epXNa55dyGEE4goGTjsDm375QtM+2beiGI4raCTLNQuh8pleSXLYYnJBhNG4yBKPFaXlBVCk61NkgV+qn1QSuPnQAewq8apbO43HFOR6sXSNhXnfpk4BhUvx1k4kfP6biob/oUHXnQ/qGldKkCqP/8rKOgT4nhH76cSI+f38C9/6/1itSLuS0ldkaqRHLwj7LxOwWqSMq6VDdW/3IjmrZ9uRGbHuq9QZtJ8fiiB8adx3Yyqg//SsHsH3dZqjR4qizqqqQRKmtokRVFDLD5/VB4HkkNa1szdH0v+8ygohSd98DxmFJS4cWJElaCeCd5Y75eLADvprejRTzq0QUFx7cmyeGFs3m8V+fDeCF/4zg6vOUsmIIAESB4E0rRdz3qQBOXpYVAsvmTa4GaFYXj/v+zzlpvvNUCX/4u44f/771I7wD/Tw8OeNIXivR5t4MNpYqqK6xOFAnkti+rvFlCYIsQgl64e8NIzKvGz1LZ6NjoKfouJjLRHtGY+AEHvNOOsJ1n00pjBb6vFRDNf5GPMeB4ziQChEgrp5F1UwQMXJojVv0EthA2c6yTp7HJXWODn0/Oo6bRgYzfZmEAFesVfCVD/mmPG/stT3ZCO3SudUJIssGeA5463EiTv+vBJbOFXDaShFf/qAPH7k9imgCuOpcpWXb8DkCLJnDY/1WR1RuMXS8RWmNKfClhroGems7WunQln1TNsJz9w1KjahIdaDlOUBX6EaLHhjFM99/PG9b/FDxRHtG45h93ELs+Nsr0BPFAj2paZDaKG1WTet9Oq1W6TNBSpgyVrWOSq9NyNCUX5wx42hZQSRJ0gobeFe5Y66pc3Toh9ExfGYkewPhlQnuvzGAtadMr5B5aDx7spjXU936dx6w4PVw6IsQ3HaFF2ffOIFvX+PHe98q46kNBj55dwwPP6Vhfq8EQQSOXUjwzjfI6Iu0jkKa181h/Vbn8XCJMRmNZsSycKBEh2BgCh1m5YgdKq49m3X0AESvlBEwjfIN8nYEnFuNnOtFYphFiJoJLwmYc8JibPvLxqJ96VoiSWz9JgoAKF/H7JDuHqtQ9AxhGud4WkGY2SxCxMihZQWRDXweZVJ6XbyAD9QxOvSEmsBNo9mbh0iAw4O3BqbtJp3QKHKHige91X3YF87iccN/xnH1eR6cuFTE5y/14bJ/j+KhP2sQBBE8R8CHTkDv0athGAb+66k/4rPf24LPXSLj2vNbo2036Mte1KM1Nm+bKhtKpMsIR+Ct0CE2WeIFKSleErB87aqmFDLzkgAl4IU6kR0sHBtmEaJmM2/VEux67jWYavFUhaSqtY0gqiREcuuCys5kn27LfYV0HIsQMXJpSUGUig6dX+6YjwYj8NYpOvSqoeNDQ/tgpsKtkQCHx78WwvKB6Xv+FNZM+rzVf+A/eZEX7/j0GM4/TcaH13oQS9r4yk+SOProZdi86edYsGBB3vG/f/xxXHrJ+zA0puLLlzdfFPlzxF+siqLLRrCpRDGntyMAXqytx1OiICXl6wo2tavL1xXIE0SJ4SioTZmLdRMRFBGzj12InU+/WrTPti0YpgFRaP0RP1UIkeyxdRwJUil1R1iEiJFDSxZVU+BWlFlbJ8/j0jpFhxK2jUsO7s1EMESB4CefDdREDAGAwOV/+G2r+pNBb5jgl18O4TfP6lj4nmF87zca5g/Mx/e+/yPcedddeNsZZ+Ciiy/Gz3/xCwDAGW97G37zm9/hzkdUrNtQeo5fo7Byzk2kRfq7N5WIEAUmMeG+GgxVhxbPr1XydzZ37p6v4P1t04KWI5AYzWH+yUtLivGkWkMH6DpS0R0652a23LFkmlqpktayCWGCiJGh5QSRJElHUeCCcsdcHYzAX6fo0BfGDmG7mRUPt1/lxVumMFajFGF//rrHYpP7xM/r5vDHb4Twxct92D8CvOv8i3DyKafg7nvuwZ+ffBIP//KXuPzyy3HW29+OZDKJY445Bld8+CP41sPNt9qYiGVPfKE6dwZWSykPIn+NC6oLo0MA4O0K1PQ9Jouvs/j9Wdqs+Ug+Gf0rF7jusywTZovU35WjUtQnUz9Uqeh5mtHKihEi22YpM0aGlkuZUeAWlBFqHTyPy/y1vVil+YuaxA9zJtBfcpaCD51T2+GKPAdIAoFuOieCwbHJp45kkeDUFQIkUcAdd9wBTcte1B27fx3r/vpX3HjTTbjjm9/Eu951Ps79wb0A6p82G4vZuO9RDT95XMUruyx4ZIIlc3jM7uTwwhYzU8f7g+gY7pkYRYjjcbrHi0v9IaxpcNeZQSm2lGhnnsrIjnLEXQqWvS6CpFaYmpEd65Fyt846YDuu14U1TQCgjcddXo3RaOafshR7/7EN1Co+P6iqCr+vdb3HKKWVO8fSHWaVBMs011JJcPE8f5ANRWWkaSlBJEnSchv453LHfLRO0aGYbeMTwwcyme+53Rxuu6I+F2i/AqRd+v/xuom3r5p8oeTQOAXH87ANJ5o1a9YshCMR7Nq5E7FYDJqm4e577sEtN9+M2bNnIxrXkdDolK0CKnFo3MY3fp7E93+jYiLHkTupUazfama6y9JoqRPVuG3h4XgUv4xH8cWOHnwkUB+x68ZWU8+soxB/jVNmbuKjUsrMtuwiMaMntdQoj9Q2NSVw0iM/UuM+aDVtPi5/CtOZrcZwx7ZsJMdi0CYSUMcT0OIatFgSZlKHntBhqBpM3YStm7BMC7Zpg1pWyXSPYZowTQNCi9YSVaofArIp80rHlhoiW/1iygsuTdNYyoyRoaUEEXV8h8rWDl1ep+jQHeMj2J1KlREC/Me1AYR89bk4rFgg4C8vO+/15HoDn3nP5F+jK0iQSKiwLBuhYBB333UXzn7HO3DOuefid489BgAQBAGbN28Gx3Hwe8W6iCHTAu57VMUXf5TAaDR78okIAt4YCmLMMPB0LA4t506QA7DU68EKrxfbVRUvxuKwAXxxdAhnenxY0KATfal0meSVoQRqGxlMuMypGty824nYpGeZpeeZqToM1YCl1/nOteBaxAk8Igv76vuebYw6kUByIgl9PAE1noQWTcKIq86MuYQGQzdhawYsw4Rl2aCW7YiaOhQNx5NJhAItKoiqEONpoVMxpTXNGFGFCJEBYKzcAYzDi5YRRJIkHWkDF5Y75qpgpC6+Q4OWhXtzUmWXvl3BmSfW72SzekVWEG3cPrWL3nFLhMyJlhcE9PY4zsOhQDYNY1kW/H4/HnjgZzhtZe3TZX/dYODaO+PYkPM9zJYkfKCvG+/qiGBzIolrt+/MiCEvz+FDvT24uKsTQSFbNProyBhu2LELBqX4bSKGq4KRmq/VjZIjO+owvsIthbD1yWK/mWay6E1H1VwIthpGUk+JmjjUiTjUuAY9pjpiNOlEa2zdckSNacG2bMCunAJqNNUYHzaLSmkqINtlVulQMs2IZYWf0xCmOyiNMaNoGUFUKTrUUcfo0NfHhzPTzn0Kwa2X+OryPi+9buIXT2r4xRPZC/HBcYqkRvPGWlSDIhG84WgRT643MDIygve+733o7evDli1bADgnnI5IBKIo4u577sKDt9buQqfqFF/+rwTueDCZ6RzzcBwu6+3Gh3p7IHEE6yZiuHbbDqipE9JJfh/+dcE89IvFQvPkYLYeItbAE33ZGWY1xtsZAF7fX/PXnQ4cz0FUJITmdKJ/5QC6l8xq9pKqgtoUWjQJNZpKQUWT0OMa9IQKI52CUg1YRlrYOCko2NUkcxjTpRqxxnFpU8byx/LTHNtRQciydBkjj5YQRKno0LvLHXNloD61Q9tMAz/NmV5/zbs8NXV3jiYofv6Eiu8+qmXGVuRBgV+u0/Ge0ydvy//ALX4seO8YdAPYtn07tm3fntknCAI++clP4pyzz8QlZ0g165T7x+smLv9aFJt3Ol1rBMC5nRF8YnY/ugXnz+mx0XF8JhXxAYDLervxiVl94EuYrO3VsoXNngZ2n5XyIKp1QTUAzDvpCOx7abur4d50yThaZ1yu047XIkSP7Iz38EiZ/elRH7zU3I+/HlORnEhCG49DjSahxVXocdWprUlqMDXDqavRnRSUbdqAbTNR0+JUE02rtsuMn8bYDqBiZI8JIkYeLSGIKnWWRXgeH6pTse1tY4cyF+6uEIdP/HNtUks7D9j45kMJ/PQPGqIJ9w+lRwaSGrB+mzklQRT2c3j2riDO+FQUg6NW5uQhiSIWLpiHW2+9Gde/24Ob3jf974lS4I6Hkrj1hwkYqQ65PlHElwbmYnUgG+F5YOgQvrpnPyxKQQBcN7sfl/d2l33t/xsZzTx+g9yYlM2QbeGg3ZiRHQCgBDw48f1vwYZfP4vYYHHZAifwzjwyj5QvYtKiJj3DLFf0pI5v5hT0dApKG08VDcc0GHEVelJPdbPpsHULpm7AtuyWTUG1JxRNdfYsQTWT7jPrrnDsdIqqK5UyESaIGAU0XRBJkrSsWdGhPZaJXyWyxa6fusgz7ULqzTstfP3nCfz8T1reiI40C/p5XHCahPNPkzESo1h74zge+rOGL3zAC0mY/MltyRwBO34WwUNPavjFn3UcHOPQ38njuMV7ceFnQpjfO/2fWzRBcdU3Y3joL9mIylmRED43dzZCqaiQRSn+bc8+/GxoGICjbm+ZOxsXdneWfe2tqor/PjQCAFggiDhGboyjdql0GeEIfHXyB/L3hHDKB89AcjwBPZaEIAkQPDIEWay5K/ZkoDZ1IjTRJLSxONS4Ci2mwshNQWkmLD2VhjItUNNmomYKcDznCFklJXwVMW8gr5j6exBTYtjQTPzjv//i+lqUTnuyRV2oKkKULqqu5FdUxzlmlFLmQcTIo+mCKBUdKnk1CHE8Lg/Ux5X6vonRzHiOjgCHD50z9YvxriEbn/9BHA88oRUVCkoCwXmnSviu/PqUAAAgAElEQVTQOQpOO1rMO4mdfbKER5/R8dPfa/jAO6b+/he8UcYFb6z9NOxXdlm46EsTeG23o+78PI8vzp+DM8PZ38lWVcVnd+7BhrjjcqxwHL46MBdnhMv/3kZNE9dt25n5HXy+o7th97ulBJGvKwhOqK848YS88IRqb+mQVzAczW/vTnew2YbptHibNizTclJQTNdMmkxET5HyBE1WzKQH88qZQb2CR4LsUyYV1EmOtp8vVEWX6pwTYFmX6umuo2LFdtk5ZhFBEFYQQpZTQsIU2M5Rus0wjI0A1DJfx2hjmiqIZFleYlF6UbljrgpGEOJqf4GK2zZ+Est6w1z+DnlKbekTCYrbHkjgzl+qUPX8D2BnkMPV5yn44Dke9IbdX/vrV/rwxxcN3PbzJN5/poI6X4snxeMvGHjvlycyKb/FHgXfWjgf82VHeJmU4geDQ7j7wCD0VHy6RxTwnUUDWOEtf8E/aJi4ZusObFU1EABrvX68w9M4s7lSgqge6bLJ4IiaBLTxBNQJR9QY8SSMhA5d1WAmU23dmboai6WgpggvCVlRkxY2ipSJ2jiiRspEa0RFzqQtG4WlN3/kzmSp7D6djfqU+7ul0wx/TXOO2ahpmk8BeAqKMiBQej4l5OOCJJ0IYAeATQA2UmADD2zQdX0LnDZ+RhvTVEFkU3orKkSHPlin6NDP4hMYT9WQiALBledNvnblkb/q+H//EcO+kfwP3uxODtf+sweXvV2B31P+Q72gn8cNF3vwxR8lcM+vVXzsnc0fwgoADz6p4YO3xTKO2mdHwvjC/DmZouenJqL4tz37sCNnttJbw0HcMm8OuoTyf1ZPjE/g1l17MGKYmbvAQB1EbznqPbJjMtEaU7dATZNFaqZIqWiN7Fcg+z2ukRpREeseCUxjGRbMtNdUymPKUAsMNtPGmun/VR16QqvOYLPFqLTmrLdQeSE//Whx+XXYHFddDZGq7jCB2wHcDp+vV9T18ygh5wK4ngAeG4AgSTqAV4gjkl6mhLxscdyLSCb3Tve7YDSOpgkiWZaXWpReXO6YK4PhukSHAOB7Ob5DF5wmYXZn9bnqfSM2rvuPGH711/yxD0EvwfUXefGxdyqTaqO//t0e/O7vBj7/wzjesUrEotnNDRN97/+SuPbOOCzbOSldM6sPV/Q5PkfbVQ1f37sPfx7PzryKCAJunDMLZ3eUFhM2gL9MRPHdAwfxUiybBpA5Dppt44HYOC71h3B8A2qINEqx1XQf2ZE71JWloBpHo1JQU2GqgsZQDSeCVycopU0tqC9Fte7TlbQeV+cIEWfbByf924nHBw3gu3D+eQRFORWW9U8g5AIAKymwEsB7CKUQLAuQpDEQshG2/TwFnucJeV7X9c1wTomMFqNpnyZRkn5MgfeX2h/keDw/e6AuguhFTcVZB3Zlnj95RwirllXXlv7oMzo+cnsMh8ZznJcJcPnZHtxyiRc9oan9SA+MUrzp46Po6eDxh28Ep1RgXQvuekTFJ+92Cs15QnDznFm4sLsTI4aJ/zwwiAcOjcBKXfE5AGs7Irh+dj86RHdtfdAw8euRUTx4aBi7c9rreULwkb4enOT34bIt20ABXBII4+sdPfX+FrFB13D6/p2u+whHAFpdYSgjn0wKKtUlJ3pS0RhZzBQQ84oEyZPqmGtQCiojaHJcwA3VgKWlHzsjUDJz31Jz4NKCp1UJBYLTH21RYyilGJsYL3uMLEnwerywLAsTsdLDhHmORzAw9QaHeDIBXS/9+xM4bpGqqtum/Ab5cKIonkgJ+ScAawEcg9LX1ygIeYna9osc8CKAF1O1SSzl1mSaEiGSZfkIi9KyAyvqGR16KJ6tHVoyh69KDOkmxWfvi+POR9S8CMDyAR53XevHyUdOz+enL0LwP18M4owbJvDJuxP4zjX1MYcsx8/+qOH6exwxJBKCfxuYh1V+H27fux8/HRrOmCwCwIkBP26c04+lnuJUo0EpnhifwMOHRvDXaCwjoABHCL09EsKHe3uw2ONEg5Z4FLyWVPHfsQn08TzO8vhxtFT7AvE0f9eSJfe1Y4qilqTNGtO+RZlITV6djZhq/XeETrruZrquwiWhyAgVM6k7o07S4kYzM5GZ7DYnSmOpBgxNd/yLZhiEkJYTQ0DrdJgBlT/LqqrWsu3eNgzjWQDPArgFPl8fr+tncYScRQk5A5R25RwbAKVvIIS8Ib3CVMptAyXEEUm2/bxhGC8CcM/tM+pCUwSRTenNKFM7FOR4fLhOvkMmpXg4nr0rqcb/59C4jYu+FMVfN2QFvMADn36PFzdc7KlZNGfFAgG/+nIAa2+KYm43hxsubtwYhfVbTVx9RwyUOqLl8/PnYkMigZt37kYyRwgtUhRcN7sPbw4VDybdEE/gkZFR/HZ0HKMFE6QjgoC1HWG8p7sT8+T8n/mALOO1pAqN2rhtbBi3jQ3jRNmDq4MRrPXWvtD6wUTpu9KZQkbEZCI0jsgR5GyExoneSHmRnHqZNVqGCVMzHcGSTi2pOqyUeDFUIyNq0hEbZ7/Z0lGaZiEKAmzbBiGkpdJmVblUp00ZK3ajTXMt5QVXEkDxgMFaEY8fsID7LeB+ONGj4yghbwOlbwMhbwRQGBaVABxPKD2eAgAhECTJBPAaAZ4HIc/Dtp8yDOMfAOqXhz3MafgnSZblxRalm1FGjH0q3IlPhcr710yVJ9QELhrcA8Dx8Nj4/QgW9JeORL26y8K7bp3A9v3Zv8G53Rx++OkA1hxVn3lnm3ZYeOct4/j4Bd6GFFnrJsWJV45hyx7ne1wd8OMf8USeEJolibiqrxfndkYyjtMUwKZEAr8fm8DjY+N5Bdb/n73zjo+srPf/+zl1Jpn0urssy9KbFEHKgiBFFBSwK01ApYmgV0UsFwXLFUREUMH2A65wpQsqRQHpHaTJwi5tG7ubstmUqac+vz9mkkympieTnPfrxWuZc87MPElmzvmcz7dBOqS2f22ETzQ1cUhdLUaBM5wnJUcuX8kG20ZVoC6isHlg+H0PClVxWVMbSyZx4Ote777DOm+KB6dOAukQVHbYaTAh2BhyaAYfa0NuTdq9mXQKuDROysbLCkG5VkbIZAkeN/OcuejSzBaESKcpC0VBGXKO0v8OOkmKSO8XTK2ASqaSpKzSpkZ1VTWGrmPZFolkcbc2FAoRnkBOYX90oKjoErDGse2txv3iE6NaC4X2x/OOFkIcK2HJGJ4bQ4iXc3KSXiOYyTYpTLtD5Et5Qan3nUp3CODurEaM++yolxRDz77ucOwFUfpiw1+qD+2tc835NTTWTJ1dvfNWKg9fUc/xP4rS1etx0SnVU9qA7aq/pobEkCoET0WHf0cLDYPT21s4tqkRBVhn2Twfi/HvWIJnozE6nfyw92LT4JjGBj7W1MgCo7SQuXnTZjZk4vyeD9UmXPDlav78oM1zKxweTSU4omMt1zUvYP/Q5PTuaVS1aRVEuQnDZiSEUR0qmSw8FVVQ2cnBvptusDjXK55mKzvuuJSGhjoa6mtoaKilPvPvf/7zJn/920Njei0pM2nMnjcq62DQVVIGBZIiUISCoojMvrSwGhRYo8V1XawSOTvZ7w+jcIgmeL9esqR/ZrtUx91U6gHgAeCroVBoa8/zDkeIwyV8GCiVOBVBygMQ4gBBOjNbM4w+pHweIZ6QQvzbs6ynSQ+uDRgj0+oQjcodqmvivPqpcYcA9lq/inVu+iL+ky9W8/VPFw5LPf2aw7H/PcBA1tiNs44JcemZEaYqVSIX14P/+b8Eb2/w+NW5EWqrpubPtegzm0e4MoO06hoH1NUSdz1WWRZrLGuo31AuTZrG4Q11HN1Qzx6R0eU/3bO5j++sWTcixwjSbQvuubiOJ191+NYf4kQTElMIbm1dxH6TIIp+0reJK/o3j+k5s6UKarZWPM0XxvM5WPPsG2x4edWI11m75gFaWxryXv+WW//J50/+7nT9OKNCCAUhyDhNYshpSjtQ6WNcz8OybMZiVAghSoqWmuoIWpkWHsUYRXL33a5tf3RcLz61hDXTfD9SHgocBuxJifSSIkhgpYSnFCmfFEI8malsC+5oyjCtDlEmd6i0O1Q7de7QW449JIYAjti7sHvx1HKHYy8YbkioCLjsyxHOPHp6ewRpKnz/81W88rbLV38V44yjQ+y38+SG6Z5Z4RYUQ5CuELtjU2HhIEg3alxWE+Gw+jr2iFQXH0aXQ8r3uTyTqC1Jhy4/sp/BXU+l7y7X9/h86Ft93HtJPQ9cWsfHLhhg42afUzdt5IEFS1ikTuxju02R8JtRbbLDEXsOh6TCgxe3yQtBebaLYw1XMI0QL1mJwt6g4LGcobCUawVFKBNF1TU0UxsONZr68Fy4wURxUx9qyKiZOqqhQ2Y23+DfxE05GNUmdQsbyzp5VQ35NwhdnZsKCqL29ua8bTONlOlWEqPJDxrb607dYNdyrz3DDlEpkq5l3Qfcl3kc0UKh/fD9w4HDgfdS/hZLADsK2FEKcaoENMOIIuUzWS7SY0D+UMV5zrQJoow7dEKpY06vqad+Chv0/SuVGPr/RU0Ku2yV/+O/sc7jUxdGR4ih3/1XhBOPmLmGibtto3HNt2q4+WGLbRb6tNRPnkX1nqUqO2+l8trq4u6BLgRbmiZLQyZbmQa7Rap5b3UV9WO8e/Ok5K7NffxqQwcdmVCbpsKvz4lw8odD/PiGBD+5If036uiVfOi8Ph65ooG//LCWw7/ZT0/K47s9Xfxv68Lx/8DAwiKCyHM82nZaXP7nGLdLMzcrnqab8bg0QstUNjneCCHqZYSok3Kw+hPEOnPEacrBs4uHV83qEDsetTct2y0oeoxRnX/u6OjsYdddt8vb3t42+wTRTDGRXKeyXaorJ6QUywqvQSTSqtr2waQTtD8oYOkoX6cGIQ4HDhdSohmGB6yUQjyO7z+RyUVaPkU/Q8UwbYLIlfJ7osT71SgKp0+hOwTwaHK4IeBhext5eTkdvZJjLuhnczT9ZVIV+N03ajjhsKkrAR8tQsDnDpn8dVSZgn//toF7n7U56xdROvuG76yaNJVjmho5vqW5bC5QKXpdl79v7uOGrm42ZI0iWNyicO35NRyQSU7/7xOrMHXB969N/526+iXHXtDPw7+o48JTqjnvtzHuTcZ4JpVk39D4K/CKOUye7fL2I6+OdHEyvWrcwdLuwKWZMKqhZVwYfdilyQiaofJ+U0MdTCAfdGxMHdXUiHcPYMdTWdVoDm7KwrFc4puiw6X3WVVsU5X/ZMVTvPKXJ9nn84dSsyDf8QEwIvmf1Y0bC1+P29qmLl2gkphwyX256FDpOWazl1isy4NbSf+HaZrb+L5/GEIcKqU8BCFG28hNBXYWUu6MEKdncpHWC3gSIZ7E9x+bjxVt0yKITNPcxpOyaBNGgDNqGqbUHQJ4yRqeyXfQbiMv8I4r+ewPB1jTMXxncemZkVkhhqaDI/cxeOWaRi6/Ncmv7kgST0l6XI9rO7v5385udqqqYv+aavarrWGP6ipCJU5YnpS8lUrxQjzBw339PB2Nj8gTCpuCcz4e4rzPVuWNNjnvs2GkhB9clxZFb6zz+PxPo9z+wzp+c2eC1R0+v4v2TkgQLSzhbK164vVxv+58Yrw5VeNOFpew6snXWfvcmziJ2dWaRXo+bz+2nD0+c2DB/WYBh6izs3Aouq4uQlVViERifs8PFWJqexBJ35+tIbMxYVnW28DbpDtnC8Mw3iOFOFhKeRBSHjQGgQSwSMKnkfLTmbL/AeBx4DF8/1HXdZ8H5nQPjGkRRKNxh6aysgxgnefS7Q+L3fdtP3I5P7guwbOvD9/9f/WTYc46ZnbMFZsuaqsEPzi5ijOPDfPHu5Jce2+K9T0+PrA8kWB5IsEfO7tRgAWGwUJDp07TUDOaJun5rLcd1tv2iCaOg9RVK3zxKJOzPx5mYWPxE963PhdmXbfPH+9Ol+Q+8ILDL25NcNYxYc7/fZz7k3Hivk/1OO8iw0KhQVXp9ebVzc8IcgWNoirpbaMQNUaVme7oPY28/eirs1qs9qzqxEnaBbtuG5FCgmhT0ddqbW1k9eoNI7Zd2NDCzoZJt+ey2ffp8Vw6PY/NnkuP79PtuWzyPeKTnOczUWoUheg41jTFPYgQo51jVllI27ZfAV4BfgUQCoW2djzvQBTlAKQ8QsBWY3i9WuAo4CgUBc0wEgjxIlI+LoV4wrOsR4CBMq9RUUy5IAqFQlu7vl/SHTqtpp6GCSTQjYaXs9yhmirBtlsMv98/n3f45e3D/TA+tLfO/3xp+jtFzxba6gXfO7GK84+r4u5nbO541OKhF226+tMnGR9Yb9usH0WJra4JDttT55MHGxy7zKRmlJVyvziritfXuDyRaYb54+sT3PC9dDWqJSXP2ikOmUDF2QJVq2hBJBSBlpMUPChwhgTNYKgpZKCZ2nCzRnMKu0pPAXbCYu2zb07Le2mmnk66DmX1dwplhfPCBqqp0be6mw3/WT30POn5dL+5gYW7bZX3moMCMtu16OzsKbqG9vaWPEF0a3yAB2uXlM2mtaSk1/fp9z36PI9O36XD8+j3PDp8j07XoU/69HkeGz13XGJlNISEwnn1jZwaqeeCvm5ujg3gjmEcjphgyKxsDtEccYjKkRlN8g7wJwCqqhaqrnsAQhwupDwQ2HkML1eFlAcAB2TykFzgZaR8QgrxuGfbDwC9k/0zTCdTLogc3/+egKIJKDWKwhk1hWPvk8kr9rAg2mNbbegOJJqQfOWX0aFxHAsbFf7wzZoJ36HMBTQVjl1mcOwyAynhP++4PPSSwyvvuKxc59G52ac3JomnJNUhQVVIsKBJYUmrwq5LNfbfRWffnbRxtQvQNcF1365h2Vf66O7z8fy0i9dUq9Az4POGY09IEG2nGbxWZOL9dDGcSzPYUVpDD5moOeIlW+RoIT1z0Z6apqCzkVhnH54zur5RQhFZzlbW7y/z+9UybpeWk7+kZoTlaJ2v2raGEYIIoHvl+oKCSCgCPWxgx4c/bx0dxR2i9gJ5RMttiweTcQ4Ll75RM4WgXVVpV9USZ91hYr5Pl+/Rk3Gaelx3xOPujLM+6ESVEzULVI0TI3WcUltPSyYF4vLGNr5V18TDyTjLbYtOz+Md1+Y/Jb5/Ex3sWq7C3NG0bgr0UJvzJBIbsnOQCIcXqZ53MEK8X0h5ELATo28UogF7IcReAs7NJGq/hJSPSEV50LOsR4GKGgswpYIoFAotdX3/pFLHfGka3CGAd7I+/DsvGX6/H9+Q4N1N6bsJRcC1366Z1CquuYIQ6Wq33baZvk4NWzQr/OarET5zUdqVfWOdx+JWlZ4BeMOZWCj7SzX13JWI4U2gNYeqKlRXhxkYiI/Y3rBVG3UL6ocEzbDg0TOCZopnf80xCl2DF+y2Fa07LMpyyNK/06kaPZJLpLWOcGOE5ObhJqY9qzrxbLfgGsxIeKQgKhEyaytSen9Z/+aygmisRBSFiKKw9Sg7wfd4Hpt9j00ZgdTruYQVhSqh8B4zxOIiBQsLVI3jInVDj+9Pxjmha33R95loDlHZFgHJZGUmVU82yeR6D/5M+j+AFtU09xdSLkOIZUi5NzDahE2VQYEk5dczDtKzwL9QlAfdVOopZvlstik9ezjp3KGi37RqReH0aXCHANZk9R/aZmFaEC1f5XLVX4dDZSd/OJSXbB0wsxy9v8GnDza59ZH092hjT/pE1+1O7O5u31CYm9sWcVn/Zja4DlWKgo4Y4SRmc/FPv8bee+1CfX0NdfW11NdFqKmp5plnXuHgQ04dcWzrdgtY/L78kuqA8RGuz3cCjbBBy3YTa78wUdp2WMTqp1YOPfZdj+63NtK+c37rhtzS+1Ihs7bWwpVmz1tJnk4lJqU56XhpUlWaVJXt9In15rLKDXadoENUJodoACiWtV5HOFxHMrl2QguoXLo9y/ob8LfMY80wjB1kujv2gT68fwx5SBqwDFiG71+gGUYSIV5AysdRlAfcVOoRYFbZdFN3ixoKLRFSlnSHTq+pp2ka3CEYKYi2ak+/549vSDDYvLelXuHHX5i5E01AcX52ZmQo98j10ie6ycj+OShUxV/btuC5RUt5ZMGSkon92223hAMPfC+77rodi7doo6YmfafeVqBvjBWb3xVCk024PoKijTxVxXtm3olv3WGLvG3dKwu7HrmJ1f39saKVZO1tjUXf84qBik7RGEIrI3jcCeb3yRIOkSzdg6jf8Lwq3TTPBuZHiXFpXNu2lzuO83vHtj/v2fZSV9MWSSGOAS5BiCcYfeVZOJODdD6+f79mGJs1Xb9fM4zzdV3fixmYrZrLlAkiNd2VuuhtRPU0VJYNMuB79GVVmG3drrB8lctfnxz+O15wYnhK55MFjJ/2BpE3YiUpJz8ZdLlT3M3t2Fg4xNHenn83b8UDQTSZCEUQboiM2BbvmfniltoFjYRqR95EbXp7I56TfzEvVHrf1VW49L59QUvR9/xXMs7LRVzMSqJYt/hB0oNfE1i2he3YOK6L53llq8cgHS4rdZwQoqPU823bXuGo6h26YfxB1/V9yr7hfCOR2OBZ1t9d2/62a1kHurbdhKIcBlwA3D2GHk+RTLPIi6UQz2uGsUE3jP/Tdf0UqqqKdzqdQqZGAYTDWwopP1/qkC/V1NM8wREMo6U3526huUHlZzcnh3ITtmhW+PyH5leJfaVxzsfDNNcNf1yzWyhMFqWSrDuKhDhCIZO6upEXaztwiCadSFPtiMep/kRB4TGdeK5H49K2kdtsl1hX/kQEs0Dp/arV+W7SihWruOGGu0q+76/6K98l2lY3aCwTHbBsm0QySTyRIBaPMRCL0j/QT29/H30D/fRHB4jGY8QTcRKpJMlUipSVIhqPlXxdCa+WXWAiscGx7S9LIf5b0/UrgPlbdlyemJtKPeja9o9d2/6oa1mtWS7SRcBdjK76rF3C8VKIazXX3aAaxtuqaf5ONc2jmSa3bkoUier736OMO3TmNOUOAfTnXDx9X3Ln48Pu0Nc/k+6QHDB7qQ4Jzjw6Pd4DYLXjTKgXUSFeLyGIurqLD4Ntb2+mv3/4JBw4RJNPVfNIQSR9SbI3RqS1rsgzRoeUMt2FfHDsyuDolaExLNZQp3LHcnCSVmZkS2ZYboHTRqG/f6FeRB89+svstNM2bL/dEjzP49Xlb/H22+vKrvmuRJQ3nCa2n2Aez0wigM9V13LVOEOAUkqklOOar6b4/tOjlNIx17Y/oZrmb1TDeEUoymluKvXgmN9wPpKuZtsA/D2zRTUMY0dPyr0E7IWi7JVJ2C4qdARsjZSnA6drhpFAyicR4gEh5QOO4/x7KpY9+YIoFFoifP+UUod8MTJ9uUMA/Vn9P6pDgjsft7FdOfT4xMODUHElcNrRYX52UxLblVhS8vdElM9FJnZBHKTD80q6Th1FRi1AOgl25crVQ4/tWLLosQHjo7qpJm9bbNPAkCDybDczwiNL1GSJmCFRk7V/cPbchMiNzAioac1PBQjV5BfqeJ7Pq6++yauvjq3Hkg/8ZqCXK5rayh47mzmttoE/xfqJTW8zyQHHcW4bw/GuZ1lnaIZxPr5/v2qaf/Qs6xtAaRsqIBcvMyttOYM9kUA3DGP7wYRtCXsBO1I4clU1OItNCoFqGKsQ4n6kfMCz7fuA/slY5KQLIlXK71LCHapSFM6omz53CCCRlW8SCcENDwzfwX3i/aNvFhgws7TWCY7cRx/K/bo9PnmCaHmZvIxiITPIn1DuJNKzs6a7m/NcpjonZAaw8r4XefP+l9JDc73Z0aG5eZsFhOvzoys1CxoJN1ST7I0XeFZxFFUp+LPdFh/gm/VNRcvcK4FFqsZPGlr4ak/ndL7t5YxDzLi2fYlqGGuElNeqhvFBoShfcFOphyd/efMKJ0sk/T6zrV4LhfYQUu6JlHtK2JO0SBrxQRewNMs9sjPu0T+FlP/IzGAbF5ObQ5TOHTql1CFfjAw37Jousm/iBpLw4pvDTd5O+GDgDlUSnztsOPTwlJWctLvLUgnVUHrUQu5ATikl9iybt1XpVDXVoOojL/5OwsKKp2aNGGpY0sIuxxTOwVVUhb1OPIT2nRePSihrps6W+2zPez6+X8H9jpRc3V88jFspHBep49v1hfsuTQEvubb9P+N9smfbN+H7hwkpq/H9B1XT/B1BbtFk0+emUg87lnW5Y9ufd237Pa5tVymwq5TyZKS8MlPZln1nYSDEB4CfSiFe1HS9UzeMP6mG8WnG+PeZ1NsL1ffLukNnTrM7BCPD/ElrWB5FwoJlO1fuHdZ85LA9dQxNYLsSW0oeTSU4qipS/olleL3MGJKOjhJ9YwqU3tuxVMFE2oDxoeoqLdsvpGP5zLSHUQ0t3eE6bKIPdg3PzHszI2GalrZS3VLarQzVhNn1Y/uxbTRJ5/K19K3bRLSjFy/T+0MPm9QtbKR+iybadt4SLZSuxKpd2MjAhnzxc0NsgP+qb5r2G8zJ5ut1jSzRNL7X283mqRuns9LV9SOxRzFvqASu6z4ZCoX2d33/70LK01XDOEz4/qmu6z42WQsNyMMpEG5TQ6HQEkfKXYSUe5FuCLkvUrYgRKuEkwScpBlGEimfEIpyl6Oqt5JIbCj+NpMpiMLhxcLzTil1yBcidTPy5S1mg73/PTq6FoQ1KomaKsF+O2s8+kq6r9TzVnJSBNGrZUJmqZRFX1+U+vr8XJa2An1jrHiK/CMDJsL2h+9B/4aeMYedBhkc66GFhzuH62EzPcYjbAx3vA4bWYNv0/uVSeoq7rs+ru1S01KHFtKpWdCIFUviJi3shE2su5/+9T2889hyPNdPi6UiDlhK+vygp4urWmakQnlS+WR1LR8IVfN/8X5uig3wtmNPoId8Hre5tn0Wtl3c5h0Dmflg+2mGcZNIDz59SDOMn7u2/QNmeSfmOYSXNaft70Nbw+EtVd/fRcCuQspdJOyKEAdIKQ/XXPcXGGnXm/gAACAASURBVMYzCHGHCn+xLOvt3BedNEGUcYeKxp+qFIWz6oo3HJtKaoo0ATvwPUFX6krkfTsOC6IXrYlXdFlS8vYoOl93dvYUFES5OUQQJFZPBUa1yb5f+CBrn3uT3jVduLaLbuhDAkczdYwqc3juW7bICU3u/LdkXxw7miQ5EMeKWqRiCdxYCttycBI2ru3i2Q6e7eJ7PtLz0xf4MQw4HQ23J6Jc5LXQUsG5RIM0qSrn1jZybm0jA77Hm47NtbF+bomV7DnlkR4ZkUsMuB9FuXKKcn2irm0fq5rmr4WUZwDna4ZxpAIn2rb9nyl4v4DRkEyu9WAtcG/WVsU0za1dKd8jYEch5S4efFLT9SRCPKTAHYN/s8n5FqXdoVNLHXLqDLlDAPVFKtp23LKyreb5yp7bDX9sV05whAfASsca1STuzq4edthhq7ztCwoJoqD0fkrQTJ2tD9wZDhzLkO7C2AmLZH8Cqz+BFU2QiqfSoiZl4yRsHNvBtxzcjKjxXR8y5d6zBUkmdDZDN5tTRa2ispcZZo3rlhREQoivOpZ1s2EYLb7vNwkhkkKIlG3bK4HRTQQeP65nWWfqprlCSvlzYDcfntNM87uuZf2SdEFgwMzjW5b1FvBW3p5IpFVLpXbUQqEPuKnU8kkRRKrvf5sy7tCXZ/ALW68U/jF3XBwIokpkmwXDf7dNnkvC96maQD+i5aOcel9sQnlzS4GQWdCccVqQno8VT5HqT5DqT2DFkljxFHbcwkmm+wh5loNrOXiOlw5B+f5kGzUzyhz6UfJoL9OeRUrZDGyyJykcNh4cy/qlZpqvI+WNQANSXqbp+kdcTTuFZLJ8Y6mAmSMW63KhCzetnScuiKqqFgjX/UKpQ06ZQXcIoEVV0IXAyTkLLm4NRnVUIrl/tw2ey7bK+JvUjVYQ/eMfj7Pbe7Zn++2XoCgKa9Zu5MF/Pc2vfnNj3rGBQzQ2rFiS1EASqz9BKppIi5pYCjflYCct3FQ6/OQ5WW6N789pMTBalmiVHy4rRrlu1lLKwpNwpxnXsv5pmuY+npR/BXZGiEM1z/uP1PVzPMe5fqbXFzA6JvxNUh3newhRtJwmLBTOnmE7V0WwSNVYnRVeCZsiSKiuUBpqFIQYTseYaOl9qZEd2fz5xnv48433jOpYLVS5XYTHix1PkRwUNQMJrEQmBJVMN0J0LAffnt0hqEpkLv/2Goq4+4MoQjTN7ACXYTJhmf00w7geOBaoE0L8STeMox3bPhOo/D4Jc5yJCaLRuEM1M+sODbJE00cIotr8xrEBFYIiIGwIEpkWCvEJXhJecwtX4hZrilcOo8pkyT7bT2hNM4X0fFKxFNZAVggqlkq7NIlMGCrl4Fo2/mAV1BwLQU0XiqbkVbbpIRO1UNWbqbP8rudIbI7mvY43h3/3DWVC4RJmhUOURdS17Y9rhvED4PuAkPBp3TD2k4pysptKPTTTCwwozoQEkeo430WIotLCFIKzamdHst/OhskjqcTQ4+AEXtlknycn8qd813OL9j7Z4r3bsPa5sY1VaFjSws4f3YdwXVX5g6cQJ2mTHEhi98czISgrU96dcWtSNr7jpt2aQNhMCEVTs8r0jeEqN3NY2KgZsZMWPekKOLM6VHAWWjFUo/DpWs5hj8gQgmpFIV7cBZ5tgghAurZ9oWoYrwu4BqiSsBjf/5em679yHedbBOX5s5LxC6K0O/TFUoecWlNfNiluutjVGJnzvTkmkRKKVOQHzHISqeGLwETMvmLhMkVT2O6w3WnZYRGrn3idzau7SoZ26hY1sfh929G+0+IxXeRKYSesTF5NRtTELOx4EjeZyauxMnk1tovnemk3yw9CUONBM/VhIRMa7E+UcW0yDk26vH9Y1KiZf6eFEn/SuV7K1CgU4kV+ylnoEA3h2fbNuq6vRIg7JSwBBEKcqxnGYULKEycyYiJgahi3IFId5zul3KGQUPjKLCoF3dccuVTXg4GET111kFhdafRGfbLm9VI7gZBssYTq6pY6hCJo2LKFhi1bSEWT9K3tZqCjF89OVyQoqkJtewN1i5qoKjB8dJBSbo0VTaYnqAdOzaSgaCpmJIRZEx61U6OHjUlrvFgKz/FwLQff9fAdLzNo1sFJWUODZp2kjWs5I/9N2dgJC+kX/lB4c/zD0qBqrPMKV9ALyJ+kO4vIiJ69NdO8DSkPzmzeRQrxtGYYP3Bt+1LmvqatGMYniNLu0JdKHXJypJbWWZA7NMiWms5STWdVVh5RXxTqgkk0FceGTSPPH+0TaEpXTBDlTixXNZWq5jo0XRsharrf3MCGV1YHIahJZLpCUONhUNS4mbDjaAWNk0oLoalgrl9NQ6Vnv1VC9cIm17KOUE3zKiHlYFTFBC7WdP2IoDx/9jCuK4nmON8ulzt0dt3sczIPDlezKto39Hjlux5L2gOHqNJYvmb4wtKoqtRMpAdRkaGuG19dw8b/rAZJEIIaB5qpD4uajGDJD0GZWcnE6f2D87umCs9xcS13SNC4VlrIuClnSLg4loOXLW4yx7mpiTcBnQq8qVaBM4xR+utXCYIIwPYs60u6ab4ipbyMwWtvujz/FWkYZ3q2ffPMLjFg7IKourodxzmt1CGnROpmTe5QNgeHqrguSxA9t8LhiL2D8R2VxnMrhi9Me+hF+4GWJeH7vOMUrjCTs2SC+kwy5NRkXBl9MLdm0KkJG6imkSdq9LAxqonu40FKmREvGQEzKFhyxctQNdyg4EmLnvFUDc52WmfhuXYy0Usneuqkx1VWxB/WsawrNU17CSFuRYjWzOZ6ATfphvERx7a/THrsSMAMMGZBpNl2WXdoJrtSl+KwcBW1isqAn3YYsi+sAZXDMyuGHaK9QuNPqX4olZjD9TlphBBp4RLSMbLEjJYRMHrOvK/0sZmwlD41F1rPdjMuzLCAGeHGpGwcy8UbDEsNOjaz2KWZKZZoOoeFZ7aicaoxyle+6FRQ1Zbruo+GQqH9Xd//K7Dr4HYJJ6mGcaAi5fGO4zw9g0uct4xNEKXdodNLHXJypI4Fs3TQYEgofKQqwo2xfgCef8PDl+m+NgGVQcqW/Oed4QTL9xpFe4KW5YVJGAw7XQyFoMIGummMGGg6JGqynBwtbKbDUlMQgpJSZhwZFydlpf/N5MoMihonlRExqcHjhl2cuejSTCcK0KSo7BcKc2FjK2Ext8P+ZRwiSIfNKkYQAWQmtS/TDOM64BOD2wUslUI8opnmd1zLupy53Xdz1jEm5aLZ9vnlc4dmpzs0yEmR2iFB1DPg88jLDofsEYTNKoV7nrFJ2elzhIqYkCBaok/v3328ycJTUQVVKDnYdz08151QxVPA6Kmvi7BgYSuhkEkoZNJQX0NDQy2maXDNtXeMOPaYcITzGpqpU1RaVAV1jucNZTMKh6hS8ohyibq2/SnNML4F/AQYtGSNzDy0o1xd/zyJxIYZXOO8YvSCKO0OnVHqkJNmsTs0yN5mmD3NEC9m3IE/P2AFgqiC+PMDwzeCB4XCNEwgf2KZOb5w27iroCLjF2+FGH/FU7rLdMDEMIWgXlGoU1TqVZV6oVCvqNQpmX9VlTqhUK+qdLgO523uGvH8Cy88mzPP+Eze66ZSVp4giqgqO+iVet2fGGUdoupqnXh8ehYz+UjXti/RQqFn8Lybs/KKQIjDNM97SZrmqZ5l3T2Da5w3jFq9aLb9rXLu0Dmz3B0a5DPVtUOC6I7HLS4/u5pIeP7ccVUq3X0+9/17OIfkM5HaCb1eKfG+9ICdiLTVZ0JQGadmkkNQw7k0g7O+0iEoLysElc6byRY06URh1wpyaSZKlaJQJ9KCpk5VqB/8f2Vwm0qdENQq6pDwqc0In7FWNq4oUM0YjSYKHAmhkImuazjOcGi4RKfmOU/uUO484vGK/zK4qdTDhMN7a553O/C+oR1Stgj4e9DhenoYnSCqrm6bC+7QIB+rquEHvd3YUhJPSW572OKUIyf37j1g8rn+fgvHTZ8cI4rCUVWRCb1edeZOvs/P7w9Tv7iZpq3by75G4NLMLGNxaeoz/9YpKg2KgjmNbeqrCuT5xOOFBRFAJFJFb+/A0OOYnL+fFbt824u5IRKSyXUuHKQaxm8EZM8IHexwfagCx9m2/eqMrXGOMyoFk3GHipYymELMqq7U5WhSVT4YrubuRLq68ac3JTj+gyaGFrhEs5VoQvLL25NDj4+uqpmUZNIFmkafnS+INr6ymv71m3FSNl5Wr5qhEm7LDVyaSaA649LUZgRNnRDUqyq1YqRLMyRsMi5N3ThcmpkkUuCzGo0WD/PUBIJoCKu8ICrcO6MySXm2/UVd15+RQvyKkflRu/rwrG6a33Es64qZWuBcprwgSrtDZ5Y65MRIHQsrxB0a5Gt1jdyTiCGBtZ0+195rccbRgUs0W/n1nUm6+9IXBRXBubUNk/K6i1SN1wvcYHa8FjSOHS2V4tLMJJEC4i0aK+4QVUdGttCfzyGzMg6RBObcnYnjOL/XNG05inIrsCBrV1hK+UvNMA5ybfs0YPMMLXFOUlbFaLZ9Xjl3qFJyh7LZ3QjxkaoId2VcoktuTHDSESZV5vw4QVcSvVGfK/8yXCL/2Ugt20xSgukCLUioLyZoTEUhBCVFTauqUjk+zcxhCIEhxIiLe6xIDhGkQ2bZxOazICq/e06WPLqu+wRVVXtrrnsrsCxn9yd0w9hb+v6Jrus+NhPrm4uUE0TNCFEyd+iESG3FuUODnF/fzL2JOB6SjZt9Lrwuwc/OCIabzTbO/32Cvlj6gmAIwdcnUYAvqtDPbjaaEOlEYKEMJf1mJwDXq5nk4YyIGfz/WiGoV1S0eeLSzDQRRWGzNxyeLR0yG1m/Mp8dIqt0uHBu5A8VI5HY4MIhqmleIaQcEamRsCWK8mBmSOzFVEi37tlMyauBZhjnA0UzV9Pu0OybWTZadtANPpPVl+g3dyY5en+D9+8WuAazhb8/ZXP9/cPu0KmROracRFdnm2nuRVSMSLagUXJyaTJCpnbQmckImcFcmkLhmIDZR7VQ2EyWICoRMqupGXljFp3H8/RKhsyEmEv5Q8WwPcs6SzWMJwT8Dsi2DzXgJ5quH+bq+okkEhtnaI1zglKCqBkomTt0fKSu4u+wf9TQzKPJOOs9F1/Cly6L8tzVDdRWBXfNM82mfp9zrogOPV6i6Xy7vnlS3+ODoWq21HTWuhNLQ1AUQTgcwvN8UqmRN61n1NTTqmnUjxA8ypCgqVOUwKWZB+QK15IOUY4gSkkfV8p5+Tnp9fKLHgaRUvZP41JmFM+2b9B1fbkvxO0Clo7YKcShmuO8hGme5FrWfTO0xIqnqJrJdM8s6g7pFVZZVoxaReWy5naO63x3KMH6nCtjXHd+DfPw3DNrcD344qVROvuGu1Jf3dxO9SS7IVWKwh3ti/nB5i6etlKEIC1UlEzoSVV4JJlgozfcE6a2NsJfbruchoZa6uprqa+LDOV8XPTDq/npxX8c8R6n1jawdZCrNO/JrTQrV3afS1z61Im5Pci1ED0lwoUCNk3jUmYcx3FeBPbVdP1GhDhsxE4hWpHyHs0wfuja9k+A4koyoCDFBFFZd+iESB2LK9wdGuTQUBUn1dTzp2gfALc8bLH1ApUfnDy3hybOZs77bYz7nh92bc6ta2DvcXaWLsdiVeOaloVF95+5aSN/iQ87VdFonH333Q1dz//8t7flh5A7XScQRAFU59xhxWLJIkdCTU3+uScmJXWTvqrZTUr6pErnEM0rQZSh23WcD2mGcQFwAYyoa1CBizRdP8TV9ROCsR9jo+DttmYY5wE1xZ6kC8FXJqnsebZwUX0zuxrm0OOLb0xw/X2VM/xzLnHF7Ul++/fh3/1+oSq+MYO5am05wl9KSWdX4WrX9gUteds6S1j+AfOHsYTMqqvzBVFiHiZWbyrzMwvomaalzDY817YvlEIcTaHSeyE+oHneS5ppfnj6l1a5FBJETcBZpZ50/CQnts4GqhWF/2tdNKLb9tlXxrn32fmQszd7uOkhi+/+cfhCsbVucF3zgtEMeJwy2gs4oZ0d3QWPXdCen+PUWaATdsD8I6KMDHdZlo1tF85dy80hgvlZer85K1RdCCnlfHSIhvAs6x5XVfcAns7bKWULUt6j6foVwNy6YE8ReYJoNO7QOXPMHRpkgapxc9siajMnLseVfO6HUW57dG5Xds4WbnggxWk/jzI4SL1RVflzy0IaJzDAdTJoLfD+GzsKn4fbCgmiCSZsB8wNIgVEfaxIpVlNgRyi6DzsVr25nAgUYr46RMMkk+tc2/4AUl5ZYG967IdpPkA4vGja11Zh5AqiZuDsUk/43Bx0h7LZUTf5XXP7kCNhu5JTLo7yv/8IwmdTyS9vT3L6ZTHcjJkSFgp/al7I1rNgwndbgc97x8bCgmhBezMi58IXhMwCYGzdqiOFcojmpUNU+rsj5rlDlIXlOs5XJZwA5MdipTxI8/2XVNM8avqXVjmM+IZqhvENylSWfXWOukPZHBau5k+ti4ZmZXk+nHVFjEtvTjKP24FMCZ4P3/1jnO/8IT70u61VVG5pXcQ+oalJoh4r7Uq+Q9TRWfg8bBg6DQ21I7Z1lrH9A+YH1YUGvBZziAqFzOahQ7ShzHfHF6Jw7Hqe4tn2nxXYG8gfACtls5DyriCEVpzsb2gT89wdyubQUBU3ty4cCp9JCd+/Ns6nLxwY6pocMDE29ft87L/7ufy24WqbBlXl1tZF7DtLxBCMLWQG0J4TNusIBFEAhR2isYTM5mO36tVlws2KlKunZyWVg23bK1zbXibg5gK7B0NoDxEOL572xc1yhr6hmmF8nTK5Q/PBHcpmv1AVt7ctojkrqfbuZ2wO/Go/y1cFF7mJ8NwKh2Vf6eOBF4ZPeAtVjbvaFrOnObuG7NYq6pBbOMjGDcVvTHMTq7uCkFkAhR2ioiGzAoJoPjpE65zSRS2O46yenpVUHFHHtj8npDyDQuPgpDxA87wXVdM8cvqXNnsZ/IbWAl8udeBnI7VjcoeS0udtx+ZlO8Vbjk20Qu9udjdC/HPBluyRdZF+e73HQV/r5zd3pvAq88eaMRxX8rObknzwvAHWdQ//8paFqrhv4RK2mwU5Q4XIdYlKOUQLckrv+3yvXC+VgHlAwRyiIqX3kUh+yGw+OkRrSrur/UDvNC2lInEc5/dCymUSVhXY3SSkvFszjItJ9y+a92gAmmGcCdQXO0gXgq/Vlu5KnZI+/0zGuTcR43krVXAUwkJV45Cqao6rqp01+SGjYbGq8fe2xfywt5s/ZJo3JizJN38b4/oHUvz2axH22HZuNKmcSl5+y+WsK2K8+ObIk9xJNfVc3NCCPotbg7dpGmuyPtOdJUNm+T2TujyPLbVg5th8pmZMgij//Djfkqp9YH3pkNk707SUisZxnH8D79MM4wYgty+RAM7XdH1f1zCOIx7vmP4Vzh4Gv6FfLHXQZ0q4Qynpc0X/ZvZYv4rTutMdfYvNhdrgufxftJ+Pdq7j+K71bKqg3ApTCH7S2MqVTe0jwicvv+Vy0Nf6ufB/E8RTQcZ1IfrjPt/8bYwDzu0bIYZqFIVrWhZyWWPrrBZDAO3KSMHb1b0Zr4g92N6e35yxq4I+6wFTQ+Gy+8LdqgslVc+3Aa+dnotV+mcu5HoEFKbHte2PABdSaKSHEB/QHOc5TdOWTffCZhOKYRi7ANsXO0BF8NUi7tBy2+KwjWv5Sd+msuWRuTyQjHPExrV0VVjTus9Fanls4RI+EBqO8Tuu5JIbE+x4ci+X3ZIkZc+vE1cxbFdyzT0pdvtCb1548YPhah5ZuBUfrSpa1DiraMsJmbmux6aevoLH5iZVA3QEeUTzntzGjFDcITJNA8MYeRM630Jma50y/bukDATR2PBd274IRTkcKDTSYwsU5RHNMM4n7RzNOxQfPl7qgKOrI2xVwB16wUrxsc53ebNM0lsp3vVczuneOO7nzxRbajq3tG3BH1sW0JR1odzU7/Pf18TZ/Yu9XHPP/M0vcjJCaOeTezn7yhhd/cMCsUVR+VVTO//XuogtKmgWXps2wW7VgUM076kqEDIby4DXWIXdPE6Ut93S1xahKKunZyVzCzeVeti17T2AfxTYrQEXa4ZxByXSaOYqGlIeWmqs+wmR/HGC/b7HKd3r6S/yBV2y5ZYsW7aMbbfdlnA4jG3bvPnmm9x3//10d4+8iDyUSvBOhQ6/PKaqhv1DVfyot5tbYgMM6p+13T5nXxnj0lsSnHVMmM8fYVIfmfv5I919Ptf+w+IPdyV5d9NINagLwQmROr5b30R9gTvl2U6rki+INnb0sNtu+ccWcogCQRQQKXDTXWqeWU2kis2b+4cex5lfzvNyu/SEAAlvTtNS5iLdrm0fpZvmuVLKS8nvS3SsZhjPKvAp27ZfmYkFzgQaQuxQbGedorKswITx3wz0FgwBHHXkkXzn299mv/32K/h6qVSKb3/nO/zmqqtGbH8qmWDrmsqc49yiqFzZ1M7ZtY38tG8T9yZiQ6et1R0+5/8+zo+uT3DcYSG+fEyIHbesPDFQjpffcvnN31Lc+rCVFy5UgI9X13J+fVNBp7FSaC/gEHVsLOIQBQNeAwowlk7VAFXVuQ7R/LKcl5eJPriqOm8u1FOEdCzrCk3TXkRR/gzkjvbYzodndF0/x3GcP87EAqcbhfS4joLsZJgFk13viEdHvoiicNWvf81f77yzqBgCCIVCHHDAAeNf7SxmB93gupaF/KN9Sw4K5ZzIkpI/3JVkz9N7OeDcPn55e5I1XZV9cntng8clNybY+6w+9vtKH9fflxohhgTwoXA1Dy5YwtXN7RUthgDaCrhaG4oIoqqqELW1I3OjgnlmAboQmDnn01i0uCCqqZm/gkgCr5VyiKTsIpGovHyLWYjruo9mQmj3FNgdkkL8QTeMPwH5zbHmGBolkqe0Ihn+ue3Ujz3mGE477bSyb/bP++7jrC/ntzva0ZidvWfGw55miNvatuA/tsUfo338JT4wolLihTdcXnjD5bt/jLPPjjqfPMjg8Pca7LRkdjtHvoTlq1zu/7fDbY9aeaXzg1QrCp+qruW0mnq2n6U9hcZDa4F8p47O4nMl29ubGBiIDT0OJt4HQNolsrLcwnIhs2zi86jK7F3Ppa/0d+bl6VrLPGGTa9sfLRZCk3CSZhi7qkJ82rKst2dojVOOBvQA7YV2rnAdXCnRcu5qTCFwsr6cDz38MDffcguf/MQn0HJCC67r8tDDD3P11Vdz1913I3O+1NvoBu8tEJardN5jmFzR1Mb365u5IdbPddE+1mcJSSnhmdcdnnndAeK01Qs+sIfBwbvrHLy7ztYLZ1YgSQlvrPN45GWbR15xefQVh039xe9Qt9J0vlBTz3GRWuoqMEeoHI2qiiEEdtbnt1jIDKC9rZk33lgz9LjLDXKIAtLdqnuyqp5LhcxyS++j80hUl8sfAoJw2eQjHcu6Qtf1p3whbhKwNGf/np6UL6iG8UXPtm+bkRVOMRpCrETKgoJok+dyRyLKp6tHDqs8PFzNnVlhs76+Pk486STOOfdc9txjDxobG/F9n47OTl5++WXi8cJ3QQrwi8bWOV3f16SqfLWuka/UNfCUleKv8Sh3J2J5PZg6+yQ3P2xx88PpE0FDjcKuS1V23Uplt6Ua79lGY7stVGqrJv+31RfzWbnO49V3XF5e5fPqKpflq1wGEqXvSNtUlWOqaji2qob3hcJz+u8ogFZF5d2sv9tYulX3+B6OlLO+31LA1JKbR1TSIcoRRJaU8+YzVDJcBsjAIZoyHMd5lnQjx+uAj+bsrhVwi2YYP3Nt+3sU6mlUwWhI+ThwcLEDvre5m110k50Nc2jb2bUN3JOIjbhbBujt7eXBhx4a1RsrwOVNbewfmvNhSSDdz+lAM8yBZpifNrTwuJXkzniUh5PxghOde6M+j73i89grI3NPaqoEi5oVFjYpLGpWWdSsEAkLqsMCQ4VIlUBToT6i0BvzcT2IJySWC4mUZCDhs2GT5N1ujw2bfd7t8klYo7fit9R0Dg1Xc2x1DfubYeZ+7dwwrZo2QhCNpVu1D2zyPRZUUKuBgMknd55Z6bL7fOc8Ln3qxdxzYHN51U6V3K8K8fKcuhLPPnpc2z4mE0L7GZCd/zDc3do0P0ss1jVDa5x0NAVu8uF7xQ7o8z2O6XyXK5vaOCrTRG93I8Slja18Y3MX7jji2gtUjSub2zl4noihXDQh+ECoaqi54xrX4dFknGesFI+lEmwsUaIdTUhWrPVYsdYDpj5Rt0VR2T9UxcGhMPuEqthhDuUFjZX2HDHT0dmDlBJR4I69ULfqTtcNBNE8J7dbdbFO1VC4W3VMynnRHOY5q/jvBbBt214xXWuZxwyG0J7whbhZwNYj9grxAd22n0fXP+k4znMztMZJRbNt+1XNMJ4EirbsHvA9TunewBHhar7f0ML2usFxkTq20nS+09td1t4cpEVR+VJtA6fV1BcsQZ2vLNF0Tqqp56SadHXFKtdhuW3xWua/5Y5VdBzKZKGQdn92NUx2Mkx21k12NUyWVHh12GSSm1htWTa9vQM0Nua3jCjYrXoe5YAEFGYsIbPq6vwbxoTvz/kxnKtcp1ybilcoNME9YEpwHOd5YG/NMP4fOY2cJSxGiEdUwzjds+0bZmaFk4cGIKT8hhTiScq0674vGefBVIJTI3V8t76Z/UNVPLRgCY+kEtybiPGSnWKd69LjuWhC0KyoLNEN9jRMDglXc6AZzkvQDhiJALbWdLbWdI7OGmsR9X3Wew7rXZdOz2W957LRc+l00/N++n0fD0nU93GkJCEl1UKgCUGtoqAKQa1QCAlBu6bTrqpsoWq0aToLVY3Fqlawk27AMLnjOwA6OzcVFEQLFuQLoq6g9H7ekzu+w7YdbNvJG9MBRRyieVB6/3SqeBgRACkfm56VBGTR69r2J1Rd/7wQ4iog+8MZFnC9aprv9yzrXSnXcgAAIABJREFUHCpYrGoAjuM8rZrm1ULK/Jr4HFwp+UO0j38k41zS2Mrh4eoR4Z+AqaFGUdhRMdlRN8sfHDAl5A54hXS36p122ib/2LZC3aoDh2i+U2jAazQap6kpPxCWW3YPEJPzQBBZpfOHpBBPTNNSAnLwHOdPhmE868ONwB7Z+4SUp2umuYurqp+u1B5RQ5aAZ1lfR4hRK+91rsPxXev5YveGYHBlwLygtUC36g0bCucTBiGzgEIU7lZdOF8mUpMviKLzwCF6pnT+kPQMI3CIZhDbtle4tr0/Ul4JOfNkpDxAc93nNU3bf2ZWNzGyv52Wa1kfBv42lhf4eyLGARtW8f+ifXjzbNZOwPyiUMiso6Nwc8b6+hqqqkIjtgUhs4DqQgNeY4XziOZjyKzb93in9MiON+dSVVMFk3Id56sI8WGgI2ffQhTlUc0wzp+JhU2E3G9nwrXtT0ghrh7Li0R9n+9s7uLIjnX8Z5QJ1gEBlUabmp/n0VFk4j1AW9vI0vugW3VApEDJfKxIc8ZCIbO53q36mVRJdwg5hihGwNTjWtZ9rq7vAfwjZ5cGXKwbxvVU0MiPQlm0nmdZX0aIIyW8M5YXe8lK8aGOtVywuYv4HL+TCZh/NKsKak7dQUfJXkQjS+87g27V857qQjlERQRRpGAO0dwW1U+USahWfP/xaVpKwGiJxztd2z5KCPE1chKqJZyoGcbjoVAot+v1rKRoWZFrWf/wbHtX4HwgVuy4vOdJye+ifRy4YTX3JEb9tICAWY+KoFkd+ZUp2a06J4+o2/cIbhPmNwVziIqU3ldH8kNmc/1G84Fk8TYEAIqiBA7R7EQ6lnWFkPIACW/l7NvT9f3nNNP84IysbAyUq7NOurb9M1dVd2GMuUXrPZdTujdwcteGEd19AwIqmdywWWmHaGTIzJWSniBsNq+pKSCIik28rynQqXou5xC96disKZFnJ2DdXB4sOhdwHOd5z7b3EpDbk6gJKe/RTPPrM7KwUTK6xjPJ5FrXto+VQhwjYO1Y3uDeZIwD1q/m0r6evFEfAQGVRm5i9cZSA16LdKsOmL9ERKEqsyKCqEin6rnK/WXcIV+Iu6dpKQETY8Cx7ZMkfAboy9quIeVlumH8GZiVE93H1InPs6y/O7a9E3AJMOoze1L6XNrfwxEda/l36ZLKgIBZTW7pfSKRKhryyA2ZAXQGbum8ZiwhM8PQ8xo2xuaww3h/+RSLQBBVEJ5t3+oqyp7Ak9nbJRynGcbjhMNbztDSijKe1sQJ17a/LaTcm3QL9VHzmm1xVMc6vrKpg96gd1FABVKoOWOx0vv2Qt2qA0E0rylUdh8rUnYPUFsbGfF4robMor7Ps6UHuqY8y3pwutYTMEmkUqtd2/4A8D9A9kX/vZrnPaXr+j4zs7DCjHtWg+M4L7u2vS+MLU9UArfEB3j/htXcHBsY79sHBMwIhXoRbSxSel/IIQqamM5vClWZ/fO+p3j88Rfws8TOypWr+eKXvs+mTb0jjp2rIbOHUnGc0j/bQ0CZmR4BsxTHte3vCSkPzEm4XiiFeFTX9VNmamG5THT0dgp4E9hhcENzczPv3XNP7rv//pJP7PI9zunp4OZYPz9vamPreTxFPaByyB3wCsXziAp1q+70guaM85mISLduyG5i+8orKzn8iNNoaqpn8eJ2urt6WL+h8GeqWZmbk13LVZeJIH+o4nEc52ngvapp/lxIeXpmsymFuFY1zf09yzqbMaTiTAWTMc1zRfaDvr4+/nL77dzxl7+wxaJFZZ/8uJXkkI1r+dXA5nJ3CAEBM057AUFULGTW1FSflwPSFThE8xpNCPYNFc4n7enp46WXVhQVQ1WKwn/VNU7l8mYER8qyCdWqEPdM03ICppaoZ1lnSPgkQgyV6AopT9cM426gYQbXNimC6PXsB67r8s477/DRj3yEl158ka+cfTZqgTBDNknp86PeTbx/4xoeK9OpNCBgJik0z6xYt2ohBG2tIy9gQcgs4KrmdnYzQuUPzGKxqnFn6xbsYY7teZXAI6kEPaW/F6+lUqlV07WegKnHs+2/uJq2K3BX1uYjVMN41jCMnWdqXRMWRFLKFbnbVqxcCUBdXR2X/+IXPPXEE+y1115lX+sdx+ZTnev4xuYu+uZwNUVA5dKq5PaqLt2LqC23W3WQVD3vWahq3Nu+mB81ttJcwHHMJqIonFPbyL8WLpmTYgjgzni03CF3lTsgoAJJd7g+Rkh5BhAHELCtD0+rhnHsTCxpwoJIyXGIAFasGKmR9txzTx5/9FEuufhiqqvze2tkI4Hro33su2E110f7gnGxAbMKQwga83oRlepWPbI5Y5fnBp/pAHQhOKOmnlcWLeWmti04uaaeZaEqdjdCvM8M85nqWi5vbOPfC5dyQUMz9XM0d8iSknuTpcvthZQ3TtNyAqYf6TjO7xXYG/h3ZluNgDs0w7gQ8u4/p5QJCyLHcVbAyHN8riAC0DSNr//Xf7H81Vf5xMc/XvZ1ez2Pb2zu4uOd7/JW6enHAQHTSm5idUdniW7VC0Y6RJaU9AVhs4AMmhAcGqri0sZW7mzbgvsXbMnd7Yv5dXM7J9TU0VAm3aDS+UcyRrREKwEJ6xzHeWkalxQwA9i2vcK17f2Ai0iX5wvgB7ph3Mg0DoedjByiAWBD9obXCwiiQRYtXMjNN93ELTffzKKFC8u++JOpBAdvXMOPejdhBUnXAbOAtpy79ZLjO9oK9CIKwsEBAQDcUSZcJqBzmpYSMPO4rm1fiO8fLGEVgITPaobxKOHwFtOxgMkQRCDliLDZG2+8gSwjXj7+sY/xyssvc/xxx5V9eUdKfjWwmYM2rObRMtOQAwKmmvacxOq+vijJpFXw2NyQGQR5RAEBkG7G+K8y1WVIuRSY2zZZwAhc133Cs+3dpRC/z2zaS/O8Z3Vdf99Uv/ekCCKZk0cUj8dZu25d2efV1tZyxumnlz1ukFWuw6c63+VL3RvZFFxUAmaI1oLdqgu7RIkCQqkj+OwGBHBXIlre9ReiSQuFDpqeFQXMIrLL87uBBVKIh1XD+MRUvumkCCIlpxcRwMpMpVk5dtxxxzG/398SUd6/cQ03xvqDBNWAaaetQOn9t86/jHvufYyNHZvo7NrM/Q88xfEnnM9537os79jEHB2/EBAwWiTwv7H+0R3reZ+c2tUEzFY82/6La1m7ALcDVQJuyyRbTwmTksGthUKH4vv/yt522c9/zrnnnDOq5y/aYgu6uotPDS/FskxC4nZBp+uAaeKuRIwvdG8of2ABdCF4ZMEStg0+rwHzmEv7e7i0r3BD0wJsdG17C8Y4JipgbqEaxqeFEFchZbOAmxzbPpX0tIxJY1IcIldR8kvvR+kQAey4007jfu8nUwkO2biGS/p6gqTrgGlhn1CYsBj7V0cXgiub2gIxFDCvcKVks+fxjuvwz2Sc47rWj0UMASzQdf29U7W+gMrAs+1bM80c75DwOc00HwBayj1vLEx0llmaRGIjhtFLVtvtQqX3xdhhhx149NFHx/32tpRc1t/DbfEBftbUxiGhaavSC5iHtCoqf2pdyJe7N9I9yoqxdlXl6paFHGAWHtsQEDBbSUmfPl9iSZ9Upm1En/Tp8zz6pU+/59Hne/T7Pn1+ep/lS5LSp9/36Pa8CVs7Uogjgecn4+cJqGDi8U4XPqHq+ucFXKEaxpOaEB+xLOuNyXj5yRFEaVYC+w0+GIsg2qlIHtEOusHKMfQgWuM6fLbzXT5VXctFjS20zNFmZgEzz8GhKp5etJSrBnq5PtpXtJS+UVU5vaaBM2vqqVImp6gzIGC0uFIy4PtEpT8kWgZ8n6jvMSAlA57HwOD/+5n/9yV9vseA9Bnw/BGDaGeQI4EfzfQiAmYHnuP8iXD4X5rn/d6T8klN0451XfeJib7upHWBVA3jGgGnZm/r2LCBpqb8suNc7n/gAY76yEdGbNOAFYu35R/JGBdt7h71nfgg9YrKBfVNnFBTP0m9BQICCiOBl60UT1tJOj0XBUGTqrK7GWIfI4QuprXZasAcIu779EufqO8zkCdofPq8wf0eA76f2e+lj5c+8bmTwO+5tt0GjCnWFjD3UQ3j0wIul3CeZ9sT6mo+aWdqzTC+BVySve2Rhx5i2bJlZZ+7dt06ttl22xHbttZ0nl60FEh3rf5h/yb+HB17Vdn7zDA/b2xlJ8Mc4zMDAgICxs+gOzOQCR0Vc2f6pcwImlnrzswKJHzOs+2bZ3odAbOQSKRVt+2fSVjl2vZF432ZyXOITPNoIeXfsrf97uqr+cIXvlD2uVJKGpubicWGZ9rsops8tHDJiOOeSSX55ubOMYXRIJ3MemZNA9+sbxxXMmxAQMDocKQkLn1sIOn7hISCmXWWqSswHHe2UsqdSefOFHdn+qUftFcYA5oQHBuu5vZE8blmEq7z0pVFAQEFUU3zo0LKvVzb/gkw5oZvk5ZDpMHruUGtUiM8shFCsP322/PCCy8MbespECLbNxTmwQVLuGqgl8v6N5OSozvhDHa6/msiysWNrRweLj1gNiAgYBgPyXrXZbXrsMaxWeO6dPkuPZ7HJt+j23Xpkz6xUQqAWkWlTlHS/wmFRZrOAk1jkaqxUNNZouks1XSMCYQax+PO9PuS/sCdmXaWajqXNbezVNNLCiLgA9O0pIAKxbOsu4DHVNM8wrOsh4ExjbaYNEFkWdYqzTBSQGhw22ibM0I6sTpbEHV4LgO+R21OYrQuBF+ta+Rj1TWc39PJg2MY5bHWdTi+az3HVNXw48ZW2uf44MSAgLGy3nN5zbZ4zbZ41bZY7liscR2cSWxpMZi8O9TL3krmHaMJwSJVYytNp03VWKTptKoaGjLPnen3cpKCpQzcmQpgG93g9Jp6jo/UYWbE7/a6wRtFIgACtiIc3pJkcu10rjOg4uj3LOseoJ6ZEkSkJ9S+CbxncMNoHSIo3LH6bcdhT7OwaFmi6dzUtgV3xqNc0NtF5xgmiP8tEeXhVILv1DdxapB0HTBP8ZC8bts8bSV5JpXkaSsxpu/RVOJKyRrXYY3rzPRSAsZISCjUCkGNmnYCa4WSdgVVlRZFYSvNYB8zxNYF+nEtC1UVFUQAqucd5MENU7n+gDlD31ifMJmCCAErZJYgWrt2LYlEgqqq8n2Bdthhh7xtKx2bPc1QgaOH+Vh1DYeGq7ikr4drov2jtrkHfI/vbO7iz7F+LmtsY48y7xMQMBfo8DweSsZ4IBnnkVSSgTFWbwbMfUwhqFcU6hSVelWlXiiEhEJICOoUhfqMuKkTytD+elWlTlFpUJQht2c87GeGuS5a4jomxPsJBFHAFDGpgih3yKvv+7z55pvsvvvuZZ9bqBfRW6NMnq5VVH7S2MpnI7V8c3MXL1mj7+b9H9viwx1rOaGmnovqm4kEvWICKpzBRnr9vkef5/GaY/NwMs5LToqNbjBYdq5TSNDUZ/K2ssVMWBGYQhkhaJoVBW0G20QcUKaprpAyGPQaMGVMuiDK/Sq9vmLFqATRNttsg67rOM6wRf7mGKvJdjNC3NO2mGti/Vzct2nUSZ4+cH20j/sTUb5X38JnI7Vjet+AgMkiW8ykpE/Kl2W7Avd5HpaUpKQ/1BVYMoklpAHTxky6M7OBNlVlK01ndfFQ6Q5E/j975x0eVZm+//s9dVpC76CCDUTB3gv2rqBiw7J2V2VF1+6u5Ye661pW7GXdtWP5ruLa1t4F14oiRZAeSAIpU09/398fMwlJ5tRkJgnkfK6Li2TmzMybmTPn3Od57ud5EgORydR25rpCegYlFUQcYwtZmy+kX2O1KIoYNWpUq+0XmcEEEZA3Y15Y0RvHxSpwY30N3nCvWmhFtWVhal013sil8Zd+gzCCL+nbE9IDaBudaStm1IJwaStoktRCA6XQS2Re3rhPixsvG3N0pruwVySG5Zmk092EN4zdLOCtzlxTSM+gpGd8wzAWCpJkAWh2Qgcd4dFSEK00DWiMteuqZzDP48kBQ/GuksX1dTVYbflPFbynZPF51XJcVtkH03r1DTsN9xA6Gp2ptXpeoTYhBIQQcBxXEGEEhORvZ02yrEV7DMYYKGNgBeFHu1E1WE+PznQX9pAjmOksiEAY2wmhIAopA6UOgagMWEmAkU03BKk0a2usNhnDctPAth2YDn54NI79h22Buxvr8XCqwbfpWmEUdyXr8LaSwd19B2KXcChnt6e7RGc2NXieB89x4Dgu/z/PgyNcsxjqGAyUMlBKYVEKxigsi8KiFiilzcKp1MiE4KBoHOdU9MZoUcYAnsPG0zJy02ac5FngsnNnrCOk51HynBDJG6ubBdHixYthmiYEwful7ErvFxt6hwQRAEQJhz/36Y9J8QpcVV+D7wOYrn/RNRxdvQonxSsxvc8A9Al7F5WFMDrTPeB5HgIvFP7nwfMcypuAI+C4fITJ7ghBKYVhmrAsE6ZFYQWI9LqhMYZ3chm8r2RxYrwCl1f2xVYdPM6ElIZtRQkyIdAcxDABdunkJYX0EEpvkmFsAQg5qulXXdexfPlybNVmVpkddpVmbj0pgrK9JOPtwZvh+XQjbmlcj3QA0/XL2RQ+UbL4c5/QdG1HGJ3ZOOF5AaIgQBAECDxfgohPaeE4DrIkAciLFcYYTMuCaRoFodSxtgEmY3gpk8IrmRSOi1fgut79MUoQS7DykPYiEoIxkuxYLcyAzQAMALCuUxcWsslTjgjRwrantoWLFvkSRNtuu23ee9Di5Bi00swLDsCZFb1xWKwC0xvW4eVsyvdja2nedP1yNom7+g6ybSy2MRJGZ3oOhBCIgghByAshbiNrM5Fff37tUeQjSKZpQjcMmJbZ7hQbBTArm8ZbuQzOTFTij737YwAXRoO7inFSxLV9iiDLO5ma9l4nLimkB1ByQcTyEaJWty1cuBDHHH2052MTiQSGDR2K1VVVzbeVWhA1MYjn8WD/wTg+XoHr6muxKkBH3M9VBRPWrsTUyj64vFffDs1cKgVhdCbEjWYRIUoQBaHbRYE6AsdxkCQJkiSBMQbDNKHrOox2drg2GMM/00m8lE1jamVfXFrZJzRLdwHjPS42CTAWQCiIQkpKyQWRaZoLBKn1zhx0hEdbQUSBso3XODQax35DN8cDyQbMSNX7FgdqwXT971wad/cbhH3baboOozM9G7vKpkqOxzLTwM+62iGxKggCZFGCKIqblAhyghACSRQhiSIoYzAMHZqutyutlqUUf21cj5cySfyl3yAc5NEwMKS0jPUwVlOgeLRBSEgHKUejnXowVgtCBjbdEGTI6+jRo/HBhx82/64wiirLLGtPoAjhcHXvfjg6lsAf62vxnc2wSSeWGjpOql6FKRW9cXwskZ+wTa3C//lJ22mW/zlVEDn52/PbdZ+i45CgRAmHSo6ggsuXXlcSgkqOR2WzsMn/qygInsqm2/j8zxU26apvNAVX1NW02zvXJApkSQbfgwsAOEIgSzJkSYZpmtB0DboRPGq0zDRwas1qHBNL4La+AzE07E3WKWwpuvu4CKWhIAopOeX5dnPcQjDWLIgWLFjgtnUrRtvMNFts6J3SJHE7ScZbg0fg2XQjbmusQ9LnnKemTtfPus3gCelWEAC9Cg3zKgsDKHvxfF7ANA2jbBY0+Z/zv/OoKAifUqZKM5Tijsb1+Ge6sV0imSMEshyBLEk9IhoUBKFgGo8yBk1Toel6YK/Rm7kMPlMVTO/TH6clepVppSFN9OJ4DOB4rHM6BhMSCqKQklMWlVEY4dE8cyaVSmFtdTWGDB7s+djRY8YU3bbY0DstZM0BOLuiN46KV+DW+mCm65DOQyYEUcJBJvDsCtyb5xElBDJIcyO97tR35jM1h2nrqwM1D22C4zhE5AhkSUTYn9odjhBEI1FE5Ag0XYOm64EaQ6aohcvravBmLoN7+g3G4B4cgesMtpRkrFNzTncPAVAJIDxAh5SMsggiDlhQVGm2cKE/QVTm0nu/DODypuvTKnrh6roa34NmQ/zhNOJA5jhEgB7RFVhnDHc0rscjqYbAPjCO4xCVI5CkTaPSsTMhhBREpAxN16BqWqCI0ftKFvuvWY57+w3CMbFEGVfas9lSFDHHpWWcKIrbGIbxbeetKGRTp2wRora3LVy4EAdOmOD52EEDB6Jfv36oq6trvq1clWZ+2EeO4qMhm+HeZL7TdViRtcE7U8nx+X+EoBfPo4Jr7Z2pLKSY8umofOrJyTvT0/jN0HHR+mr8pPtvEgqEEaFS0iSMJEmGqirQdP/HmUZq4dx1a3BuRS/c2mfgJiHQuxtbC+5inxKyNYBQEIWUjLIIIpPjFgptKjuCzDTbZpttMHv27ObffzW0kq2tPUQIhxt698epiV64pq4GnzmHcTcKwuhM1/JqNo0r62uQCzjHS5YkRCPR0CNUYjhCEIvGEJEjyCk5GKb/1OU/00l8o6l4YsDQsKFjidnC4/0khAzvpKWE9BDK41RWlFWQJAVAcy16EEE0evToVoKo3rJQZ1no18U5+1GCiFcGDcfLmRRubVyP9SUaIxCETck709MwGcOtDevwWEDzvcALiEWjPbpqrDPgOA6JeAK6YUBRFFDmT7D+rGs4bO1KPNp/MA6Jxsu8yp6DZ0UfpcM6ZyUhPYVylW4xRkiWMNY+QWRTabbE0NGP7/oBqwTAKYlKHBaN47ZkHZ5LNwbyf4TRmZ7JOmrhwto1+DJASwdCCGKRfEonpPOQRBGiIEBRVWi6v+h0ilo4s3YN/tSnPy6t7FPmFfYMhnhF3AgJBVFISSmXIJIIYxUtb1izdi2SySR69fIuWXUa8rpHpOsFURN9eB739B2ISfEKvJZNN3tnehX6zlRyeVFTWfDO9CIcEqF3pkey2NBxam1VoG7okigiGo2BCwVwl0AIQSwahSSKyCo5X9VoFvIRwAW6hnv6DQovXjrIAJ6HSAgMZ99mmDILKSllEUS8JB0JoOiy9tdff8Vuu+3m+Xi7Ia+LuthH5MS+crTdXapDNn1mqzmcvW4tGn32tCKF0nA5rB7rFgiCgMpEBRRNhab5Owa9nE2hyjTw9MChqAznobUbDsBAjkeVgzWBAGGEKKSklCVkwQGn2d3ud4TH5ptvjmi0tcjoykqzkJD28EYug5Nrq3yLIZ7Pn3xDMdS9yKcuo4jH4r4N7V9qCo6pXo21XeAz3JQY7JI2Y/leRKHiDCkZ5RBECQYcY3eHXx8Rx3HYaqutWt22uJ3DGkNCuoJ/pRtx/ro10Hy2aYjIMioTiY1u+nxPQhJFVCYqwPvsmr/Q0HBs9SosDY9d7WaIeyGBAKB3Jy0lpAdQ8qMvL0kTAdiWWgSZadY2bVZlGoHLlENCuoKHUw24rr7Wl9meEIJ4LI5oN/LHtQdKKSi1YJomdMOAruvQtHzTQ0VVoagKVE2FWrhN1TTougbd0GGYJkzThEVp4JEanQ3HcahMxH0b3VeaBiZWr8RvYYS7XfTyqKyMRCLhHJWQklFyDxFxSJcBwafet4QC+M00sENYcRPSjbk7WYe/NdZ5b4hCmXcsvtGU01PGYFkWKLUK/9P8/yUWMRzHgRACnuPAcTw4joPA53/uHj2YCOLRKASeR07x7klWbVmYWLMKswaNwJZimA4NQi/ifs1uWVYoiEJKRqkFUX8AhzrduWzZMmiaBln2FjXb2pTe/2pooSAK6bYEEUOCICARi4F4HPC7CkopTMuCZZmwLAsWpYHmfnX0tQHAsiwArdNNPM+D53kIHA9BELpUTMqSBI7jkM1lPSNbNQVR9NqgEdgqFEW+8TKlM57vBSNMSYaUhpIejUVRPBmAowvONE389ttvvp7LrtJsSbjjh3RTHks3+hZDkigiEYt3KzHEGINuGMgqCpKpJJLpFLK5LFRNg2GanSaGvLAsC7quI6cqSGXSzesMOqi1VIiCgIp4wld7hBrLwok1q7EqNFr7ptLDU8coDT1EISWjpEdkxnGO6bIm/KbNtt5666Krv64e4RESYsfMTBI31df62laW5EDVSuWEUgpV05DOZtCYSiKby0LXtZKnwMoJpRS6YSCn5JBMp5BMp6GoCswA4zc6Cs/zSCQqfBni11omTq5ZjTrLX+VhT8dLEIGxMGUWUjJKJ4ii0c3A2D5em/k1VkciEWy++eatbuuKqfchIW68mcvgyjp/BupoJIJYtGvN000iqCm60tniodxQajWLvGQqCUVVCqm38sJzHCriCV8pvN8MHaevq0K2m0TdujNeKTOO40JBFFIySiaIBMs6DT7GbwcZ4dE2bbbMNGBuRFevIZs232sqLllfDcuHHIpGoojIkU5YVTGMMWi6nhcJBRHUGSKhq6GMNYu/VCYNXdfKWsXGBRBFP2gqzl+/1te+05OJeURSmU0D4JCQ9lLKlNnpfjYKUmnW1litM4aVYU+PkG7AStPAmbVVUH0MAM1PUu/84zalFDlVQTKdQk7JlTUSxBECnuchCgJkSYIsy4jIMqKRCKKRaNG/iByBLMmQJBmSKEIQhObqsnJgWVbeH5VOIasooD6bZQaFEOJbFH2oZHFL/bqyrGNTwdObxVj3MeKFbPSUpMpMkqQxFBjnZ9tff/0VlFJf+XY7Y/WvpoFRYZVGSBeSpBZOr63COh8n1a4Yw2FaJlRVg1HiiwdSED0cxxfK4DnwHAdCSitkGKOFKje6ob9Rocy/48/N8v2PdA2iICISkSH4bLTolyZRlM5mPCNxj6UbsZ0k47REmPmxg/OO6G0cPStCNgpKciSgwBl+t83lcli5ahW2aOMPssN+yKuGI6K2fR9DQsoOAzB1fbUvP1tEjnRqZMgwTSiqCqtEVUw8Xyht5/KRn87qok0IB57n0DbIwlheJFmWCcMwYVGrQykwwzRgZAwIgoCIHIEolE4YEUKQiCeQzqQ9hdzV9bXYUpCw+0benLMc8N4ujFAQhZSMkhwBGHBykOvDRYsWdUAQhcbqkK5jRrIe/1WyntsDVDYfAAAgAElEQVTJkoRopHM8Q6USQhwhEEQJoiBAFISSRn1aioL2CitCOIgCB1EQEJEBgME0rbywMc12+6JM00TGzEDgBUQjEQglEkZcU6Qok3at3NMZwwXr1+LDIZuhf4mjVRs7vPcuGAqikJLR4W+fIAh7AdjK6f4YxxWN3Fi4cCEOP+wwz+fu3bs3Bg0ciJraDSXNYaVZSFfxmZrDnT56DYmCiFg0Vvb1WJaFnKLA7IAQ4jgOkihBEsWATQ4LYqSpc7VpAWCgjIEBIIX/fUEICPICghAOHM+B53jwAg/RVSAQCIIAQRAQBUAZhWEY0A2jXX4p0zKRzmYgiSKikWhJImIcx+UjRdmMazRrrWVial0Nnh84rDwTtzdSfESIwrcrpGR0/HKEkFPd7j48msBr2VSr24KO8GgpiBYbev6AG2yVISEdosaycLGPijKe5xGPlVcMUcagqgo0vX0XBxwhkCQJkij5EkGU0uYoDLUsWIwBHqmqQImsgniyGANAgbaBHkLy4zsIB1EUITl4sjjCQZZkyJJc6E+kt6tho24YMAyjYAyPdDhSxvM8YtEYsjn3yOKHShYPpeoxtbJvh15vU8LHOx9GiEJKRkfVNQ/gFLcNpiQq0afNQTfIkNfRY8a0+j1NKWp6QMlwSPch7xtai/UekRiu4BspZ9NFTdeQSqfaJYZEQUQ8Fkevyl6IRqKOYohSCkVTkUqn0VDoWp1TFBiGAYtSTzFUchgDtSzopoGskkNDshGNqSQy2Qw0zb5ZK8dxiMgR9KqoRCKegCQ6NtC3f0kgX7KfTsEoQXWeJIq+2i78tbEO32tqh19vU0H33tfClEFIyehQhEiQ5UPA2CCn+wfxPPaJRLGVIOEbS2m+fcGCBb5fw7bSzNAwmC9/SiIkBAAeTzfiE9VriGd+ar2fEQ7twbJMZJXg/YMIIc0nY7cUkGFZ0DUVhml2+4nzQL5azDBNGKaJnKaC4wreIkku+jubPFFRSqFqKnTD8P03UsaQyWYgiXlPWEfSaNFIBJRa0F1GEBmM4bK6anw8ZHPI3aCbeVejescaFa8NQkL80qEIEWHMdVTHxFgFeJCiYYZ1dXVYv369r9ewG/IaGqtDOosFuobbGrx7xcSi0ZKZcVvDoKgKUhnvEu6WcByHaCQfIYlFY7YncpNSZHPZfLQlkw4kFLoVhQiSpmlIplNIpVNQbCJHHMchFo2hV0Vl4FSYbuhIZdIdjhY5fRYtWWLo+Eujv+Pjpk7OY38khHhdqYSE+KYjgijCgIluG5wYrwQAbGvTN8hvx2qn0vuQkHJjMoapdTXQPA7KkiiVpdeQZVlIZTJQHdJCdjQJocpEheNJP6eqSKaSSKdTG68IcsGiFKqqoDHZiHQmXVR9RwgpiMUKRGTZtzBihWhRTlXa/Z4RQpCIxeDljnks1YhvtDD4oXr5vygN36SQktHuS1peko4F4NhNbAtBxPhCznxrB0G07777er7OsKFDUVlZiVRqgzE7jBCFdAZPpBvxk+7u58hHHUrfP0bTdShKzrc5mRACWZIcRZBJKdRCt+pSyp9EgmCzzTlssTnBsOEEAwZw6N+foG8/gooEEI0SxOMEQgsLD2NAKsmQzgDpNEM6xVBdzVBTQ7F2DcPKlRRLlzJoWsdWygCYBVHJEQK5TV8oQrh840w5AkVVoPv0ZWmaBtM0kYjF25VC43kBsWgEOcX5XG6BYVpdDT4esjmkHpw68+oETwkJBVFIyWi3ICKAa7rspHhl8zWQrSDyaawmhGCbbbbBt99+23xbWHofUm5WWSb+lvQusY9HYyXu0syQUxToAfZxSZQQiUTA26XFTBNZVQEtQSHCyJEcdtyJx5gxHMaO5bHtGA6DBpbnZE0pULWGYfGvFn6aS/HTXAs/zbVQU9s+kURZPvWoaCpkSUKsRRNEjhDEozFEJBk5n8Nu89G7NGLRWGDDNgDIkgzDMFxTcIsNHY+nG3FZZZ/Az7+poHhH4sKUWUjJaK8g6g3gSLcNJsUrmn/eTBARIVwrtR90yGtLQVRjWWikFnp7TEIOCWkvV62v9pxGXsomfkD+JJvJZlyb+LWkyRNj12HZNE3klFy+KqydbLkVhwkH8NhjTwG77s5jQP/Oi1RwHDBiOMGI4QIOOmjD7cuWUcz5ysTsORSffWqhri7g38cYNE2DpmmQZbmVMOJ5HhXxBDRNg6KpnmkxxhiyuSwsWUa0HV2mo9EYzEza9XXuSdbhhHgFhvbQho1egoiEEaKQEtKub5koiicwwLGGdJwUaRUV4gCMEkXM1zd4IYIIIjtj9W+Gjl3ksNV9SOl5O5fBxx5VZU3jHkqFbhjIKTmf3hSCaCTfb6dtdKrJKN2eiJAgAHvvw+PIIwQccJCIEcO7X6pm5EgOI0dKOG1KPor0/fcWPnjfxDvvmFj6WzBxpGkaNF1HtE0qTZZliJIERcm5VoQ1oWoaKKWIBYwW8hyHWCSCrEvqLEspbqpfh38MGOL7eTcl1nm0uiCUNnTSUkJ6AO0SRMwjXXZCi+hQE9uIUitBtHLVKmQyGSQSCc/XcxrhEQqikFKjM4Zb/VSVlXDulKppUFR/F7o8zyMejRX1EKKUIpvLBe5aTQiw+x4CJk3kceTRIvr27X4iyAmOA3bdlceuu/K47noZP/9k4bXXDPxnluk/tVZIpWmaings3hzx40i+jYKoa8ip3tEi3TBAWTZw6wVJkqHphuvn9p9cGl+rvbFHD5x1VucxQNng+Vr4EK0hIX4ILoji8cEwjAOd7uYATLQRRFsLrX1EjDEsWbIEO+64o+dL2vciCn1EIaXniXQjlnlMiY/IkYBjLpzJKgp03V8VWcShc3JOVaBrWiCz9MABBCedLOLUU0WMHNW+YlPGgBUrKFauZFi7hqKqimL1aoY1VRRrqxlMA8hlGQwLyGYYmuwylZUE0QggRwh69SaIxQg224xgxAgOI0YUft6Mx5AhwcTZDuN47DCOx/U3AO+/b+LZp3V8+aXlq48kZQzpbH6eWTy2oTRekmQIgohMLuc5K840TaTTKSQSFbZ+LifisSiS6bTrNtOT6/FmZITv59xUWOcV6VTVWvcNQkL8E1gQiaZ5KnNpl76XHLXNd9sZqxcsXOhLEI0aNQqSJLWqAgkrzUJKzXrLxN+T9a7b5Dsgd3yCfd487S8lwxGCWCxe5BUyLAu5AJ4jABgzhsMFF0qYOFGEzVfSlWVLKX74wcLPP1uYN4/hl3kW0ungJudUiiFfNMqAlfnbvp5TvF3vPgTjxnEYP57H+PE8dtyZ92XiFkXgqKMEHHWUgN+WUDzyiI5XXzXg55BhWiaS6RRikSjkwufMcRwq4nHkVNVTvFLGkM5kUJlI+K5A4zgeEVl2ba/wP1XBf5UsjojGfT3npsJ6d0GURmiqDikhgQUR82jGaJcuA/Ips7b49REJgoBRo0a12j4URCGl5oFUA1IeIfpYNNrhqjLGGDK5rK9qJkEQbNMw2WwWukckqyW77sbjiitk7Lc/D7/LTzYyfPGlhU8/tfD5pwZWr+7cfkWNDQyffWrhs083fCZjxnCYcKCAAyYI2H033lPUbbkVh7vvieCqa2Q8/qiGZ58xoaref0dOVaDpGhLxvLAhhCAejULgeSgefYgYo0hl0qiIJ3xHEiNyBLquu4rb2xvW4dBozM/A000Gt3E5DAijQyElJZggikaHw7J2c7pbIgRHx+wF0ZaiBB6k1XDMIMbqrbfaqtX2K0wTGmNhe/uQklBLLTyVTrpukx8BEbzEuiVBxJAsSYhFW4+oMSlFNpP2HRXaZVceV14pY/8D/J2YG+oZ3nrTwKzXLXz7jYnuNjZwwQKKBQt0PPKwjnic4LDDBEw8QcD++wtwK/gbPIjgppsjuPAihhkzdLw0U/e0nliUIplJIxGNQSyU1suSBJ7j8sZ1V1GUT8FVJip8RYryzSKjyCrOAY9Fho7XsxnHi85NkfUuFygE8Db7hYQEIJB5gDfNg+HSYvXASAx9Ha6IZEIwos0Ry28voo8+/hjvvvdeq9ssMFQFuEIOCXHj/sY6KB5N4NpTWt2SIGIoFokWiSFV05D2KYZGjCB45LEoZr0e8xRDus4wa5aBc85WsMvOGVx/vYav53Q/MdSWbJbhtdcMnH2mgl13zuLPf1Lxyzz3RQ8eTPCXv8j48KM4Dj7Yx/Vg4TPLZjdMqhcEARWJCnAebT8YY0hl0qA+Wx9IkuQZUbo/VV/SxprdmUZqeXWJDyNEISUlkCAihGzjdr+dmbolbdNmS5YswZdffun6mJdfeQUnnnRSURfZfeQoRgY1QYSE2FBtWXg64x4dkiS5Q0Zqv2KIEIJEPNHsX2kincnkK9E8xFAsRnDd9TI++SyOY45xP+GvW89w7z0a9tg1i6mXqvjgA3OjLdipq6N46l8Gjjg8h5NOVPDO2+6CbuQoDk89E8Uzz8UwcqT3YVA3DSRbiBuO41CZSHj2oWKM+RaxADxbOczXNXyoZF232VRY4XHBywhZ00lLCekhBEqZMUL6EpcvtlcZ/NaihPdafJl1XceBBx+M4449FmeddRb23HNPDOjfH9U1NZg9ezYee+wxfPTxx0XPE+c43NVvUA/KpIeUk3+kGlyvRPPpjI4ZqbM+xBBXEEMthRel+dETfvoTHXSQgNv+EvHsH7RoIcXjj+uY9ZoJXe94vCEWIxg+gmD4MA5Dh3MYOpRg6BCCREW+gkyWGKJRAlkm0HUGVQVySt5creQYamsZVq5i+GmuhXk/dzws9fUcE1/PMTFiBMEFF8mYMkWAJNm/JwceyGOvD2K49x4dTzyuw+0jopaFZCaNikQFhIKvKBGLI5PNupbNU8aQyWZREY97+s8kUYQmCK77yv2pBhzSA8zVXoKIAEs7aSkhPYRAmkKQpDsBXON0/1MDhuKomHNfoRczSfyhribISxavgRA8M2BojzgghJSfLKXYqWoZGl28CnZeniDklBw0jzlZ+Uqm1pVJpmkinc14Pn/vPgS33S7j+OPd/U3Ll1Pce7eO11830N4G1vE4wc47cxi7PY/td+Awbgcem2/BoR0jvYr46isLp0wu9tAQAvA8XMWKG8OGEUy7QsZJk0VXn9FPcy1Mm6Zi8a/ubw4BEI/FIBYi1E0dq93GcAB5sROPeR+3DNNAJuseBXp38GbYqYSNQbsj96fqcVvDesf7GXCipeuvduKSQjZxAkWICGPLmMsVzp/qazFcEDBOsv+iTk5U4hddw2PpxmCrLCARgvv6DQrFUEjJeCGbchVDhBBEOuAdUlTFlxhKtBFDmqYhp7kPlgWA/Q/gcc+9UQwe7Py9XLuW4b77dLzykreRuHhtwPY78Dhgfx77H8Bjl10FtGN0ly96O4yKJgSY+3MCX31p4ZNPLXz6cbCKt6oqhquvUvHwwzquu17GUUfZH/bGjefx9jsx3Hqrjueecf7MGIBMLodohCEi57uFx31EinTDAKcqnl40URDB8zwsl5zfvzLJTV4QLfeIEHGMLe3mNreQjYxAESJJksZQYL7bNjwIzq/ohWt790fC4bJxVjaNmxvWYW2ArrqjRAkP9BuE3cLu1CElwgLDnlXLXUPzkiQj3s5p9pquI+dSNQTkxzfE44lWjfxyqgrNQwyJInD9DRGcf4HoWEZvmsCT/9Bx7z06crlgqbEdd+IxcZKIY48TMHBA5ySnV61i2HtP+4jY/IUJVFRsWMe8ny28+qqBN143UV0T7G+bMIHHbXdEsPnmzmGt/75j4o9Xqkil3J+75Tw0vz6xeCzuORDWa9+JEA5zh41EnxI1CO2OnFizCp+7dHA3db0S+V5EISElIfCRTpCk/wFwLL1vYjDP48beA3BKotL2/iyleDjVgGcyjahxuRLaTBBxQWUf/C7RKyyxDykpHypZnFZb5bpNr4pK3w32WmKaJjLZjGtFEEdIoVppw/NncznPSfeDBxM88mgUu+7mfDL89lsLN1ynYsEC/7mxQQMJTj9DxKQTRF9G41LjJogWLEogkSj+/ltWPtX2/LM6/vtf/5VxkQjBZVMl/P4S0dFftGwpxXnnKZ4pNEmSEC+kVPOVZRlQj6ijn3L8ZCrpasa+tc8A/L6yj+tzbMzssnopVjldNDNWaxrGoM5dUcimTmCFwUvSZAK87Hf7I6Jx3NFvEIY7TGu2wDBX0/A/TcFq00AWDAkQDBcl7C1HMVaSg5XChYT45Nx1a/Bmztmj49fz0RbKGFLplKsRmhBS1LjPT7PF3Xbn8fg/oujfz/6rq6oM06frePZp3dfIiiamTpVwxZVy4O7VpWTxrxQHHWjvnVm2osLV/wMAq1YzPP0vHTNnGkgl/f3xY8ZwePChKLbZ1v4ok8kwXD5VxXvvuUd9ZFFCLJYXRRalyHhUlvE8j4p4wtVkrWoqFNU5UjhKlDBn6Bau69pY0RjDFiuXtOpb14Y5pq7v1ZlrCtn0CRxvZZY1n+P5XQAUj6C3YYlp4LlMEhFCsKMUKeq4y4FgiCBgVzmKg6JxHBFN4KBoHLvKEQzihbCSLKQsrKMWrq6vhdu1fywaa1d0KJPNuvaeaapOalmynct5i6ETThTx+BORVqmjlvwyz8KU0xV8/FFw9/EhhwrYY8+uTb+sWE7x4szi90AUgSuu9K7y61VJsP8BAs4+W0QkQvDLPAqXaRgAgPXrGV5+yUSvXgTjxxd38ZYkgmOOFdHQwDD3R+fP1KIWGBhEQQRHCERBcB3LwhgDY6y54aMdHM9Dc/kDGqiFQ6JxDPFSihsh83QNz7i0wiDAJ9SyXuvEJYX0ANoVfDF1/QwA3/vdPkspbmpYh0OqV+I7zd9U75CQcvJyJgXD5Qqe43jPHjN2KKrqOXE+Fo22EUM5aB5u5yuulHDfjIhteocx4LFHdRx7bA5LFrevfOzHH7renrq6yv7zGBDQw5RIEEy7QsKXX8VxyaUSolH3x6sqw59uVHHO2QqSjcVr4HngttsjuPFPsuvYE03ToBQEDM8LnuZpTdddK9M4Qjy9Rq9mU673b6zM85gZx4CfO2kpIT2I9majUqauHw7gv0EeNF/XcHT1KlxXX+M5MyokpJz8n8eJJCIHzx2ZlgnVwwwdkSOQWuSlcqoKzcUzxHHA9NsiuPKP9ifjXI7hogsV3DZd8xxeOngQcayw+v47f1Phy8mqlfZibviI9kWuevchuP4GGR9/GsfhR3iL2w8/NHHsMTn8tsR+HRf/XsIdd8iuLQZUVWkeACtLUlGDzbZkc1kwlw7pkuT++Fm5tFtaaaNlnuFRYUnIj52zkpCeREdiretNXT9alOVLGWO3AbB3T7eBAvhnOom3chnc1ncgjneYfRYSUi5+M3T84nIFSggJPLMs34vGvaJMFEREIxtKpTVNc60mEwTgnnsjOOFE+7WsXs1w3jkK5s93v7jgeeDss0VcdY2MJYsp3n67OCpRXcMw72cLO4zrurSZU1PGzTbrWOJ82DCCfzwZxQcfmPjzjapryf6yZRTHHZvDgw9HceCBxe/FGWdJkGSCa65WHQ3cOUUBJwgQOB5ROQLTtGA5RA0ZY8ipmmMloygI4Ahx9CPVWBbuStZju3aavxiAlGVhUrzSsSq4K5jnoe5NUfzRMx8aEhKQ0lh0YrGhgmnOAHBS0IceHI3jzr4DsVkHh2aG9Fx+1FQ8GyB18J2mYL6LIGqPmTqrbIgM2JEf9VDRbKI1TRPpXNZxFAfPA/fdH8HEifbfi2+/sXDBeQrW17lHB7YdzeG++yLYfof8yd0wgB3HZ2xNx5dPk3DV1R3ryN0Rdtslg+rq4nXdcmsE551fmuODojDcequO5591P+HyPHDr/4vg7N/Zv+7M53Vce63mHFUjBL0KlWSUUqQyaVeTfUXceQyIn8aeHWXmwGE4uJv0d6MAtlq1BBlnH94aU9eHdeKSQnoIpbkcNIw0taxXiCB8A2AfAvT2+9BlpoFnMimYjGE3OQo+LK0PCchz2SQeSTXgJ1319W+dR212JBINNLfMMM38nDEXErF483M2nSCd4Dj3yNBHH5k453fuPXIIAc49V8Sjj0UxdOiGK3+ez4/uWGhTjr96FcU550ol6TodlMW/Ujz0kP1J/49XSRg8pDSLEkWCQw4RMHYsjy++sKA4fGyM5d/nSIRgt92L94UdxvGIxQg++8x5XzJMo7lxIwFx9QuZpllI0xYf/wghnq0YOspIQcI+kfZ3Yy8lywwdD6ca3Db5jFrWC521npCeQ0kPfZamvW3p+lgAfwPguyeuyijuStbhkLUr8T+PE0tISFsWlvDqmRQqhPzCGEMu5z5moa2JOu0ihgBg+vT8mAk7/vMfE+efp0BRnMVQ/34EzzwXw63TI5Dl4hPsYYfb/31VVQwfvN/O+Rgd5J137F83GiUYO7b0abwdd+Yxbpz34e8vd2i45277yN9FF0u4+PfOqSpKKbKF5oqyLLvuV5RRxyiQIAitGneWg2+7UbHLz4ZnKmxuZ6wjpOdRjm9ZztT1azlgFwCzgzxwoaHh2JpVuLK+xnWcQkhIS37xPoD6RhREzwGcLVE1zbXfjMALkFsYYzPZjOv2l02VcNbv7E+yM18w8IfLFFfz9Njtebz13zgmTHAWEYccwqNPX/u/8aGHgvUvKgWMAa+9Zn/9dMAEvuS9kd5918TBB2bxySf+jjH3/V3HbdPt02PX3yDjSAejOpAfYN1UOh+Nxlz3LUXVHA3WQrnmpRT4XtdcW1B0Jl4XxQwIDdUhZaFslx26rv9s6vq+hLGLAfgeXsYAPJdOYp+q5XhlEy0pDSkdCqNYHnRAlwtufWHaQil1NUXnZ1xtSENomuaaNjnxJBHXXGvv4XntNQPXXets5AWAY48V8NqsKIYOdRd0kQjBKafY/50/fG/hvXc7N0r0xReWY7sAp6q49mCa+YjPBefZl9e78dijOv5+b7Hw5jhgxv0RVzN6TlVAKQXPcYi4zB9jjEJR7cV9UJN/UFLUwuIyp+X8MscjWiVy3HedtJSQHka53QLUMIzHTFEcTYBnAf/1oeuohUvXV2Nizepu80UN6X4s1PWSlh0HSZfllJzrK0flSHNjR8uyXH1GO+7E486/2ZfWf/ihiT9eobpOqJ/6BwkPPRL17LnTxFlnS46dn2+brrmm5ErNY4/Yi4BYjODgQ0ojiFSV4YLzFDzcgQjY3+/VbRtHRqMEjz0RRe8+zu99upBWjciyqz9N0zVQmyiRwPOBIpftoTv0iEtTivnuKfAqVVWXdtZ6QnoWnWOfzGZrDF0/Cxx3EICFQR76lZrDhLUrML1hPbSubpQS0u1wqxYLiiAIvk86pmm6RnsEQWjVgyaTyzqKpwH9CR5/Imrr9/nf1yYuvlB1nFJPCHDTzRFcc61708C2jBhBHH1Ky5dT3HN351yEzJ5t4dNP7cNek04UUVnZcRGQTjOceYaKDz7wGL8hE5x6Wr7LtRPXX6fi44+L1ztiOMF9MyKOnwG1rOamjV4NG1WbcnJCCIQyD3L9Rvfo/dMJ/E9TXC9wCPB5Jy4npIfRqfUkpqp+Yur6zgBuA+D7iGswhgdS9Thw7Qp82Q2uYkK6DwtK7B/yi+LRgDHW4qTXlDKxg+eBhx+NYMiQ4jPp8uUU552nQlWdS/P/dlcEF1zYvnTKFVfKtiIMAJ54XPftsWkvhgHccrP950cIcI5DyXsQVJXhrDMUzJntLob23ZfH+x/GcNfdETz9bBTxuP37YprA7y9SbHsmHXywgIsudjY8qYX9QBQE10ik7uBLE7z3z9cIYxc5/iNkqtuDv+0GBS1e6TIwFgqikLLRFZ24FFPX/8wBO4KQz4I8cImh44TqVfhDXQ3q/I61Dtmk8YoQEcb2FDhuS4HjtvQ6mPpNl+mGAdMlOiS3SIuYpunaQ+YPl0vYc6/i181kGM47V0Fjg70YIgS46+4ITj2t/aJh6FCCiy62fzylwNTLFCxfXj6r7QP3a5j/i/33+PAjBGw7umOHJ8sCLv29im+/dT5WSBLBHXfIeOHFGEaOzL/e3nvzePoZ+wo9AMhmGS44396HdPU1EsaMcV53tpA6c4sSMQCqzVBXHxGiiGEYjzv+07QHGfCb04MXG3qXTxDwEkSEkFAQhZSNLmtNquv6AlPTJjDGzgYh6/w+jgF4MZPEXmuW4/F0Y7epjAjpGhaYroHGesMwvlZVdamqqitAyI5OGxJCfPcechvPQQhBpEVVWU7JOTZf3GNPAZdPKzZRMwZMu1zFr4uc9+6bb4lg8skdj6BcPk3CVlvbHwYaGxhOOyVn2yyxo3z+uYX7ZziVmQPXOpjLgzD9Vvcp9UOHErz6WhRnni0Vpbr22FPAjAcijj2ZVq9muOoqteijlSSCGQ9EbWfOAYBpWTBNAzzPu84p0w29qJGjIHj6iHZ3uxMAOGCO030UwA8lTEEHRWMMP7pHXht0Xf+ls9YT0vPo6l7tzDKMZ0xN25YR8jgCmK4bqYU/1ddiYs1qLApN1z2StZbpHilkrLlfiSiK4wA4zonx688wTBOWy2tGZLnZSK1pGiyHVFk8TvD3+yKwe9kHH9Dx7n+dT+SXT5NK1rlZkgjuuScCp3Pz6tUMJ0/OYdWq0omiJYspLr1EcayYm3KG6CjS/PLuuyb++U/n6sMtt+Lw2utxjN/R+XM/+mgBN93sXBX233dM/Otfxa8xZgyHSy9z/nyaRry4V5wxm2aMnqK9H6JR9w7OhDgKIgD4pgstCXM0xcsn+gUQXgOHlI+uFkRNNFiadhEoPQDA/CAPnKPmcNDaFbixvhY5tzKckE0OH4bqn1r8vKvbhjzvL13mFh3iCGnVcyjnsu1118sYMaL4an/uj5ZteXcTJ5wolny8xs678Ljxz84n52VLKSYem8V3Lqknv/y2hOLUk3NoqLc/8Y0YkR/I2hGqqxmu+mNx9KaJbbbl8O9XvdsTAMB554uu4vP26Rp+/qn4fbn0MgsWq+QAACAASURBVKk5BdcWyhg0XQPP865pWru0Gc+5C3eeUscoaP7FqWtvuO88vHHl5P1cxn2DMF0WUma6iyACAJim+bmp6zsCuA6A72+mwRieSDfigLUr8LHqPmAzZNNhvoehmgA/N/3MgO3dtnWaI9US0zQ9vEOR5pRG1iVVtvseAs46u/gkm8sxTJ3qXFE2bny+NL8cnHee6DgqBABq1zFMPimHhx7U4fIWuPLllxYmTsyhptbZJH7P350NzX655SbV0Xs1ZAjBs8/F0K+f/0Pfn/4csR3fAQC6zjBtWvFnJssEt//FWWTmCmJHdokSUcaKKhm9IpmEMVdBZBjGTwAcD5LfamoJm1gE4wPFveM7ofSDTlpKSA+lWwmiAoap63fyhGwP4L0gD1xhGjilZjXOqK3CWofp0iGbDgu8R3a0jBDt4LahH/+QmzmaEA6ylK8wopTCcBzDANx+h2zrTZk+XceypfZRTkKA3/1ODFRaH5S7747YTnhvwjCAv/5Fw5GHZ11neLVFVRnuuF3DlNNyjkIFAG64UcZee3WstPzTTy289Zb9d1+WCZ562l9kqCWCADz0cNSxu/eviygef6z4895vPx6HHuogtBmDoqkQBcF13zPapM289lMCjHPdADBAiGNjwyS1sLQLLAhLDR1LTdcGq2sNwwg7VIeUle4oiAAAmqb9Zur64Qw4GYzVBnnse0oW+69ZEZquN3E8RnZQwzA2pF8JcTxRcBwHzkNpUMaKTk4tichSc3TIrWHjWWeJGG1TPfX1HNN1AjtjwJVXqBi/QxZXXqFizmyz5CM2RAl47Iko9t7b/aS7cCHFlNNyOPqoHGa+YDiKnPp6hif/YWC/vbN45GHdtcv25JNFXHhRx2Z0UAr8v1udA8s33SRhu3bORRsyJO/5ctpNZtyn2/qsrr9BdmyA2TTSQ3aZTaIbRitzNc+7H7IZsJXrBgDAmGvarCt8RO97RPYZIW8hgMc0JKQ9bCyj5XsLongrCLkMAUXceCmCu/sNxHjJOTQdsvGhM4ZRq5ZAd1YFi0xdHw0AiMcHC4ax1mlDgRdQkUi4vp6qaY6dpgkhqKyoBEcIKKVIpu1HzvTpS/DFF3FU9mr9tTNN4MjDs1i4MJh8HzmSw2VTJUw6QXQ0RbcHXWeY9gcVb7zhL8rKccDW23DYaksOvfpw0DWGxYspfpln+UqvHXecgPsfjNoazIPwztsmLrzA/jPaf38ez8/s+DT3W25S8eST9pGMgw4S8PSzxeX011yjYebz9mI3GolCliQk06miqrImYtFYc/QRAJLplGNfKwCNpq73cfsbeEmaRIBXne4/q6I37u470O0pSs5JNavxmYsoYsAkS9dndeKSQnog3TZC1IZG0zAuB6X7A5gX5IFzdRVHVq/CjfW1yIam602GxYbuJoaAFv4hQdNGum3oddUN5EcqOCGJYnOEKac4H9QvuUQqEkMA8PRTRmAxBADLllH88UoVB+yXwb//zyhZxEiSCB58OIrLp0mOZectoRRYtJDirbdMvPCcjv97xcDcH/2Jockni5jxQMfFEAA8+KC96JAkgttuL80F0dXXyo4pt48+MvGuzRy4qX+QHAWrqqkghLiaq402BiXe/UPpDcBVEFmC4Fpp1tkjPLKU4mv319QtXf+ws9YT0nPZWAQRAMA0zS8Lna5vAOD7W2sWTNf7r13hadwL2Tjw0aF6g6Ga4zwEkfvZ2LJMtytySOIG75CT6XrwYILfnVN8Vqxdx3DvPR3r/bJqFcO0y1WcPFnB4l9LI/o5Drjq6nzDwsGDSh9I5vl8Ounev0ccU0pBmPezhZ/m2ufkpkwRMHJUaQ518TjB/5vuLK7uuUsrEqYjhhNMnGSviBhjME0TkuScNjMts1X0iPPYX0VRdN3fkcutJcAKp7sX6nqnXjx+rObcy+0Z+xRAutMWFNJj2agEUQHD1PW/CBw3FsA7QR64yjRwem0VzqitQlVout6o+cWj5J61MFQTYHO3bQlx/xq4mal5nm+uUFMUxdHkMHWqZDsj6693aEilShPamTPbxOGHZ/HkP0oXLdpnHx4ffRrHeeeLJREuADBqSw7/fjWGSy7tmGeoJS+9ZJ/GEiXg4ktKW5l3+BECDjvM/s1YsIDi7beLjy2XXuocbcspCkRBdGy6yBiD2eJ4xXnsr5QQ1/29gKOPyALDDyUciePFrKy71iEc91YnLSWkh7MxCiIAgKqqy0xdP4oBpwJw9IfYkTddL8eT6caSTkoP6TwWeAgigZANESJCtnDb1iMFAd2pDh4bokMAoDtUyQzoT3CKzYiN5cspXv23/WMGDiD49LM4Hn8i30l5s838fVUNHbjlZhUXnKcglSzNvl1RQXDLrRF8+FEcJ58iwsUD7EqfvvkeQ+++F8Muu5ZuUCljwFsOfqejjxIDV5X54dbpEcdu1H+/V0PbAMuWW3HYf3/7v9miVmHGmVvn6haCiHP/ezjGBrhuAHg2aOysuWYZSvG+R9SeA97ulMWE9Hg2WkHUhKXrL5m6PgaM3Q/Ady1wmlJcX1+Lw9auxA9d2IwspH149CBKa5q2tOkXwtgQt405F0Fkmqaj2RVAc6pDs5lQ3sR5F0i2c7EeetC58ur6G2WM2pLDkUcJuOMOGV/OjmPW6zFMOVPy1afn3XdNnHBCacdujNqSwz33RvDVnARuujmCHXfiPT1GhAC77sbj9ttlfDU7jksutY+UdYT5v1hYt97+7zz51BK6zVswfDjBaafbR4ma/FRtOfscl8GvugZRdA7BmS0qHL0imowQb0FEabfwEb2jZKAw1/TcXE3TFnfKYkJ6PBtLlZkvRFHcmRHyKIDdgjyOAzClojdu7d0fCT8u0pAupd6yMHq144xKAPjK1PV9mn4RJOlLAHvbbUgIQe/KXo5PpKiqY3fqltVpTpU/sRjBN98WV5atXs2w/74Z2yaMO+/CY9brMccS74Z6hiee0PHUvwyk0+6CZ9gwghdmxjBqy/Ls1+k0w48/UixeTFG3nqK+AaisyEeVxmzHYfyOPPr3K+9h5tFHdNx+W7Eg7d2H4Me5iZIYtu2ormbYd+8sNK34Mxg3nsdbb7euaqMU2HfvjG15PleoVGxMJR1fr1dlJTjCwbIspDIuaSbGZpiGMc1j+ZIgSUkAtoaofjyP+cO3LPsJ4vTaKi9f53Wmrt9Z5mWEhADYBCJELTEM43tT1/cmhExDABMeBfBsuhF7r1mGlzL2JdMh3YdfPBrHMUJ+anNTX6dtvQ74hkuzOEnKRx8opY6m6+MnCraVZY88ojt2pL7iStm1AWOfvgTXXCvjk8/jmHSCe7PGqiqG007NoaqqPKnhigqC/fbjce65Iq78o4zTThUwfBjBihUUTzym48RJOWw/NoPtx2YwfocMDjowi8knKbj2Wg3PP6tj/nyrw36nX+bZv/f77cuXTQwBeaP8lCn2UZ2f5lqY93Pr8B/HwbEbOGUMlFLXETJGIW1GPC7aiJ8IEaAD+N7pzjrLwgr3RokdpsGyXEvtATCT414q6yJCQlqwSQmiAqahaTNMQRgN4P+CPLDasjC1rhpn1FZhVWi67rZ4jezgKP251Q2E9HPa1u3kQhlzHeTa5PlQXfwWZ5xRfAKsq6N4aab9yWbceB4TJvg7iw8cQHD/AxE8/az7KIo1axhOPy2Heof5YR3lq68sXHONhl12yuLoo3K44QYNL8408OWXFpb+RpFsZEg2MtTXMyz+lWLO7Hx5/nXXaTj80Bz22C2DG2+0nwnmhwUL7R+38y4lcoG7cMlU2dFL9OxzxceQE05wTuFpmuY6msMs7IteIp4BlR6bFDZkXTro9Y1c2qt1xmyo6vKyLiIkpAWboiDKk8utMXV9MiPkOAKsDPLQ95Qs9q1ajrsa62CUuh1wSIfxGurKGPupzQ2OfVmcKnsAwHS5QuY4vtl71NLw2pLtxvIYN774BPfaq5ZtmgUA/nB5cMfygQfy+K+HUXnpbxR/uEwpMvu2F8sCXnnZwKEHZ3HK5BxmPq+jrq59T752LcMzT+k46sgcjj0mh/ffD3YxsnKF/Xs5ekz5D2+DBhIceaS98PrPLAOZTOu1jdqSs90nAMCwTFcfkVW4SHPbZwEAjPkqq2Mexupy+4he86ouI2RmWRcQEtKGTVcQFbA07Q1D17cHYzMQwHStMIq7knU4ojo0XXc3PHoQMdM0WzbvFAE4nmXcTi2G6RYdyp/UTErBHCoVJ02yf9kXX7RP+Y0ZwzmWc3sxeDDBzBejzrOzkJ/zNeO+js+p+uILC0cenh8h0p6Gkm78+IOFc3+nYNLxOfwyz/vrqqoMimL//g8d0jkWydNtooAAkMkw/GdWsag+wkFAUUrBuUyztyyKpukVrqKI43x1obR43kMQla/0fqlpYLa74LIMQQgU4Q8J6SibvCAqkDYNYxphbHcA3wZ54M+6hiOrV+L6+lqkaPtC+iGlwwLDIrchq8AqAI0tbnINubQ3QiQU0mW6ai+WOQ447vjiE+WPP1hY5CAizjqrY8Nbo1GCx/8RdRVV98/QMP+X9u3HuRzDdddpOP3UHBYsKG/jvm+/tXDsMTn87U7N0WsFACmXIEOFjXerHOy1F+/Y+PH114ujXW6i1TAMl7l6rCCKPPAZIYKirAKw2unu+YbmVQHWLgzGcHVdtfucScY+QTZbXfIXDwlxoacIIgDNpus9CSGXA/DtnqYAnkw3Yt81y/GfXNgwtStZbhiuB2nWesI94CGIHJ+nYHJ1osnrYTh4zXbehbftfzPzRfvto1GC4yZ2vERcEICHH41gjz3tT7qmmZ+t5TZo1Y4VKyiOOjKH55/VSz5U1gnDAB64X8dppyqOZfWCi92qs5otEwJMmWL/2X3zjVXUD2r0aA7Dh9uLHsMwXI3VPn1EQfZ5xyiRwRh+LHF0fK1l4szaKnzu0eeIAGG6LKTTKb/rsPthGZp2P6LRfwuWNQPAiX4fWG1ZOH/dWhwSTeGvfQdiM5dGaiHlYb5HhRnaCqJ4XHILMThFiNzM1Bv8Q86i6ZBDir9ahgG8+R/7tRx1tIDKytJENGSZ4NHHIzjysKxtH6K5P1p49d8GJp/sb//99lsL552j+DZlD+hPsMtuPHbYgcfw4QT9B3AgBGAUWL+eYuVKhnk/W5jztYVko/dzfj3HxLFHZTHzpRhGjmx9DRdxSQ5l0wwY2DlRouOOF3H7bcVjOwwD+PgTE8e3iRbuP0HEC88V78sWtSBLsmN1Y/P+RghclKl/uUvIHDB2ktPd3+ka9op4D8XVGUOSUaQsC0lK0cgokpaFJM3/XkctLDZ0fK7mvIzUAFBnGMaLvv+GkJAS0RMFUR5FqTKBk3hZPgaMPUCALfw+9AMli/3WrMBVvfvi4oo+EDuS5wgJhKehusUMswLt+nAsl/Rok39I05zF2cE2guibbyzHMR2nnlrar2L/fgQPPBjByZMV2/PmjPt0TDrBexzH999ZOHOKUmQObks0SjDpRBGTTxKw8y5uDRs3hHRME/j6awsvvmDgrbcNuGndqiqGySfk8OLLMWy19YYnj8UIKiqIbT+mpcto2fovtWXIEIKx2/NFpfYA8OH7VpEg2nMPDi88V/w8jDHwLp2omwSRW7NQAP7r5S1rjlt3zTdzaYiEIGlZaKQWUpSikVpIMopGK/97klHkShuOmwEgHDoZ0un0qJSZHZamvWnp+nYAbkW+N4cvFEYxvWE99lu7wjP8G1I6ftHdQ/g8MLfVDdmsuwPb4cRiukSImobBGg6DXIcMIRg9uvir9fFH9tsPG0YcU1wdYc+9BJw2xT57smIFxRtvuJ83f11EceaZ7mJIlIDzzhfx9f/iuPNOGbvu5t29uglByM9Ke+ChCD77PIHJJ7t7qGpqGc6YkkNNbXHllh3ff9e5nr9DD7XP3338iYm2u4rb5225iAvqx9NDiO/jmGma38HluPe9puLP9bW4O1mHf6Qb8XI2hfeULL5WFSwydKy1zFKLoUWmrt9VyicMCfFLjxdEBRRT12/h8h2uHYce2rHU0DG5ZhX+WF+LxtB0XXY8Umaqrutt2/y3q1TGzT/UJIgsB//QnnvZn+w+/th++wkHdcxM7ca110pIJOyf3KkXEgCkkgznn+8+D2277Xi8/U4ct9waQZ++HfsDhg8nuPfvEbz8StR1bltVFcN55yit2hZst5399u+917m9xJzM0o0NrMjIPnQowbBhwdO1tHCfa4SI0iClhCqAHwNsX05ShLFTkF9TSEinEwqiFui6/pOp6/sSxn6P1pVKrjR1ut6najn+Lxt2ui4XGUqxyr177nwAbc+CrgdXpxML9fAQAfnGjXbsuUfx12rNGuZYXXagz0aM7aFvX4LfnWPvFfrqKwurV9v/DddcrWLZUmdReMKJIt54K2obCesIe+4l4O13YjjgAOf3ZO6PFu786wadO+FA55lin33aeRcp2+/AY+AAe5Ez98fidYwd6zDslTE4ZXopY17pMoCQYCFrjwaNnUQGHHeCYRhzvTcNCSkPoSAqhhqG8agpimOCVjqsoxYuWV+Nk2pWY1mZ2973RBYYmkPHnzyk2D8E5PWq44dh93yMMUexQwgBRwhMh3QZAOy+R/EJ+rNP7bcXJWCffcs4XwLAmWdJtmksxoDPPil+a95807QdTtrEBReKuG+G87T3jtKrN8G/no7huOOc00pP/sPAnNn5Ne63H+84MPamm1THJpilhhBgp13sP8u5PxWLy+3G2h9+GaVwG2jvFr0EAAbUuW7QdnuPBo3lhgHLCGP7mar6YVeuIyQkFEROZLPVhq6fDkIOZ4DrJNG2fKbmsP+a5bgnWeenoiLEmTQYvmTA/SDkoumNdTPcNraZYZaHEMdoH6XFn4/bCae5O7WD4I3Hia2nxe6ECAC778Y7prRKxdChBPvsY3+i/uKL1pGLXI7h5j85B9VOmyLhzzdFypbia0IUgfsfjOKgg5yaGAI336SD0vw8tZMcKuZ+W0JxxeVqp5Xgj3foQh0kQsTgPlLGzfAPAISxQILI4rhANoESkgXwN0vXdzAMo7uk7UJ6MD23yswnpqa9B2AHQZJuBHA1fPb40BjDnY11+Hc2jbv7DsTePkpXN2V0xpCiFtKMIWlZSDGKJKVIFypX6qilrTXN+irLaFxjmso6alkZSgUGDCXAdgB6w6tizEkQMbYOgP3ASxuTqlN0CEBz0zzLoYv1mDGcbTTGqevyrruVNzrUxAETBHz+efEafmoj1P75pIHadfZ//6678bj9NvfBs6WE54GHHongmKNz+G1J8ec0f76Ff/9fvn3AhReKePEFvci8DABvvGGC51Xc83fnuWOlwkkQLV5MkcsxxGIbXn+LkQ6ix+MiyitCBEICCSKo6nJIUjWAwYEe1z5yYGw24bi3DE17GkB9J7xmSIgvQkHkD8XU9T9JkvQCJeRRMLaf3wcuMXRMqlmNUxK9cHPv/uhXzvHbZSRdKK9NF0pt84LGQprSfOkttZBkDCnLQopaSDFWuN9CijI/HW9lAEMK/5oJcvoyed4uZQYQst7pJGMnfpjLWpuu3J2qfcbYXPWbJrBgvv32O+zQOfvDLg6pnKoqCsPIR2QUheGxx+z9uPE4wf0PRCG2q81l+0kkCO6/P4KJx+ds20k9/LCOkyaLGDmSw8W/l/DgA/brnzXLwNJlFA88EClrKX4iYX+7ZeX3gZbz5kaMcN67mYvocatCAwDC2Hr3VdoyB8DEANsbYKyhEH1tANBIgAZKSCNhLP87Y/nfOa6BWFaDIQjVUJSqdqwtJKRTCAVRAHRdnw/gAFEUz2GE/A2A4xT1ljAAL2aSeF/J4Obe/XFKolf7muO0E7foTLIgaPL3UyQtWhA0tPm+JLVcvTvdAsZqkM3WONy3zu2h+RlSG06SbqbVpgiRUxRpS5uT7W9LKFTVfvux23eOINrCYbSEaQK1tQzDhhH853UTjQ3267ziSsn1BF5Oxo3nceaZIv75z2JFtGQxxaefWpgwgce0KyS8/77paF7/aa6Fww7N4ZxzRVx6qYTefUr398z/xcKjjxiurQyWL28tiOJxgv79CNbX2aRtXfZBrwgR5bjAooMx9iohhBCgkRWEDiGkgVLaiLygaeQ4rkHn+UYoSgPa0yfIbQZLSEg3IBREwWGGYfwTwBuiJN3NgDPhM5BRZ1n4Q10NXiyk0bbyebkdNDqTZPnbA0RnNgXs02UAGCG1xOUE01YA2fmKmiCEa3qQ7f2bb168K8xzSJf16UscRziUmgqHyAUAmGa+qmmmQxn+kCHOlWqdxbQrZLz0kolstvh9f+UlHRMmRCHLBE89HcPEY7NFvYqa0DSGRx/R8czTBiadKOLkyQJ23Ml/76SWrFvP8PabJmbNMvDtN97VbGvXFq9p4GAO6+uCVcJ5CSKesRVBa+ssw3gWwLMBHxYSskkRCqL2s87Q9bOFSOQpUPoIgG39PvArNYcJa1fg7EQvVHL8xh+d6R44CiLC2HK3B1qUNvcWyuMiiOB+QtrcpoeOU2n7WIf+OeXAZR4uGANq1zH88L39afTs30mQ5a7txt6nL8FJkwU8/VSxaPvoIwuaxiDLeYH5zHNRnHG68/wzIG8ef/5ZHc8/q2PQQIK99xWw0848Ro/mMGwYQd++pNnsns0ypNPAqpUUS5dS/DLPwuzZFhYtooHmuq2rLd5v+vuKMbfGSxDpur4i+LOGhISEgqiDmKr6MYDxgiRdB+B65L0wnuiM4Ym071ZHIR7YjOxoed9St9N52xOMW8qMEOJ6QhpiM9C1usb++YYN7zxB5CTKAGDAAII33zBtK7EEATj51O4xs+/0KaKtIMpkGL6eQ7F/oXfRdmN5zHojhjOmKK69lJqoqWV47dX/3955h0dRbn/8+07ZkoRAQpeAAhZAQKWKXK+KgIiIFytVEcSCFUS8eq+KSrkqUkTxKiBgAVFRgZ8I3NAEkd67SkAIHZJAkp2d9v7+2GBYdmaz2Z1Ngjmf58mDZrNn35nNznxz3nO+R8N338Z3S+eERbF6aqqA4oweKxLGTgLIdS4gQZQfqO3eGfy6qr4uMnY1gEWlvZjyiHDhyI7zH+N8X7jnXlikysPtgDJ7J2GXi1m20J84Zn1Trl695LIuq362XnOVygyJiQzr11s/3qy5hKpVysasvkaNRFsX640XZLfq1BEw/8cE3P9A2RBzAHDcopItuZLD57aI33WCIOyhDJGD+P3+3wF0EmW5NwNGg7Fqpb2mixgTQDYPdK9kg/McMJbDA90rOWAshzGWDdPMMRnL0TVth10gTdP2SS77ei0zxNclvP2jCWuBk5pq/Qy7DFH1EprEDgBffWWd/biuWSCrsm2b9TGFc4wuDdr+TcQfM0LXauXzk5TE8O4YDzrfIWH4m3789mvp1tKdOBH6+i7Z2Q1xDmx3NCBBlCNIEDkPLyhQ/EF0u99mnPdDlBPXL3LyAOQUfGUDyGFATkFbbjYKhI3JWA4Yy2aGkSMIQk5BF0sOgLMOriUbjJ0A55ZeRKEZn3BvF7fdMqtk89f+saM2GaIaJZOgTU/XQ2ZpnePcQFIrnx8AaNK0bAmi664VMHNG6Pcz9tuLnVtvlXDTTRK+/krDpEkqft0bH2EkScCt7SU0bChg3NjQoi3VwjHb6dosgbFtNFGRIKKDBFH8OG34/Y9IkjQVgvBfAI1Le0HFREHAXyQLjGWB86wCnxEfM00FjGUVtOVmFbTlZgmCkKVKUhby808hyqGqccM0t4KxW60e4pwHCqsLWo1YmAwR54Bdx5rHa31zy8mxjlWlBLai8vM5XrVxnna7GTp0knHmDLe1BahXr2xp+UvrWgu0Y0fDZ1okCejRU0b3HjJWrTLw7WwN6f/Tcfp0bBkaUQSaNRfRtauMLl0lVKnMsHSpAasB8lamkZLDV2DOmG0tHUEQ4SFBFGd0Xf8ZQDPZ7R7IOR8OIEwDtGMoAHw4J2rOEzQFHiPBYoYxH3RdOU/QHEO0lZ7h2plKl80ALAURENg2E//svbYXAQwc3Maq2c4F2a4GW45zeQvnwJDBCg4etL7p33OfjCqVGTIy7DMmJSHaioPdNmNuLv+z0ywcjAFt24po21aEYQCbNhrYsMHAxg0G9uw1kXnIXhxKElCrloB69RgaNhLRqrWIVq1EVKgQ/Jp23qtWEzfCzBCOCl2SSBARRJSQICoZNM3vH+/xeObppvk+gNuL+PnSy86UXUETExzYEu5WqesGZCmgUFiY2RQmh60Hkcdt44Zt42sUjfdNcRg5wo9586yHtLrdDAMHBo433Gis0m63vxBXmPUUd16ZKAbGkVw4PuXESQ5fPofiC/gWJVdkqFAh8BWJiLUTRIYZunYnP24MOIDc3OPORSSI8gUJohJEUZR9ADqLbndncF4RjOUU1M5kq6KYE3PtzF9UzDiByNiWcPdLwygUDkKYUePhxnpYbYkEYlt/X4hTeY5hAG8MUyydnc/xzLMuXHppQJGFE2YBMVd2RFE400yn5igHuuqcP2Yr92lNdbSoeqWTwQiivEGCqBQw/P75pb2G8oaqqjsllysXNluWepBqKSpDZPMaNvrDLnMRTnhFS9Zpjqef8mH5cvu0T+MmIp54orDrLsHCKuAcp04BNWvaPlzinLIxW5RdgNemhqukycmxXmNSosXPnnHwhRkrran1BPGXgHyIiPKCDmCV3YOcc+gFKR4hTMqEm6btlppVgs40YTsdPly2Ixrmz9dx6y15YcVQ5coCJk8JHtJatYr9VlDmobI19iXzsPU5q1qF2Z7nkiYn23qNlVJCf6+yTjt4fk3T9vebIIiiIUFElCdWhHvwXJZICFtDZNomkKzmbAkCUCHZ+glZWeFWEzkb1hu4/958PDYg/LiKxESGyVM8qFUreD2CANSsaX0p2L69bAkiO/uAtNplxx4g20YQpVQK/d5ph34HAORouNAtgQAAIABJREFUmkYF1QQRAySIiPKDaYYVRFrBNO5wGSLTNCHYFP9k2bRwV061FkQnT0YvNvLyOL6draHbXfn4x135+OWX8O1KSUkMn33uDSkgPkfjxtbHvMHGwbq0WLPGej2Nry4j6SHYC6KKFUPXeOyIY4LzfwhkQQmCiBKqISLKDbqur5FcLgWAx/JxQwfnHIwxMCZYFlAHHreOn53NYRihXUaVqzBkZIT+/FezNHAONGooom49IWwHk6JwbN9uYssWEyuW61i5MjDQNBIuuYRh8hRvWJPFa64VMX9+6P10yRIdmoqgLbbS4tQpExs3WAuipteUnQzRwT+sRU7lCywM/H6O4xbzzaKBcb7AkUAEUY4hQUSUJxQASxHG9kDTdbhkGYLAbLvD7G5hpgmczuIhs78qV7ZWUD8tN/BTQb2P7Ap47FSpKqDCeWXfZ84CRzLNqG+cbdqImPiRF1Vs1nCOG28UMcri+2fOcKSn67i9c+lfKr771rB8TwQB+PvNpb++c/y+z/q9qlsvWLQdzuTFtgqwgWuStABafIfTEsRfnbJzFSGIEoAx9gPn3FYQ6boGlyxDFETbIa7hpMWhP0xUrRJ840utXPTOtKYGJtIfOuTMFlVCAsPQf7rx8MNyRH5HjZuISEtjOHQo9GY+9RO11AWRYQCfTre2lbj2OrHMDKDlHNhvY3RZt27wG/H7Pse2y7bC58t0KhhBlFeohogoV2iCMC/c46qmgXMO0c5dD4BumLai6IDFdknNGiV3sxYEoFs3GelLEtG/f2RiCAh0wt3Z1XrP7pdfDKxcWbq1RN98rdk6at97T9n5u+7YMY78fOsMUf36wb8Hu3c5JohmOxWIIMozJIiI8oXP9weAHXYPc86h6XpYQRQwcbQWOQf/CL0Z1qkTf0Eky0CXLhJ+XJiA9973oHbt4r9mn4dcti7LbwxToJWS72dONsc7b1mbryclMXS7J84zUIrB1q3WwtHlYqhVK/hyu2e3M4JIAL52JBBBlHNIEBHlkW/DPahp6nlzzUIxDAPMxlRx757Qm1yDBvH7mF3VQMCQF9z4ZW0SPvzIi0aNoi8urp3GcPvt1tmWXbtMjBlTOvN6X3vNj2PHrbMuvfvISApjLFnSrF9nLYiuaiCEiM2tzsyl36Kq6m4nAhFEeafs5JoJooQQgBkm8Ird45quI4ExCIxZjlsA7Oed7dgZepO78ioRbjez7AqTXShW5qV2bYbrrhPRrIWE9u3FP8dvOMXQF91YuFC3rM+d+IGKpk3FEq0nmjZVw+xvrIuFk5MZBg6MrP3NNIHjxwMzynJzOSSZISWFISXF2Xlt62wEUcsWwe9T1mmODGdqiCg7RBAOQYKIKHeoqrpbcrk2Amhm9TjnHKqmQpZl+Is5Hy5jnwlF4fB4Cm+ysgw0aChgy+bQm+WTT7rQq48LBzIMZGUBp0+ZyM4JPOZNYPC4OKpUE1CrFkOtSwRUrBTfbEjdegL69JEt56CZJvDsMwoqpXjRpk3829znzNEw7DXF9vFBg91IsfF4ysgw8dNyA+vWGti61cChTNNWeNaqxdCggYgmTQXcfLOEa68TbbcOw6GqHFttJua1aBV8qd2w0XBi9pqpC8IXMUchCAIACSKivMLYTHBuKYgAQPGr8LpdsNsk4jb90roecHdu0SL4jtr0GtFSEG3aaOD5IQw1qpedj+LQf7qxZImB/ftDj9Hn43iwtw8T/+tBhw7xW/PMGRpefkmxtT5o1lzEw/2Ca4dyczm+nKlj9mwN24uxHZWZyZGZqWPxYmDcWBUpqQxd7pTRp4+Mhg0jz8CtXm1CtRnW2vICQ8w1qx3ZLvsfFGW/E4EIgqAaIqKcogvCTIRx9jXN8Dcsk3PbTrO1Fm7KTZtYf9TWrDHh8zk70yxWEhMZxo332BpFKgrHI/18GDtGhe6wN7KicPz7XwqGvqDYxk6uGFjfuSxOfj7Hu6P9aN0qD68PU4olhqzIOs3x2XQVHdvn4Z67fVizOrKDXLjQ+udq12aocUGn4bKlsZ84DkyOOQhBEH9CgogonwR8W8K24Gu6HnaumZ2MsRJEN7S13oNRFI5Vq8rWeAwAaN5CxMhRlobeAALbZ2Pe9ePOLvm27tHFZflyA51uy8f0afYGg4IATHjf86enT3p6YKDtuLEqzthMmY+FtWt03HuPDw8/5LNt+wcC/kOLFlivu3374EzakSMceyyK74sF58cNVZ0bWxCCIM6HBBFRfmHsv+EeVjUtbPu9HevWGSFFyXXqCKh/ufXHbemSsjmCqnsPGc88G75oefs2A3d1zUe/vj6sXFn8uhjDABYt0nH/vfno3TMfv/9mLxQYA/7zlgft2knQdWDEcD/69fVZmkk6TXq6jts6BMSa1TFu3mTg6FHrddx2e3CqbUm6dYxiwdhkAKVkhEAQf03KTr8qQZQ8THK5dgO40u4HREGAEcV8hS+/SkDbC7JCrw9TMHlSaBYhLY1h1eok2xlppc27o/0YNzaye29aGkP7DhLa3CChcWMBl1wiQDovQaKpwKFME5s3GVi9xsSiHzWcPFW0OhAEYPhwN/o85IKmAo8/5sOiRaUjJG++WcQHE71IPm9Y67BXFUyZEvreVkph2LQ5Kegc9HggP1ajS1WXpMuQn38kliAEQQRTRi/BBFEySG738+B8tNNxBzwq49XXgrecVqww0LN7vuXPf/tdAlq2KjsDSi/k02kqhg3zF3tcFmMIEg45NpPgw5GQwDD+PQ863S5B04BHH/EhPb1oMeRyMdx4o4gb2opo2lTApZeJqF6dQRACmamsbI7MgyZ27TKxfr2BJek6TpyMbH1XXClg+qcJqF2bQVE4WrbIQ3ZW6HPvvU/G2HGFvwcnT3G0uC7Xtlg8EhgwXVPVvtFHIAjCChJERHknWXK5DgCo5GTQyy4TsOLnxKDvqSrHtU3zcPZs6I3zge4yRr9rX7NTFli7RsfTTyk4fLjkisCvvErAhPc9fxpODntNwZTJ4VVZWhrD40+40e1uCcnJkV/iOAdWrjTwxWcqFizQixQtVSozzJiVgB3bDQx6ztoeYPpnXrRrV5gemjZVwyv/trcSiAQBuEZV1a0xBSEIIgQSRES5R3K5hgP4l9Nx5/1fAq69Ljjr88IQBV/ODL2hJyUxbNiUiISEkv9IqirH4cMcmZkcWedlOSpXZqhejeHSywpdls+e5RgxQsXML1SnJrVbIruA/v1dGPKC60/jxB9+0PH4oz7b57jdDM8NcuGxx1yQI/NrtOW3X038Z5TftnPsHNWqMqRWZthtMYYjLY1h5aqkIE+j2zrkY6eFeWcx+FFX1c6xBCAIwhoSRASRlFRNUtUMAAlOhu3/iIxhrwdnfdavM9DtH9bbZmPGenDf/fGfy2UYwOrVBhana9iwwcS2bUZYt+ykJIZmzQR0vE1Gt24Skisy7Nxh4O23VCxe7GwdjygCd9whYeg/3UEu3GdyOG65KQ/HT1hnp2rVYpg8xYvGTZzddly4QMeLQ/04dar46u+Foe6govQtmw10ucP6vY8QzjhvrWnauliCEARhDQkiggAgyvIExthTTsasVpVh9bqkED+fm/6eh32/W888W5SeGLfi6owME1OnqJg714jqBg8AHg9D9x4SBg12IzU1kBn57DMN33+r4cyZ6LfSqlVluKubhIf7uS0H0772imLpng0EMjFfz05EWlp8TtyJkxyP9vdh/frIMzuSBPyyNgk1qheuacjzCmZ9WcwirGDm6araNZYABEHYQ4KIIAAgIaGmpOu/weEs0YcfedGlS7APzcQPVIwaae2BPWWqFx07OusAvXOHgdHvBLI5Tm1zJScz/PsVN3r0DKg9TQVWrwlknbZsMbFrp4m8PHuBVKECQ9OmApo1E3FLOwnNW4iwm6d77DhH2+vzLGfBeb0Mc+YlFMtROhr8fo7BzymYOzeyjFjnzhI+muT98/9PnuK4vqX1MUQIZYcIIs6QICKIAiSXaxSAfzoZs21bEV9+FayxTpzkuKF1HhQl9ObYrLmIOXOd0WRHj3KMHOHHnO+1uNX73HWXjLdHu0Nqn0wzcJynTpg4dbrw+1WqMFSrBlSuHLmAGTnCjw8nWu/pvf6mB/36xX+bESiY5fa0gu+/D5/lYQz4YX4CmjQt3L4b864fY8dEbxvEgFmaqnaPOgBBEEVCgoggCkmRXK7fAaQ4FZAxIH1xIq68KlgA/Ptfiq0j84wvE3DjjbHVwnz9lYZhw/xxcW++kBYtRUyfHuzL4xS6DrRqnmvZDt+ggYAFixKjGsQaLZG0/d96q4RpnxZmh3JzOdq2ycPp01G/F4ouCA1pbhlBxBdyqiaIQrIA/MfJgJwDH34Ymhl4/Am37aywEcP9UfvU5OZyPDrAh8GDlGKLoYQEhvqXC2jSVMQVVwqoUCEygbN+nYHu3X1ht8iiZeVKw9Yb6KlnXCUqhgBAloFx4z1wuezPzbPPBbe4TZ2qxSKGAOBdEkMEEX9IEBHEeeiqOh7Ar07GnPO9FjJeIi2N4R/drBXRju0GZs0s/vZKRoaJrnfm48f5kdW5VK/G0OchFz6e5MX6TUnY82sSli1PxPwfE7BkaSJ27k7Cip8TMXyEp8ganW1bDTw10H46fbTYuVFXq8rQpUvJbJVdyDff6LZT7W++WcR1zQpV2tmzHB9/FNOEjSO6qjoq0gmCsIYEEUEE4wdjzzgZUNOADz4IvSk++aQraKTD+bz9tlasDM+O7Qb+0TUfv+4NXyzEGPD3m0R8+nkC1m5IwsiRbtzeWUL1atYZj8suE/BQXxkLFiVizFgPKlayz4ykp+sYP866WDxa7CbN39lVKvHsEAAcP8Ex5l3rY5Qk4N+vBNssTPxAtXSwjhQODAGQG3UAgiAihgQRQVyA7vcvAPCtkzFnzVSxf3+wWKl/uYBeva2zHKdOmXjnncjExeZNBh54wFfktkzr6yV8PycBX8xIwC232Hd1WSEIwH33y1iwMBENGtg/ccJ7KrZsdiZNlJPNbQXeze1KJzv08ouKrb1A34dlXHXeuTl0iGPSxzG12S8wVHVGLAEIgogcEkQEYYEuioMA5DkVT9OA0W+HZomGDHGjUop11mX6NK3IIaC//Wqid29f2BlhyRUZ3h3jwTezvWjWPLa0Sloaw9ffJNgaIOp6wI3bia2zfftMy6nwogi0aFHyl67PP1VtnaurVWUY/Lw76HujRiixtNnn6YLweLRPJgii+JAgIggrfL4/GGMvOhly7lwtxNyvUgrDkCFuy5/nHHh+kM926+zESY4H++SHFUPXXCvif+mJuP8B5zIqlVIYpn3qxSWXWAu5XbtMzP4mpswIAGD/AevsUM2aDElJJdsg+9uvJt54w74W6KV/uYOK0H9abkTsWWQFY+wVKMqBqAMQBFFsSBARhA2a3z8RnC91Kh7nwL9eDu0g69Vbtt2GOnyY49VXQ7fOdB14tL8PBw/ai6G775Ex+1t74RIL1asxvDfBY7vt9u5oP7QYNdGJ49bHVqdOyV62VJXjyScV+HzW62nbVsQ99xYKTkXhePmlGAa4MvaT5vePjz4AQRDRQIKIIOzhkij2B3DWqYA7dxj49NNgpSBJgTlmdm34s7/RQgbCjh/nDztKoveDLowd5/lzMGo8aH29hIcesl704cMcP/4Y25wzxUZTRGoH4AScAy8O9WPnDutzXSmFYex4b9C4ldHvqDhgk92KgBydsQcBxHF0LkEQVpAgIogwKIqSwTh/3smYb43y4+AFbfhNmop49jnrrTMgkFk6J4DWrzcw4T377ZsePWWMHOkuVtF0tAwa7EZysn0NVCxYOXkDgNv+NDnOhPdUfPO1/XG89bYHNWsWHv+a1TomfRx9mz0HnqKtMoIoHUgQEUQRaJo2iQGznIqXl8fxwmBfSMHwk0+5gjxszkdVOR57xIdDhzhe/qd90fJNN4kYOcoTtwGxF5KSymyzROvW6jhyJPqWc6/X+iDyYxoYHzlz5+oYHabTr3sPGZ07F/omnD3LMeg5JeoxKQyYYajq59E9myCIWCFBRBARoKnqoxz4zal4P/9sYOrU0K2z8eM9SEy0FgLHT3B0vj0Pu3ZZ33HT0hgmfui19TaKF70ftPZT4hz438Los0R2mafsEhhHsn6dgecHKZZdbgBQr76A198ITlW9+IIStqarCHZoqvpYtE8mCCJ2SBARRGScETh/AIBjzoMj3vRj+7bgVE/degLGjLPP8GTZeA2JIjD+PU9c5okVxSWXMLRubZ3ZWro0+v77lFTrY9m/L77lNRvWG3iwj892yy4llWHaNG/QQNtPPtEwb17UNVNnRMbuBhkwEkSpQoKIICJE07SNjPOnnIqnqhwDn1Bw9mzwjbdzZylkHlZR9O0ro1XrEk4NnUfHTtbbZps3RS+IrrjC+vJ08hTHqVPxEUUbNxjo09sX8p6cQ3YBH3/sQd16hWtbt9bA8Dei7irjHOjr9/v3RhuAIAhnIEFEEMVA07TJ4NyxluiMDBODng2tOxk02I3bOkUmcCpXFkJMAUua61vbi5fMzOi2kerXZ7bbf2vWOC+IihJDAPDWWx5c36ZwUQcPcgx4RInFYuB1Q1W/i/rZBEE4BgkigigmuqYNAbDIqXgLF+oY/XbwTpwgBKaqX924aGfpp59xlcpW2flceZUIj8d6Dfui3OJyuRgaNLQ+/mVLY2vpv5AlS3T06umzHcsBBM7zffcXZsLOnOF46MH8sNmqcFKQAZ/pqvpGNOslCMJ5SBARRPHRdVXtDmC3UwHffz+0vTspieGLGR5cbrN1dI4vZ6o4ejT+hcbhkCSgdh1rQXT0SPTZnJtvthZECxfYT5wvLlOmaOjX14fcXPt4/fvLeGFoYRZOUTj691OKHqZr9wDnyzRVfQThNRNBECUICSKCiI4sXRRvA3DIiWCcA0NfULBsWXDNTeXKAmZ+mRDWnXn3bhP/6JqH3btL18uvZg3r2/+xY9Hf8+0E0enTHPPnx5Yl0nXgpZf8GPZq+Nlr/frJeO31wkJ3XQeefELB6l+ifv2duqbdAyB6wyKCIByHBBFBRIvP94cAdAJw2olwmgY8NsCHTRuD7841ajDMnOVFDRvBAQCZmRxdu+Tj669inyEWLXYO0rFkclq0lGxHj0yepNm2xRfF0aMcvXrk4/NPw2uSfv1kDHujUAwZBjDoWQWLFkUnhjiwT5ekDnDod4YgCOcgQUQQMaCq6g6Y5p0AHLELzM/n6N3bhy2bg0VRnToCvp2TiHr17T+yPh/H4EEKnh9sP3crntg5Y0crWoCAnUD3HtYdd1s2G1GNB1nwo46OHfKwalX4DrhHBgSLIV0Hnn1awfffRy06M2VBaI/8/MPRBiAIIn6QICKIGNF1fRUEwTFRdCaHo1cvH7ZtDb5h105j+O77BDRrHr7Q+qtZGrp2ybc1cIwXqo1OiNU1u3sP2XbO239G+iMWf/n5HEOH+jHgEZ+tnxMQEGFvDvfgtWGFYkhTgWee8mHOnCjFEOfHBaC9oigZ0QUgCCLekCAiCAfQFWWJk6IoJ5uj+wO+kDqV1FSGL2d50b59+Jb83btN3HF7Ht76j9/WYNBpTp60fp3U1NguMzVrMtzf3TpLlJFh4q1RRXtlLlmi47YO+Zj5RfgtsgoVGKZ9moC+DxcqsNzcQDdZDMaLhwXGblZV1bEifIIgnIcEEUE4RIEo6gKnMkVnOHr3UrDggm0hr5dh0hQvHuprkzYpQNOA9yeo6HBrPlaujN4gMVLsusmqVovdEuC551y2bf1Tp2pYvtz6+A4e5Oj/sA8P9fFh//7wGbO0NIbv5yQEFXIfO85x370+rFgR3fljwB8iYzepqrorqgAEQZQYRZucEAQRMaau7xcYWw7GugHwxhrPMID5P+hIShKCtsoEAWh3q4TLrxDx03IDapjER3Y2x7ezNezdY6JhQxGpNiMxYiE7i+Ptt60XMWCACzUvie1vr6QkBsXHsXZtqDDhHEhP19HpNunPY8vL43h/goqnn1SwZ0/RW4cdOkiY/lkC0moXrnPrFgPd78+P2keJA7/rgnCL4ffTNhlBXASUrpsbQfxFcblcV5vAAgBpTsXs0VPGiBEeyBfsHmXsM/H4Ywp27iw6iyGKwD33yhg02I20NOc+/j/9ZKBXj9DEmCgCO3cnBc39ihZV5bi9Uz722gicyy4TMG26F/Pn65g0SQ1bJ3QOj4fhlVdc6POQK6jW6bvvNAwdEtN24zpdlu9EXt6xaAMQBFGykCAiiHjh9daRDGMBgIZOhWzRQsQHH3pDWtEVhWPYMBUzPlcj6upyuRi695TR72EZ9S+Pfed81Eg/Jn4QmiG6qoGA9MWJMcc/x9YtBu7qmg/dAaPqhg0FfDDRiyuuLDx+vz9wHotqxy+Cubqq9oBDW6cEQZQMtGVGEPFC13NMw5ghCEIzMFbfiZCHDwe2vxo0FFG3buGNXJIY2reXcH0bCevXG8jOCq+KDCPQtj59uob16wwkVWCoW1ewbZ0vildf8eO0RUamY0cJHTo6N3S2eg0BSUkCli+LXhG5XAwDn3Thvfc9qFat8ID3/W6idy8Fi9Ojj805n2BoWj+Q6SJBXHSQICKI+KKYpjlTEIRKYKy1EwF9PuD77zRkZ3G0uUGEJBVmi2rXFtCzV6DYeuNGI2RorBUHDnDMnaPjm681ZGdzpKQKqFo18uTxnt0mxo21vv8/N8iNyx3IQJ1PteoCli3TI9oSu5B27SRMne7FHV1kiGLgGDkHPvlEw+OPKjgS/ZgRP+N8oK5pI0DjOAjiooS2zAiihJBluT9nbCIA6x7yKKhXX8C4cR5c1yz0b5s9u028PkyJqkOqbj0BXbpIuOMOCY2uFsN6Cb38sh+fTQ8VRF4vw5ZtifB6Y7vMcA7s3WNi6VId8+fr2LzJKLbZY506Al573Y2OF2Sr9u838eILSpEmjUWQyTi/R9O0NbEEIQiidCFBRBAliCzLLUzGZjGgnlMxBQHo86CMoS+6kZwc+pH++WcDb7/lx8YN0d30U1IZWrYQcX0bCS1bCmjcRIRUoCvO5HC0apmHvLxQhXJ7ZwkfTyp+o52mAb/uNbB5k4FVq0ys+lnHCRuPo6KoUYPhiSfd6NVLgttdeG5UlWPiBxren6DC748hocPYcl2SHqDiaYK4+CFBRBAlT0XJ5ZoM4F4ng1avxvDyv93odrdsmdFZtEjHO2/5Yx4C6/Uy1K0n4PL6DGfPcixdai20ZnyZgBtvtN6VN03gxEmOQ3+YOJRpIvMQx/4DHNu3Gdiz24x5kn2tWgwDB7rQvacMlyv4ZCxcoGPEcD8yMmI6DzqA13VVHQUg/iZPBEHEHRJEBFFKyLL8BGdsNIAEJ+Nec62IV191oVXr0GJm0wSWLzcw7RMVy5bpEdUYRUvt2gyCwJBcMXCZyc3lyM/lOJsbGKMRD664UsAj/WXcd78rxJ5gy2YDb76pYs3q2FrUOLBP4LyXpmmrYwpEEESZggQRQZQibrf7CgOYCs7bOh27XTsJgwa7cO111lmaAwdMTJ+mYtYsHWdyLt46YLebocudEnr1ktGyVeixbtlsYNxYFYsX6zENmgXAOWNTDL//eQBnYopEEESZgwQRQZQ+guR2DwLnwwF4nA7erp2EJwbKuL6Ndfu7z8exeLGBH+ZpWLLEiFv2xkkkCbihrYguXWR07iyhYqXQS9mKFQY+/q8fy5bFvqPFgX1MEAboirIk5mAEQZRJSBARRBnB7XZfYXD+PoCO8YjfpKmIAQNk3NFFCqmrOYfPF6gJmv9/OpYt15GTXXbEUXJFhjbXi7i1vYROnSSkWIwgyc8PWAhMmazGXCtVgA7O39M17RWQ0SJB/KUhQUQQZQzR5bqXAWPh4NiP80lJZbj7bgk9e7pw5VX2HkGmCezda2L1LwbWrdWxZrWBY8dLTiBVrcLQuImA1tdL+NvfRDRuIkK0cU7bsN7ArK90zJujITfXoTVyvkRg7DlVVbc5E5AgiLIMCSKCKJskSS7XywCehcNF1+fTqJGILl0ldO0q4dJLizZQPHiIY9/vJn77LfC17zcD+343cfRYdCJEkgKt8bXSRNSuHXDLbnR1oLW/RvXwl6ft2wzMm6dj3lwNBw86J9Q4sA/AEENVv3MsKEEQZR4SRARRlvF6a4mmOYxx/jDi7Cx/VQMB7dpJaNdORPMWEmQ58ueaJnA6iyPrFEdWlonTpwH9vNId1c/hcjMkJTEkJQWm1ycnM1Srxv70NCqKs2c5Vq4wsHSZgeVLNRw+7HC2ivPjTBBGaX7/hwD8zgYnCKKsQ4KIIC4CXC5XIxN4A0A3AM7OwrAgIYGhWTMBrVpLaN5cRJMmgmXNTjw5eIhj6xYD69boWLPWxK6dBoz4OP5kAXhHV9X3AOTF5RUIgijzkCAiiIsIl8vViAMvcaA7AOempkZAWhrD1VeLqFtPQL26DJfVE1GzJkONGgweT3SXkjM5HEeOcBw8ZGJ/Bse+DBO/7jWxe3fRA2pjhvNjYGyCrqofAMiO74sRBFHWIUFEEBchbre7vg4MYZz3AZBY2utJrsiQmsJQIZmhQsGWmOs8Y0RNB/LzOHw+IC+PI+s0x6ksDq10ZsLvYZy/q2naZwCUUlkBQRBlDhJEBHFxU0lyu/txzgcyoH5pL6YMYwCYzxn7yPD7fwQQR49ugiAuRkgQEcRfA0F0uzsJnPflwJ2Ig8HjxQgDDnJgii6KU+DzHSrt9RAEUXYhQUQQfz1SZFm+nzP2IIA2KG+fc8ZOcOAbZhizdF1fAcoGEQQRAeXrQkkQ5Q2vt5as63dxoBsYuwlAMZrpLx4YcNBkbD4DvtP9/sUITKMnCIKIGBJEBFF+SBFdro5grD04v5UBdUt7QTHgB2OrwfmPAjCf3KQJgogVEkQEUU5xu931TdO8xWSsDQNaAWiIOJs/xkAWgFUAfoZprtB1fR2nFNlpAAAAkUlEQVTIPJEgCAchQUQQxDkqSB5PC8b5tSbQkAENwXkjAKkluAY/gP0AdgDYwhnbbDC2BYpyoATXQBBEOYQEEUEQ4UlKqib7/XVMxtIExupwzmszoAYHUhD4qlTw77nONhFAcsF/5wLQGJBrBv49C86PM8aOc85PgrETnPNDjPMMXZb3wefLBFByE2QJgiAK+H/jvZVKP285AgAAAABJRU5ErkJggg==;" parent="1" vertex="1">
                    <mxGeometry x="50" y="230.70000000000002" width="70" height="48.6" as="geometry"/>
                </mxCell>
                <mxCell id="24" value="" style="edgeStyle=none;html=1;rounded=0;shape=link;" parent="1" source="22" target="4" edge="1">
                    <mxGeometry relative="1" as="geometry"/>
                </mxCell>
                <mxCell id="22" value="ROS&lt;br&gt;(Port 11312)" style="whiteSpace=wrap;html=1;" parent="1" vertex="1">
                    <mxGeometry x="280" y="300" width="120" height="60" as="geometry"/>
                </mxCell>
            </root>
        </mxGraphModel>
    </diagram>
</mxfile>